<svg xmlns="http://www.w3.org/2000/svg" viewBox="0 0 473 448"><defs><style>.cls-1{fill:#6c97b2;}.cls-2,.cls-3{fill:none;stroke-miterlimit:10;stroke-width:40px;}.cls-2{stroke:#1f3442;}.cls-3{stroke:#aebd38;}</style></defs><title>Asset 2</title><g id="Layer_2" data-name="Layer 2"><g id="Layer_1-2" data-name="Layer 1"><path class="cls-1" d="M192,224A112,112,0,1,0,80,112,112,112,0,0,0,192,224Zm77,32h-8a158,158,0,0,1-137,0h-9C52,256,0,308,0,371v29a48,48,0,0,0,48,48H336c27,0,48-21,48-48V371C384,308,332,256,269,256Z"/><line class="cls-2" x1="339" y1="272" x2="339" y2="138"/><line class="cls-3" x1="339" y1="4" x2="339" y2="272"/><polyline class="cls-3" points="473 138 205 138 339 138"/></g></g></svg>