<svg xmlns="http://www.w3.org/2000/svg" viewBox="0 0 640 501.25"><defs><style>.cls-1{fill:#6c97b2;}.cls-2{fill:#1f3442;stroke:#1f3442;stroke-miterlimit:10;stroke-width:40px;}</style></defs><title>Asset 2</title><g id="Layer_2" data-name="Layer 2"><g id="Layer_1-2" data-name="Layer 1"><path class="cls-1" d="M96,245.25a64,64,0,1,0-64-64A64,64,0,0,0,96,245.25Zm448,0a64,64,0,1,0-64-64A64,64,0,0,0,544,245.25Zm32,32H512c-18,0-33,7-45,19,40,22,69,62,75,109h66a31.59,31.59,0,0,0,32-32v-32C640,306.25,611,277.25,576,277.25Zm-256,0a112,112,0,1,0-112-112A112,112,0,0,0,320,277.25Zm77,32h-8a158,158,0,0,1-137,0h-9c-63,0-115,52-115,115v29a48,48,0,0,0,48,48H464c27,0,48-21,48-48v-29C512,361.25,460,309.25,397,309.25Zm-224-13a64,64,0,0,0-45-19H64c-35,0-64,29-64,64v32a31.59,31.59,0,0,0,32,32H98C104,358.25,133,318.25,173,296.25Z"/><line class="cls-2" x1="480" x2="480" y2="190.5"/><line class="cls-2" x1="575.25" y1="95.25" x2="384.75" y2="95.25"/></g></g></svg>