<svg xmlns="http://www.w3.org/2000/svg" viewBox="0 0 640 492"><defs><style>.cls-1{fill:#6c97b2;}.cls-2{fill:#aebd38;stroke:#aebd38;stroke-miterlimit:10;stroke-width:40px;}</style></defs><title>Asset 2</title><g id="Layer_2" data-name="Layer 2"><g id="Layer_1-2" data-name="Layer 1"><path class="cls-1" d="M96,236a64,64,0,1,0-64-64A64,64,0,0,0,96,236Zm448,0a64,64,0,1,0-64-64A64,64,0,0,0,544,236Zm32,32H512c-18,0-33,7-45,19,40,22,69,62,75,109h66a31.59,31.59,0,0,0,32-32V332C640,297,611,268,576,268Zm-256,0A112,112,0,1,0,208,156,112,112,0,0,0,320,268Zm77,32h-8a158,158,0,0,1-137,0h-9c-63,0-115,52-115,115v29a48,48,0,0,0,48,48H464c27,0,48-21,48-48V415C512,352,460,300,397,300ZM173,287a64,64,0,0,0-45-19H64c-35,0-64,29-64,64v32a31.59,31.59,0,0,0,32,32H98C104,349,133,309,173,287Z"/><line class="cls-2" x1="471.88" x2="471.88" y2="226.25"/><line class="cls-2" x1="585" y1="113.13" x2="358.75" y2="113.13"/></g></g></svg>