<svg id="Layer_1" data-name="Layer 1" xmlns="http://www.w3.org/2000/svg" viewBox="0 0 466 445"><defs><style>.cls-1{fill:#6c97b2;}.cls-2{fill:#1d1f33;}.cls-3,.cls-4{fill:none;stroke-miterlimit:10;stroke-width:40px;}.cls-3{stroke:#1f3442;}.cls-4{stroke:#aebd38;}</style></defs><title>add-existing-user</title><path class="cls-1" d="M191,253c61.86,0,112-56,112-125a110.83,110.83,0,0,0-3-23.45,131.21,131.21,0,0,0-17.87-42.86,140.83,140.83,0,0,0-31-34.76c-9.95-8-25.14-19.85-47.31-23.11A84.63,84.63,0,0,0,191,3c-23.66.25-41,10-48.55,14.34a122.68,122.68,0,0,0-36.26,32.39c-6.34,8.38-23.46,31.6-26.67,66.2,0,0-.59,6.25-.52,12.07C79.38,161.32,113.55,253,191,253Z" transform="translate(0 -3)"/><path class="cls-1" d="M269,256h-8a158,158,0,0,1-137,0h-9C52,256,0,308,0,371v29a48,48,0,0,0,48,48H336c27,0,48-21,48-48V371C384,308,332,256,269,256Z" transform="translate(0 -3)"/><path id="Helmet_army" data-name="Helmet army" class="cls-2" d="M318.14,94.94h0a5.68,5.68,0,0,1-5.85-5.18C309.38,30.54,257,3,192.73,3S76.07,30.54,73.16,89.76a5.68,5.68,0,0,1-5.85,5.18,5.68,5.68,0,0,0-5.86,5.47V136c0,5.27,4.58,9.53,10.23,9.53h0a10.62,10.62,0,0,0,7.06-2.64c1.05,10.58,4.44,22.09,10,33.71a159.73,159.73,0,0,0,26.49,38.75,148.47,148.47,0,0,0,36.54,29.32,109.6,109.6,0,0,0,10.71,5.22,9.89,9.89,0,0,0,7.33,9.61,77.17,77.17,0,0,0,45.89,0A9.86,9.86,0,0,0,223,249.9a110.86,110.86,0,0,0,10.72-5.22,148.66,148.66,0,0,0,36.54-29.32,159.41,159.41,0,0,0,26.48-38.75c5.53-11.62,8.93-23.13,10-33.71a10.65,10.65,0,0,0,7.07,2.64h0c5.64,0,10.22-4.26,10.22-9.53v-35.6A5.67,5.67,0,0,0,318.14,94.94ZM264.93,215.17c-13.75,15.59-29.26,27.31-44.49,34a10.73,10.73,0,0,0-11.16-3.06,52.47,52.47,0,0,1-33.11,0A10.73,10.73,0,0,0,165,249.19c-15.22-6.71-30.73-18.43-44.48-34-21.66-24.56-35.12-54.55-35.12-78.28v-9.37c2.29-2.66,40.54-9.1,56.16-10.29q18.65-1.42,37.29-1.81,25-.51,50.08.84,15.45.83,30.9,2.38,13.44,1.33,26.87,3.22c1.34.19,11,3,13.34,5.66v9.37C300.05,160.62,286.59,190.61,264.93,215.17Z" transform="translate(0 -3)"/><line class="cls-3" x1="332" y1="277" x2="332" y2="143"/><line class="cls-4" x1="332" y1="9" x2="332" y2="277"/><polyline class="cls-4" points="466 143 198 143 332 143"/></svg>