<svg xmlns="http://www.w3.org/2000/svg" viewBox="0 0 34.17 51.62"><defs><style>.cls-1{fill:#aebd38;}.cls-1,.cls-2{stroke:#aebd38;stroke-miterlimit:10;}.cls-2{fill:#333;}.cls-3{fill:#606060;}.cls-4{fill:#7f7853;}.cls-5{fill:#49452a;}.cls-6{fill:#3f3b23;}.cls-7{fill:#575436;}.cls-8{fill:#7a734f;}.cls-9{fill:#827a59;}.cls-10{fill:#66643f;}.cls-11{fill:#8f885f;}.cls-12{fill:#867f5a;}.cls-13{fill:#414433;}.cls-14{fill:#333522;}.cls-15{fill:#2b2b2b;}.cls-16{fill:#353626;}.cls-17{fill:#3b3e2e;}.cls-18{fill:#75744e;}.cls-19{fill:#393c2d;}.cls-20{fill:#464938;}.cls-21{fill:#fff;}.cls-22{fill:#212121;}.cls-23{fill:#848484;}.cls-24{fill:#5e5e5e;}.cls-25{fill:#737373;}.cls-26{fill:#3d3d3d;}.cls-27{fill:#585858;}.cls-28{fill:#343627;}.cls-29{fill:#46483a;}.cls-30{fill:#424242;}</style></defs><title>Asset 1</title><g id="Layer_2" data-name="Layer 2"><g id="Layer_1-2" data-name="Layer 1"><path class="cls-1" d="M17.25,46.84S3.87,26.1,3.87,17.21a13.38,13.38,0,0,1,26.75,0C30.62,26.1,17.25,46.84,17.25,46.84Z"/><circle class="cls-2" cx="17.24" cy="17.08" r="6.67"/><ellipse class="cls-3" cx="17.24" cy="50.22" rx="8" ry="1.4"/><path class="cls-4" d="M5,12c-1.64.26-1.74,2.75-1.69,3.46H5l.84-2.77Z"/><path class="cls-4" d="M30,12c1.64.26,1.74,2.75,1.69,3.46H30l-.84-2.77Z"/><path class="cls-5" d="M32.47,16.34c-.55-1.74-4.95-3-5.46-3.56-4.76.23-14.3.23-19,0-1.59,1-4.13,1.61-5.38,3.26-.68,4.3-1.32,6.34,1.46,6.27,3.82-.76,6.22-2.77,11.07-2.61h0c-.16,0,4.78,0,4.73,0h0C28.24,19.33,34.78,27.7,32.47,16.34Z"/><path class="cls-5" d="M17.21,19.68V13L8,12.78c-1.59,1-4.13,1.61-5.38,3.26-.68,4.3-1.32,6.34,1.46,6.27,3.82-.76,6.22-2.77,11.07-2.61h0Z"/><path class="cls-6" d="M32.61,19.62c-.94,3.06-9.46-2.52-13-1.6h0c.16,0-4.78,0-4.73,0h0C8.43,17.76,4.46,22,2,20.12c-.75,5.41,9.32-1.47,13.09-.42h0c-.16,0,4.78,0,4.73,0h0c6.23-.49,14,6.07,13-.08Z"/><path class="cls-7" d="M33,20.53c0,.66-.11,1.61-1.31,1.75C31.53,16,30,16,30,16c-18.08-.89-24.18.69-25.38.69S3.3,22.28,3.3,22.28h0c-2.3-.12-.9-4.55-.63-6.35C4,14.37,6.43,13.83,8,12.82c4.76.22,14.3.22,19,0C33.84,16.29,32.09,15,33,20.53Z"/><path class="cls-8" d="M30.69,14.76c-4.07-.79-4.13-.26-8.3-.57h0a80.34,80.34,0,0,0-8.65,0h0l-1.14,0h0c-10.23.11-9.2,1.42-7.91-.62,0-9.74,4.61-13.8,14-13.51C28.39.88,30,6.54,30.21,13.57,30.21,13.57,31.63,15.2,30.69,14.76Z"/><path class="cls-9" d="M17.21,0C6.3.52,4.91,6.74,4.67,13.57c0,0-1.25,1.45-.6,1.24,4.18-.87,4.24-.3,8.51-.62h0l1.14,0h0L17.21,14Z"/><path class="cls-5" d="M13.1,14.12c-1.54,0-4.83-1.92-6.62-3V5.59c3.45-1.32,8.34-1,11.22-.81,3.25-.43,8-.27,10.81.81v5.55c-6.84,3.87-7.06,4.14-10.86-.41h-.31C15.53,12.91,14.46,14,13.1,14.12Z"/><path class="cls-7" d="M30.07,11.1H28.51V5.59h.23A19.48,19.48,0,0,1,30.07,11.1Z"/><path class="cls-6" d="M4.41,25.12c-1.83,0-1.54-4.16,0-3.95C6.24,21.13,5.94,25.32,4.41,25.12Z"/><path class="cls-6" d="M30.42,25.12c-1.83,0-1.53-4.16,0-3.95C32.26,21.13,32,25.32,30.42,25.12Z"/><path class="cls-10" d="M28.73,30.21c-.45-.21-1.29-.7-1.29-1.48a7.48,7.48,0,0,1-.28-7.08s5,.55-.16-.65c-.87,3.82-9.19,6.05-9.19,6.05S9.87,24.82,9,21c-5.19,1.2-.53.65-.53.65a7.5,7.5,0,0,1-.29,7.08c0,.78-.83,1.27-1.28,1.48H6.63L17,48h0L29,30.21Z"/><path class="cls-11" d="M17,48,7.05,30.54l.06,0c.54-.25,1.44-.81,1.5-1.7a7.7,7.7,0,0,0,.33-7.12c.29-.15-2.59-.06.06-.69,1,3.7,8.36,6.17,8.51,6.29l.3.25.3-.25C18.27,27.17,26,24.7,27,21c6.14,1.43,1.71.86,2,1-.36.77-3.9,3.51-2,6.81.05.89.95,1.45,1.49,1.7l.07,0L17,48Z"/><path class="cls-8" d="M17.72,27.46l-.21-.17C17.36,27.17,10,24.7,9,21c-2.65.63-3.71.86-4,1,.36.77,5.52,3.51,3.61,6.81-.06.89-1,1.45-1.5,1.7l-.06,0L17,48l.72-8.46Z"/><polygon class="cls-11" points="11.39 20.76 10.04 21.09 9.77 20.38 11.12 20.05 11.39 20.76"/><polygon class="cls-11" points="25.62 21.14 24.33 20.68 24.7 20 26 20.46 25.62 21.14"/><path class="cls-10" d="M14,24.44a.28.28,0,0,1-.12.23.43.43,0,0,1-.28.09H10.41a.37.37,0,0,1-.4-.32.31.31,0,0,1,.12-.23.43.43,0,0,1,.28-.09h3.21A.37.37,0,0,1,14,24.44Z"/><path class="cls-10" d="M13,25.41H11a.55.55,0,0,0,.29-.09.3.3,0,0,0,.11-.23.37.37,0,0,0-.4-.33h2a.48.48,0,0,0-.29.1.3.3,0,0,0-.11.23A.37.37,0,0,0,13,25.41Z"/><path class="cls-10" d="M14.35,26.07h-3.2a.37.37,0,0,1-.4-.32h0a.37.37,0,0,1,.4-.32h3.2a.37.37,0,0,1,.4.32h0A.37.37,0,0,1,14.35,26.07Z"/><path class="cls-12" d="M12.8,23a.26.26,0,0,1-.09.18.36.36,0,0,1-.23.08H9.93A.3.3,0,0,1,9.61,23a.24.24,0,0,1,.1-.18.33.33,0,0,1,.22-.08h2.55A.3.3,0,0,1,12.8,23Z"/><path class="cls-12" d="M12,23.73H10.37a.36.36,0,0,0,.22-.07.26.26,0,0,0,.1-.19.29.29,0,0,0-.32-.25H12a.41.41,0,0,0-.22.07.23.23,0,0,0-.09.18A.28.28,0,0,0,12,23.73Z"/><path class="cls-12" d="M13.07,24.26H10.52A.3.3,0,0,1,10.2,24h0a.3.3,0,0,1,.32-.26h2.55a.29.29,0,0,1,.31.26h0A.29.29,0,0,1,13.07,24.26Z"/><path class="cls-12" d="M25,23.48a.24.24,0,0,1-.09.18.36.36,0,0,1-.23.08H22.1a.3.3,0,0,1-.32-.26.24.24,0,0,1,.1-.18.31.31,0,0,1,.22-.08h2.55A.3.3,0,0,1,25,23.48Z"/><path class="cls-12" d="M24.16,24.25H22.54a.36.36,0,0,0,.22-.07.24.24,0,0,0,.1-.19.29.29,0,0,0-.32-.25h1.62a.41.41,0,0,0-.22.07.23.23,0,0,0-.09.18A.28.28,0,0,0,24.16,24.25Z"/><path class="cls-12" d="M25.24,24.78H22.69a.3.3,0,0,1-.32-.26h0a.3.3,0,0,1,.32-.26h2.55a.29.29,0,0,1,.31.26h0A.29.29,0,0,1,25.24,24.78Z"/><path class="cls-12" d="M15.42,33.27a.3.3,0,0,1-.11.23.48.48,0,0,1-.29.09h-3.2a.37.37,0,0,1-.4-.32.28.28,0,0,1,.12-.23.43.43,0,0,1,.28-.09H15A.37.37,0,0,1,15.42,33.27Z"/><path class="cls-12" d="M14.41,34.24h-2a.43.43,0,0,0,.28-.1.31.31,0,0,0,.12-.23.37.37,0,0,0-.4-.32h2a.43.43,0,0,0-.28.1.29.29,0,0,0-.12.22A.37.37,0,0,0,14.41,34.24Z"/><path class="cls-12" d="M15.76,34.9H12.55a.37.37,0,0,1-.4-.32h0a.37.37,0,0,1,.4-.33h3.21a.37.37,0,0,1,.4.33h0A.37.37,0,0,1,15.76,34.9Z"/><path class="cls-8" d="M21.94,31.6a.31.31,0,0,1-.12.23.43.43,0,0,1-.28.1H18.33a.37.37,0,0,1-.4-.33.26.26,0,0,1,.12-.22.43.43,0,0,1,.28-.1h3.21A.37.37,0,0,1,21.94,31.6Z"/><path class="cls-8" d="M20.92,32.57h-2a.43.43,0,0,0,.28-.09.31.31,0,0,0,.12-.23.37.37,0,0,0-.4-.32h2a.43.43,0,0,0-.28.09.31.31,0,0,0-.12.23A.37.37,0,0,0,20.92,32.57Z"/><path class="cls-8" d="M22.27,33.24H19.06a.37.37,0,0,1-.4-.33h0a.37.37,0,0,1,.4-.32h3.21a.37.37,0,0,1,.4.32h0A.37.37,0,0,1,22.27,33.24Z"/><path class="cls-10" d="M16.09,37.78A.28.28,0,0,1,16,38a.43.43,0,0,1-.28.1h-3.2a.37.37,0,0,1-.4-.33.27.27,0,0,1,.11-.22.48.48,0,0,1,.29-.1h3.2A.37.37,0,0,1,16.09,37.78Z"/><path class="cls-10" d="M15.08,38.75H13a.48.48,0,0,0,.29-.09.3.3,0,0,0,.11-.23.37.37,0,0,0-.4-.32h2.05a.43.43,0,0,0-.28.09.28.28,0,0,0-.12.23A.37.37,0,0,0,15.08,38.75Z"/><path class="cls-10" d="M16.43,39.42H13.22a.37.37,0,0,1-.4-.33h0a.37.37,0,0,1,.4-.32h3.21a.37.37,0,0,1,.4.32h0A.37.37,0,0,1,16.43,39.42Z"/><path class="cls-10" d="M24.67,31.71a.26.26,0,0,0,.1.19A.41.41,0,0,0,25,32h2.73a.31.31,0,0,0,.34-.27.26.26,0,0,0-.1-.2.38.38,0,0,0-.24-.08H25A.33.33,0,0,0,24.67,31.71Z"/><path class="cls-10" d="M25.54,32.53h1.74a.38.38,0,0,1-.24-.08.26.26,0,0,1-.1-.19.32.32,0,0,1,.34-.28H25.54a.38.38,0,0,1,.24.08.26.26,0,0,1,.1.2A.31.31,0,0,1,25.54,32.53Z"/><path class="cls-10" d="M24.39,33.1h2.73a.31.31,0,0,0,.34-.28h0a.31.31,0,0,0-.34-.27H24.39a.31.31,0,0,0-.34.27h0A.31.31,0,0,0,24.39,33.1Z"/><path class="cls-10" d="M24.68,25.1a.26.26,0,0,1-.12.22.43.43,0,0,1-.28.1h-3.2a.37.37,0,0,1-.4-.32.3.3,0,0,1,.11-.23.48.48,0,0,1,.29-.1h3.2A.37.37,0,0,1,24.68,25.1Z"/><path class="cls-10" d="M23.67,26.07H21.62a.48.48,0,0,0,.29-.1.31.31,0,0,0,.12-.23.38.38,0,0,0-.41-.32h2.05a.49.49,0,0,0-.28.09.28.28,0,0,0-.12.23A.37.37,0,0,0,23.67,26.07Z"/><path class="cls-10" d="M25,26.73H21.81a.37.37,0,0,1-.4-.33h0a.37.37,0,0,1,.4-.32H25a.37.37,0,0,1,.4.32h0A.37.37,0,0,1,25,26.73Z"/><path class="cls-10" d="M12.7,32.08a.29.29,0,0,1-.13.23.58.58,0,0,1-.33.09H8.52c-.26,0-.47-.14-.47-.32a.3.3,0,0,1,.14-.23.56.56,0,0,1,.33-.09h3.72C12.5,31.76,12.7,31.9,12.7,32.08Z"/><path class="cls-10" d="M12.43,31.76H9.18a1,1,0,0,0,.45-.1c.12-.06.19-.14.19-.22s-.29-.33-.64-.33h3.25a1,1,0,0,0-.45.1c-.11.06-.19.14-.19.23S12.08,31.76,12.43,31.76Z"/><path class="cls-10" d="M13.09,31.11H7.65a.37.37,0,0,1-.4-.32h0a.37.37,0,0,1,.4-.33h5.44a.37.37,0,0,1,.4.33h0A.37.37,0,0,1,13.09,31.11Z"/><path class="cls-12" d="M23.34,37a.29.29,0,0,1-.13.23.67.67,0,0,1-.33.09H19.16c-.26,0-.47-.14-.47-.32a.3.3,0,0,1,.14-.23.56.56,0,0,1,.33-.1h3.72C23.14,36.64,23.34,36.79,23.34,37Z"/><path class="cls-12" d="M23.07,36.65H19.82a1,1,0,0,0,.45-.1c.12-.06.19-.14.19-.23s-.29-.32-.64-.32h3.25a1,1,0,0,0-.45.1c-.11,0-.19.13-.19.22S22.72,36.65,23.07,36.65Z"/><path class="cls-12" d="M23.73,36H18.29a.37.37,0,0,1-.4-.33h0a.37.37,0,0,1,.4-.32h5.44a.37.37,0,0,1,.4.32h0A.37.37,0,0,1,23.73,36Z"/><path class="cls-12" d="M21.78,28.12a.31.31,0,0,1-.12.23.43.43,0,0,1-.28.1H18.17a.37.37,0,0,1-.4-.33.26.26,0,0,1,.12-.22.43.43,0,0,1,.28-.1h3.21A.37.37,0,0,1,21.78,28.12Z"/><path class="cls-12" d="M20.76,29.09h-2A.43.43,0,0,0,19,29a.31.31,0,0,0,.12-.23.37.37,0,0,0-.4-.32h2a.43.43,0,0,0-.28.09.31.31,0,0,0-.12.23A.37.37,0,0,0,20.76,29.09Z"/><path class="cls-12" d="M22.11,29.76H18.9a.37.37,0,0,1-.4-.33h0a.37.37,0,0,1,.4-.32h3.21a.37.37,0,0,1,.4.32h0A.37.37,0,0,1,22.11,29.76Z"/><path class="cls-8" d="M27.39,33.27a.28.28,0,0,1-.12.23.43.43,0,0,1-.28.09h-3.2a.37.37,0,0,1-.4-.32A.3.3,0,0,1,23.5,33a.48.48,0,0,1,.29-.09H27A.37.37,0,0,1,27.39,33.27Z"/><path class="cls-8" d="M26.38,34.24H24.33a.48.48,0,0,0,.29-.1.31.31,0,0,0,.12-.23.38.38,0,0,0-.41-.32h2.05a.43.43,0,0,0-.28.1.26.26,0,0,0-.12.22A.37.37,0,0,0,26.38,34.24Z"/><path class="cls-8" d="M28.13,34.58h0a.37.37,0,0,1-.4.32H24.52a.37.37,0,0,1-.4-.32h0a.37.37,0,0,1,.4-.33"/><path class="cls-13" d="M16.77,26.71v3.81a.43.43,0,0,1-.47.38H9.88a.43.43,0,0,1-.47-.38V26.71Z"/><path class="cls-14" d="M16.77,26.71v1.07c0,1.42-1.44,2.58-3.21,2.58h-.94c-1.77,0-3.21-1.16-3.21-2.58V26.71Z"/><path class="cls-13" d="M12.62,29.91A2.51,2.51,0,0,1,10,27.25v-.54h6.23v1.07a2.44,2.44,0,0,1-2.65,2.13Z"/><path class="cls-15" d="M15.56,29.16a1.88,1.88,0,0,0,.65-1.38V26.71H10v.54a2.61,2.61,0,0,0,.72,1.91Z"/><path class="cls-13" d="M16.77,26.71v3.81a.43.43,0,0,1-.47.38H9.88a.43.43,0,0,1-.47-.38V26.71Z"/><path class="cls-14" d="M16.77,26.71v1.07c0,1.42-1.44,2.58-3.21,2.58h-.94c-1.77,0-3.21-1.16-3.21-2.58V26.71Z"/><path class="cls-13" d="M12.62,29.91A2.51,2.51,0,0,1,10,27.25v-.54h6.23v1.07a2.44,2.44,0,0,1-2.65,2.13Z"/><path class="cls-10" d="M15.56,29.16a1.88,1.88,0,0,0,.65-1.38V26.71H10v.54a2.61,2.61,0,0,0,.72,1.91Z"/><path class="cls-13" d="M16.17,28.14a2.2,2.2,0,0,0,0-.36V26.71H10v.54a3.14,3.14,0,0,0,.12.89Z"/><path class="cls-13" d="M13,26.71H9.41v3.81a.43.43,0,0,0,.47.38H13Z"/><path class="cls-16" d="M13,26.71H9.41v1.07c0,1.42,1.44,2.58,3.21,2.58H13Z"/><path class="cls-17" d="M13,26.71H10v.54a2.51,2.51,0,0,0,2.64,2.66H13Z"/><path class="cls-18" d="M13,26.71H10v.54a2.61,2.61,0,0,0,.72,1.91H13Z"/><path class="cls-17" d="M13,26.71H10v.54a3.14,3.14,0,0,0,.12.89H13Z"/><path class="cls-14" d="M16.11,37.27H14.4a.56.56,0,0,1-.61-.49v-.92a.56.56,0,0,1,.61-.49h1.71a.56.56,0,0,1,.61.49v.92A.56.56,0,0,1,16.11,37.27Z"/><path class="cls-19" d="M15.12,35.37H14.4a.56.56,0,0,0-.61.49v.92a.56.56,0,0,0,.61.49h.72Z"/><path class="cls-14" d="M12.33,37.27H10.62a.56.56,0,0,1-.61-.49v-.92a.56.56,0,0,1,.61-.49h1.71a.56.56,0,0,1,.61.49v.92A.56.56,0,0,1,12.33,37.27Z"/><path class="cls-19" d="M11.37,35.37h-.75a.56.56,0,0,0-.61.49v.92a.56.56,0,0,0,.61.49h.75Z"/><polygon class="cls-13" points="13.6 31.41 13.6 35.52 14.17 36.44 16.43 36.44 17 35.52 17 31.41 13.6 31.41"/><polygon class="cls-20" points="15.2 31.41 13.6 31.41 13.6 35.52 14.17 36.44 15.2 36.44 15.2 31.41"/><polygon class="cls-13" points="9.78 31.41 9.78 35.52 10.34 36.44 12.61 36.44 13.18 35.52 13.18 31.41 9.78 31.41"/><polygon class="cls-20" points="11.38 31.41 9.78 31.41 9.78 35.52 10.34 36.44 11.38 36.44 11.38 31.41"/><path class="cls-8" d="M18.9,38h1.91a.19.19,0,0,0,.2-.17v-.05a.18.18,0,0,0-.2-.16H18.9a.18.18,0,0,0-.2.16v.05A.19.19,0,0,0,18.9,38Z"/><rect class="cls-13" x="18.91" y="27.42" width="2.08" height="3.66"/><rect class="cls-13" x="21.36" y="27.42" width="2.08" height="3.66"/><rect class="cls-13" x="23.91" y="27.42" width="2.08" height="3.66"/><rect class="cls-20" x="18.91" y="27.42" width="0.94" height="3.66"/><rect class="cls-20" x="21.36" y="27.42" width="0.94" height="3.66"/><rect class="cls-20" x="23.91" y="27.42" width="0.94" height="3.66"/><polygon class="cls-17" points="22.72 32.34 19.66 34.38 18.45 33.2 21.51 31.16 22.72 32.34"/><path class="cls-13" d="M26.82,36.51l-2.77,1.85a.6.6,0,0,1-.73-.06l-4.11-4a.36.36,0,0,1,.06-.59L22,31.86a.61.61,0,0,1,.73.05l4.12,4A.36.36,0,0,1,26.82,36.51Z"/><path class="cls-11" d="M17.76,38.49h-.5a.19.19,0,0,1-.2-.17v-.43a.18.18,0,0,1,.2-.16h.5a.18.18,0,0,1,.2.16v.43A.19.19,0,0,1,17.76,38.49Z"/><rect class="cls-13" x="16.55" y="37.56" width="0.61" height="1.11"/><polygon class="cls-13" points="17.51 38.29 18.32 38.66 18.32 37.56 17.51 37.92 17.51 38.29"/><polygon class="cls-13" points="17.16 38.66 17.51 38.29 17.51 37.92 17.16 37.56 17.16 38.66"/><path class="cls-13" d="M15.64,37.56v1.1h.91v-1.1Zm.16,1s0,0-.06,0-.05,0-.05,0v-.85s0,0,.05,0,.06,0,.06,0Zm.68,0s0,0-.05,0-.05,0-.05,0v-.85a.05.05,0,0,1,.1,0Z"/><path class="cls-13" d="M18.32,37.56v1.1h.91v-1.1Zm.16,1s0,0-.05,0-.05,0-.05,0v-.85a0,0,0,0,1,.05,0s.05,0,.05,0Zm.68,0s0,0-.05,0-.05,0-.05,0v-.85s0,0,.05,0a0,0,0,0,1,.05,0Z"/><path class="cls-21" d="M16.35,38.52h-.52s0,0,0,0v-.79a0,0,0,0,1,0,0h.52a0,0,0,0,1,0,0v.79S16.37,38.52,16.35,38.52Z"/><path class="cls-21" d="M19,38.52h-.51l0,0v-.79a0,0,0,0,1,0,0H19a0,0,0,0,1,0,0v.79Z"/><path class="cls-11" d="M18.16,30.72H17.7a.18.18,0,0,1-.19-.16v-.39A.18.18,0,0,1,17.7,30h.46a.18.18,0,0,1,.19.16v.39A.18.18,0,0,1,18.16,30.72Z"/><rect class="cls-13" x="17.03" y="29.85" width="0.57" height="1.03"/><polygon class="cls-13" points="17.93 30.54 18.68 30.88 18.68 29.85 17.93 30.19 17.93 30.54"/><polygon class="cls-13" points="17.6 30.88 17.93 30.54 17.93 30.19 17.6 29.85 17.6 30.88"/><path class="cls-13" d="M16.19,29.85v1H17v-1Zm.15.91s0,0-.05,0a0,0,0,0,1-.05,0V30a0,0,0,0,1,.05,0s.05,0,.05,0Zm.63,0a0,0,0,0,1,0,0,0,0,0,0,1-.05,0V30a0,0,0,0,1,.05,0,0,0,0,0,1,0,0Z"/><path class="cls-13" d="M18.69,29.85v1h.83v-1Zm.14.91a.05.05,0,0,1-.1,0V30a.05.05,0,0,1,.1,0Zm.63,0a0,0,0,0,1,0,0,0,0,0,0,1-.05,0V30a0,0,0,0,1,.05,0,0,0,0,0,1,0,0Z"/><path class="cls-21" d="M16.85,30.75h-.48a0,0,0,0,1,0,0V30a0,0,0,0,1,0,0h.48a0,0,0,0,1,0,0v.72A0,0,0,0,1,16.85,30.75Z"/><path class="cls-21" d="M19.34,30.75h-.48a0,0,0,0,1,0,0V30a0,0,0,0,1,0,0h.48s0,0,0,0v.72S19.36,30.75,19.34,30.75Z"/><path class="cls-21" d="M12.6,38.52h3a.12.12,0,0,0,.13-.1v-.63a.12.12,0,0,0-.13-.11h-3a.12.12,0,0,0-.13.11v.63A.12.12,0,0,0,12.6,38.52Z"/><path class="cls-21" d="M19.28,38.52h3c.08,0,.14-.05.14-.1v-.63a.13.13,0,0,0-.14-.11h-3a.12.12,0,0,0-.13.11v.63A.12.12,0,0,0,19.28,38.52Z"/><path class="cls-22" d="M14.06,32.23s-.86.34-.74.92C13.67,32.08,15.46,32.62,14.06,32.23Z"/><rect class="cls-23" x="30.92" y="40.17" width="0.8" height="6.67" transform="translate(-22.21 40.63) rotate(-51.17)"/><polygon class="cls-24" points="18.78 34.84 19.73 35.39 21.07 33.73 20.33 32.91 18.78 34.84"/><path class="cls-25" d="M12,40.44l3.07.74a18.86,18.86,0,0,1,2.27-5.49L14.66,34A21.89,21.89,0,0,0,12,40.44Z"/><path class="cls-23" d="M12.92,40.28l-.37-.09a19.27,19.27,0,0,1,2.31-5.59l.33.2A18.92,18.92,0,0,0,12.92,40.28Z"/><path class="cls-23" d="M13.79,40.65l-.37-.09A19.63,19.63,0,0,1,15.74,35l.32.2A19.14,19.14,0,0,0,13.79,40.65Z"/><path class="cls-23" d="M14.67,41l-.37-.09a19.29,19.29,0,0,1,2.32-5.59l.32.2A18.69,18.69,0,0,0,14.67,41Z"/><path class="cls-26" d="M20.86,31c-.63-.59-4.53-4.35-4.53-4.35L14,27.46,13.49,27l-.71.21L3.45,19.73C3.4,19.71,3,18.84.51,23c-1.35,2.05.38,2,.8,2.24,8.42,3.1,15.29,4.25,6.31,6.8-.24.09-.22,0-.28.12,0,.67,1.22,1.72,1.18,1.75.92-.38,2.44-1,3.34-1.41a25.29,25.29,0,0,0,5.31,3.57l1.27-1.57.35.35C21.68,31.65,21.59,31.82,20.86,31Zm-6.63,2.93c-.81,0-2.28-1.55-.86-1.92C14.18,32,15.65,33.55,14.23,33.92Zm6.5-1.7c-.78.93-2.31-1.12-4.12-2.32-2.68-1.68-.62-2.55.32-1.71C19.84,30.65,21.52,31.37,20.73,32.22Z"/><path class="cls-27" d="M20.86,31c-.63-.59-4.53-4.35-4.53-4.35L14,27.46,13.49,27l-.68.2,7.43,6C21.12,32,21.78,32,20.86,31Zm-.13,1.23c-.78.93-2.31-1.12-4.12-2.32-2.68-1.68-.62-2.55.32-1.71C19.84,30.65,21.52,31.37,20.73,32.22Z"/><path class="cls-26" d="M15.29,28.42c.62-1.54,2.2.29,3.67,1.4s2.86,1.84,1.36,2.65l.31.25c1.21-1.22.51-1.37-.27-2.21-1.25-1.19-4-3.86-4-3.87l-2.26.8Z"/><path class="cls-13" d="M11.15,28.92l1.46-1.81L3.37,19.67s-.8-.48-3.31,4.11c0,0-.23.67.2,1S10.52,28.21,11.15,28.92Z"/><path class="cls-28" d="M12.11,27.73l.5-.62c-10.56-8.36-9-7.77-10-7Z"/><path class="cls-28" d="M14.8,32.69c-3.87-3.06-2.3-2.4-4.83-1.49-3.32,1.22-3.12.59-1.45,2.69.92-.38,2.44-1,3.34-1.41l2.39,1.93.13.07C14.79,34,15.49,33.26,14.8,32.69Zm-.57,1.23c-.81,0-2.28-1.55-.86-1.92C14.18,32,15.65,33.55,14.23,33.92Z"/><path class="cls-24" d="M14.8,32.69l-1.64-1.33L12.1,32.68c.13.08,2.12,1.76,2.28,1.8C14.79,34,15.49,33.26,14.8,32.69Zm-.57,1.23c-.81,0-2.28-1.55-.86-1.92C14.18,32,15.65,33.55,14.23,33.92Z"/><path class="cls-24" d="M14.91,32.77l-1.65-1.32L12.2,32.76c.14.08,2.12,1.76,2.29,1.81C14.9,34.1,15.59,33.34,14.91,32.77ZM14.33,34c-.81,0-2.28-1.54-.86-1.91C14.28,32.11,15.75,33.63,14.33,34Z"/><path class="cls-22" d="M13.06,32.36a.68.68,0,0,1,.94-.1.68.68,0,1,0-.84,1.05A.67.67,0,0,1,13.06,32.36Z"/><path class="cls-29" d="M10.81,32.43c-1.89.92-2.2,1.5-2.74.32h0c-.13-.83.47-.71,1.46-1.08s1.23-.55,1.59,0h0A.56.56,0,0,1,10.81,32.43Z"/><path class="cls-23" d="M25.39,40.77l-2.13-1.71c-4.83-4.1-4.38-2.32-2.13-5.41.2-.31.42-.35.6-.22L27.43,38c.42.3.19.46-.56,1.38S25.82,41,25.39,40.77Z"/><rect class="cls-24" x="23.38" y="33" width="0.42" height="8.08" transform="translate(-20.06 32.19) rotate(-51.17)"/><rect class="cls-24" x="20.84" y="33.96" width="1.27" height="0.17" transform="translate(-18.51 29.43) rotate(-51.17)"/><rect class="cls-24" x="21.24" y="34.27" width="1.27" height="0.17" transform="translate(-18.61 29.86) rotate(-51.17)"/><rect class="cls-24" x="21.63" y="34.59" width="1.27" height="0.17" transform="translate(-18.71 30.28) rotate(-51.17)"/><rect class="cls-24" x="22.03" y="34.91" width="1.27" height="0.17" transform="translate(-18.81 30.71) rotate(-51.17)"/><rect class="cls-24" x="22.42" y="35.23" width="1.27" height="0.17" transform="translate(-18.91 31.13) rotate(-51.17)"/><rect class="cls-24" x="22.82" y="35.54" width="1.27" height="0.17" transform="translate(-19.01 31.56) rotate(-51.17)"/><rect class="cls-24" x="23.21" y="35.86" width="1.27" height="0.17" transform="translate(-19.11 31.99) rotate(-51.17)"/><rect class="cls-24" x="23.61" y="36.18" width="1.27" height="0.17" transform="translate(-19.21 32.41) rotate(-51.17)"/><rect class="cls-24" x="24" y="36.5" width="1.27" height="0.17" transform="translate(-19.31 32.84) rotate(-51.17)"/><rect class="cls-24" x="24.4" y="36.82" width="1.27" height="0.17" transform="translate(-19.41 33.27) rotate(-51.17)"/><rect class="cls-24" x="24.79" y="37.13" width="1.27" height="0.17" transform="translate(-19.51 33.69) rotate(-51.17)"/><rect class="cls-24" x="25.19" y="37.45" width="1.27" height="0.17" transform="translate(-19.61 34.12) rotate(-51.17)"/><rect class="cls-24" x="25.58" y="37.77" width="1.27" height="0.17" transform="translate(-19.71 34.54) rotate(-51.17)"/><rect class="cls-24" x="25.98" y="38.09" width="1.27" height="0.17" transform="translate(-19.81 34.97) rotate(-51.17)"/><rect class="cls-24" x="26.37" y="38.4" width="1.27" height="0.17" transform="translate(-19.91 35.4) rotate(-51.17)"/><rect class="cls-24" x="19.49" y="35.63" width="1.27" height="0.17" transform="translate(-20.32 29) rotate(-51.17)"/><rect class="cls-24" x="19.89" y="35.95" width="1.27" height="0.17" transform="translate(-20.42 29.43) rotate(-51.17)"/><rect class="cls-24" x="20.28" y="36.27" width="1.27" height="0.17" transform="translate(-20.52 29.86) rotate(-51.17)"/><rect class="cls-24" x="20.68" y="36.59" width="1.27" height="0.17" transform="matrix(0.63, -0.78, 0.78, 0.63, -20.62, 30.28)"/><rect class="cls-24" x="21.07" y="36.9" width="1.27" height="0.17" transform="translate(-20.72 30.71) rotate(-51.17)"/><rect class="cls-24" x="21.47" y="37.22" width="1.27" height="0.17" transform="translate(-20.82 31.13) rotate(-51.17)"/><rect class="cls-24" x="21.86" y="37.54" width="1.27" height="0.17" transform="translate(-20.92 31.56) rotate(-51.17)"/><rect class="cls-24" x="22.26" y="37.86" width="1.27" height="0.17" transform="translate(-21.02 31.99) rotate(-51.17)"/><rect class="cls-24" x="22.65" y="38.18" width="1.27" height="0.17" transform="translate(-21.12 32.41) rotate(-51.17)"/><rect class="cls-24" x="23.05" y="38.49" width="1.27" height="0.17" transform="translate(-21.22 32.84) rotate(-51.17)"/><rect class="cls-24" x="23.44" y="38.81" width="1.27" height="0.17" transform="translate(-21.32 33.26) rotate(-51.17)"/><rect class="cls-24" x="23.84" y="39.13" width="1.27" height="0.17" transform="matrix(0.63, -0.78, 0.78, 0.63, -21.42, 33.69)"/><rect class="cls-24" x="24.23" y="39.45" width="1.27" height="0.17" transform="translate(-21.52 34.12) rotate(-51.17)"/><rect class="cls-24" x="24.63" y="39.77" width="1.27" height="0.17" transform="translate(-21.62 34.54) rotate(-51.17)"/><rect class="cls-24" x="25.02" y="40.08" width="1.27" height="0.17" transform="translate(-21.72 34.97) rotate(-51.17)"/><rect class="cls-24" x="27.06" y="39.14" width="1.35" height="2.7" transform="translate(-21.2 36.71) rotate(-51.17)"/><path class="cls-27" d="M16.24,27.37c-.38.35-.64-.53,0-.33A.28.28,0,0,1,16.24,27.37Z"/><path class="cls-27" d="M17.82,33.89l-5.5-4.43c-.62-.29-.18-1.13.62-1.58.3-.2,4.59,3.65,5.8,4.5C19.68,32.83,18.22,34.34,17.82,33.89Z"/><path class="cls-30" d="M17.78,33.12c-.43-.49-3.89-2.72-3.33-3.09.39-.44,1.24.69,2.36,1.48s1.7,1.11,1.43,1.56A.35.35,0,0,1,17.78,33.12Z"/><path class="cls-26" d="M16.5,31.26c-2.52-2.33-2.89-1.16-.41.51Z"/><path class="cls-28" d="M3.79,22.57c-.2-.27-1.47-.87-1.13-1.32s2,1,1.58,1.27A.36.36,0,0,1,3.79,22.57Z"/><path class="cls-28" d="M3.84,24.13c-.21-.27-1.47-.87-1.14-1.32s2,1,1.58,1.27A.34.34,0,0,1,3.84,24.13Z"/><path class="cls-28" d="M2.27,24.47C2.06,24.2.8,23.6,1.13,23.15s2,1,1.58,1.27A.34.34,0,0,1,2.27,24.47Z"/></g></g></svg>