<svg xmlns="http://www.w3.org/2000/svg" viewBox="0 0 27.86 48.28"><defs><style>.cls-1{fill:#aebd38;}.cls-1,.cls-2{stroke:#aebd38;}.cls-1,.cls-2,.cls-5,.cls-7{stroke-miterlimit:10;}.cls-2,.cls-5,.cls-7{fill:#fff;}.cls-3{fill:#606060;}.cls-4{fill:lime;}.cls-5{stroke:#333;}.cls-6{fill:#333;}.cls-7{stroke:#4d4d4d;}</style></defs><title>Asset 2</title><g id="Layer_2" data-name="Layer 2"><g id="Layer_1-2" data-name="Layer 1"><path class="cls-1" d="M13.87,43.5S.5,22.76.5,13.87a13.37,13.37,0,0,1,26.74,0C27.24,22.76,13.87,43.5,13.87,43.5Z"/><circle class="cls-2" cx="13.87" cy="13.74" r="6.67"/><ellipse class="cls-3" cx="13.87" cy="46.88" rx="8" ry="1.4"/><path class="cls-4" d="M19.92,22.93l3.62-3.63a.54.54,0,0,0,.09-.71l-.11-.11a.48.48,0,0,0-.68.07l-3.62,3.64a.52.52,0,0,0-.09.7l.1.11A.5.5,0,0,0,19.92,22.93Z"/><path class="cls-4" d="M18.69,26.11l-.93.94a.49.49,0,0,1-.69.06l-.79-.84a.52.52,0,0,1,.08-.71l.94-.94a.48.48,0,0,1,.69-.07l.79.85A.52.52,0,0,1,18.69,26.11Z"/><polygon class="cls-5" points="17.87 27.6 16.71 28.76 14.68 26.59 15.84 25.42 17.87 27.6"/><polygon class="cls-6" points="17.87 26.2 20.09 25.37 18.06 23.2 17.19 25.47 17.87 26.2"/><polygon class="cls-4" points="17.87 27.6 17.87 26.2 17.19 25.47 15.84 25.42 17.87 27.6"/><path class="cls-4" d="M13,28.31l2,2.17,1.71-1.72-2-2.17Zm2.09,1.63a.14.14,0,0,1-.19.19L13.3,28.46a.13.13,0,0,1,0-.17.12.12,0,0,1,.17,0Zm1.29-1.33a.14.14,0,0,1,0,.18c-.06.05-.13.06-.17,0l-1.57-1.67a.12.12,0,0,1,0-.17.13.13,0,0,1,.17,0Z"/><path class="cls-4" d="M18.06,23.2l2,2.17,1.72-1.72-2-2.17Zm2.09,1.63a.14.14,0,0,1,0,.17A.13.13,0,0,1,20,25l-1.56-1.67a.13.13,0,0,1,0-.17c.06-.05.13-.06.17,0Zm1.28-1.33a.14.14,0,0,1,0,.18.12.12,0,0,1-.17,0L19.68,22a.11.11,0,0,1,0-.17.13.13,0,0,1,.17,0Z"/><path class="cls-7" d="M16.08,28.87l-1,1a.08.08,0,0,1-.12,0l-1.44-1.54s0-.08,0-.12l1-1a.07.07,0,0,1,.11,0l1.44,1.54A.08.08,0,0,1,16.08,28.87Z"/><path class="cls-5" d="M21.18,23.75l-1,1a.07.07,0,0,1-.11,0L18.64,23.2a.1.1,0,0,1,0-.12l1-1a.08.08,0,0,1,.12,0l1.44,1.54S21.22,23.71,21.18,23.75Z"/><path class="cls-4" d="M8.89,36.76l5.7-6.4a.34.34,0,0,0,.05-.46L13.5,28.67a.32.32,0,0,0-.46,0l-5.14,6h0l1,2.09Z"/><path class="cls-4" d="M21.66,23.27l5.62-5.63a5.07,5.07,0,0,0,.57-1.77v-1A9.19,9.19,0,0,0,25.73,16l-5.62,5.63a.35.35,0,0,0-.05.47l1.14,1.23A.34.34,0,0,0,21.66,23.27Z"/></g></g></svg>