<svg id="Layer_1" data-name="Layer 1" xmlns="http://www.w3.org/2000/svg" viewBox="0 0 575.77 448"><defs><style>.cls-1{fill:#aebd38;}</style></defs><title>home-solid</title><path class="cls-1" d="M488,313V456a24.33,24.33,0,0,1-24,24H348a11.55,11.55,0,0,1-12-12V356a11.55,11.55,0,0,0-12-12H252a11.55,11.55,0,0,0-12,12V468a11.55,11.55,0,0,1-12,12H112a24.33,24.33,0,0,1-24-24V313c0-4,2-7,4-10L280,149a12.17,12.17,0,0,1,16,0L484,303C486,306,488,309,488,313Zm84-61-84-69V44a12.16,12.16,0,0,0-12-12H420a12.16,12.16,0,0,0-12,12v73L319,43a48,48,0,0,0-61,0L4,252c-5,4-5,12-1,17l25,31a12.44,12.44,0,0,0,17,1L280,108a12.17,12.17,0,0,1,16,0L531,301a11.51,11.51,0,0,0,17-1l25-31C577,263,577,256,572,252Z" transform="translate(-0.11 -32)"/></svg>