<svg id="Layer_1" data-name="Layer 1" xmlns="http://www.w3.org/2000/svg" viewBox="0 0 88.26 51.62"><defs><style>.cls-1{fill:#aebd38;}.cls-1,.cls-2,.cls-31{stroke:#aebd38;}.cls-1,.cls-2,.cls-31,.cls-33,.cls-35{stroke-miterlimit:10;}.cls-2,.cls-34{fill:#333;}.cls-3{fill:#606060;}.cls-4{fill:#7f7853;}.cls-5{fill:#49452a;}.cls-6{fill:#3f3b23;}.cls-7{fill:#575436;}.cls-8{fill:#7a734f;}.cls-9{fill:#827a59;}.cls-10{fill:#66643f;}.cls-11{fill:#8f885f;}.cls-12{fill:#867f5a;}.cls-13{fill:#414433;}.cls-14{fill:#333522;}.cls-15{fill:#2b2b2b;}.cls-16{fill:#353626;}.cls-17{fill:#3b3e2e;}.cls-18{fill:#75744e;}.cls-19{fill:#393c2d;}.cls-20{fill:#464938;}.cls-21,.cls-31,.cls-33,.cls-35{fill:#fff;}.cls-22{fill:#5e5e5e;}.cls-23{fill:#848484;}.cls-24{fill:#212121;}.cls-25{fill:#737373;}.cls-26{fill:#3d3d3d;}.cls-27{fill:#585858;}.cls-28{fill:#343627;}.cls-29{fill:#46483a;}.cls-30{fill:#424242;}.cls-32{fill:lime;}.cls-33{stroke:#333;}.cls-35{stroke:#4d4d4d;}</style></defs><title>logo-new</title><path class="cls-1" d="M509.25,1250.84s-13.38-20.74-13.38-29.63a13.38,13.38,0,0,1,26.75,0C522.62,1230.1,509.25,1250.84,509.25,1250.84Z" transform="translate(-439.26 -1204)"/><circle class="cls-2" cx="69.98" cy="17.08" r="6.67"/><ellipse class="cls-3" cx="69.98" cy="50.22" rx="8" ry="1.4"/><path class="cls-4" d="M497,1216c-1.64.26-1.74,2.75-1.69,3.46H497l.84-2.77Z" transform="translate(-439.26 -1204)"/><path class="cls-4" d="M522,1216c1.64.26,1.74,2.75,1.69,3.46H522l-.84-2.77Z" transform="translate(-439.26 -1204)"/><path class="cls-5" d="M524.47,1220.34c-.55-1.74-5-3-5.46-3.56-4.76.23-14.3.23-19,0-1.59,1-4.13,1.61-5.38,3.26-.68,4.3-1.32,6.34,1.46,6.27,3.82-.76,6.22-2.77,11.07-2.61h0c-.16,0,4.78,0,4.73,0h0C520.24,1223.33,526.78,1231.7,524.47,1220.34Z" transform="translate(-439.26 -1204)"/><path class="cls-5" d="M509.21,1223.68V1217l-9.23-.23c-1.59,1-4.13,1.61-5.38,3.26-.68,4.3-1.32,6.34,1.46,6.27,3.82-.76,6.22-2.77,11.07-2.61h0Z" transform="translate(-439.26 -1204)"/><path class="cls-6" d="M524.61,1223.62c-.94,3.06-9.46-2.52-13-1.6h0c.16,0-4.78,0-4.73,0h0c-6.42-.26-10.39,4-12.81,2.1-.75,5.41,9.32-1.47,13.09-.42h0c-.16,0,4.78,0,4.73,0h0c6.23-.49,14,6.07,13-.08Z" transform="translate(-439.26 -1204)"/><path class="cls-7" d="M525,1224.53c0,.66-.11,1.61-1.31,1.75C523.53,1220,522,1220,522,1220c-18.08-.89-24.18.69-25.38.69s-1.27,5.56-1.27,5.56h0c-2.3-.12-.9-4.55-.63-6.35,1.36-1.56,3.75-2.1,5.3-3.11,4.76.22,14.3.22,19,0C525.84,1220.29,524.09,1219,525,1224.53Z" transform="translate(-439.26 -1204)"/><path class="cls-8" d="M522.69,1218.76c-4.07-.79-4.13-.26-8.3-.57h0a80.34,80.34,0,0,0-8.65,0h0l-1.14,0h0c-10.23.11-9.2,1.42-7.91-.62,0-9.74,4.61-13.8,14-13.51,9.72.82,11.32,6.48,11.54,13.51C522.21,1217.57,523.63,1219.2,522.69,1218.76Z" transform="translate(-439.26 -1204)"/><path class="cls-9" d="M509.21,1204c-10.91.52-12.3,6.74-12.54,13.57,0,0-1.25,1.45-.6,1.24,4.18-.87,4.24-.3,8.51-.62h0l1.14,0h0l3.47-.13Z" transform="translate(-439.26 -1204)"/><path class="cls-5" d="M505.1,1218.12c-1.54,0-4.83-1.92-6.62-3v-5.55c3.45-1.32,8.34-1,11.22-.81,3.25-.43,8-.27,10.81.81v5.55c-6.84,3.87-7.06,4.14-10.86-.41h-.31C507.53,1216.91,506.46,1218,505.1,1218.12Z" transform="translate(-439.26 -1204)"/><path class="cls-7" d="M522.07,1215.1h-1.56v-5.51h.23A19.48,19.48,0,0,1,522.07,1215.1Z" transform="translate(-439.26 -1204)"/><path class="cls-6" d="M496.41,1229.12c-1.83,0-1.54-4.16,0-3.95C498.24,1225.13,497.94,1229.32,496.41,1229.12Z" transform="translate(-439.26 -1204)"/><path class="cls-6" d="M522.42,1229.12c-1.83,0-1.53-4.16,0-3.95C524.26,1225.13,524,1229.32,522.42,1229.12Z" transform="translate(-439.26 -1204)"/><path class="cls-10" d="M520.73,1234.21c-.45-.21-1.29-.7-1.29-1.48a7.48,7.48,0,0,1-.28-7.08s5,.55-.16-.65c-.87,3.82-9.19,6-9.19,6s-7.94-2.23-8.81-6c-5.19,1.2-.53.65-.53.65a7.5,7.5,0,0,1-.29,7.08c0,.78-.83,1.27-1.28,1.48h-.27L509,1252h0l12-17.79Z" transform="translate(-439.26 -1204)"/><path class="cls-11" d="M509,1252l-9.95-17.46.06,0c.54-.25,1.44-.81,1.5-1.7a7.7,7.7,0,0,0,.33-7.12c.29-.15-2.59-.06.06-.69,1,3.7,8.36,6.17,8.51,6.29l.3.25.3-.25c.16-.12,7.86-2.59,8.89-6.29,6.14,1.43,1.71.86,2,1-.36.77-3.9,3.51-2,6.81.05.89,1,1.45,1.49,1.7l.07,0L509,1252Z" transform="translate(-439.26 -1204)"/><path class="cls-8" d="M509.72,1231.46l-.21-.17c-.15-.12-7.48-2.59-8.51-6.29-2.65.63-3.71.86-4,1,.36.77,5.52,3.51,3.61,6.81-.06.89-1,1.45-1.5,1.7l-.06,0L509,1252l.72-8.46Z" transform="translate(-439.26 -1204)"/><polygon class="cls-11" points="64.13 20.76 62.77 21.09 62.51 20.38 63.86 20.05 64.13 20.76"/><polygon class="cls-11" points="78.36 21.14 77.07 20.68 77.44 20 78.74 20.46 78.36 21.14"/><path class="cls-10" d="M506,1228.44a.28.28,0,0,1-.12.23.43.43,0,0,1-.28.09h-3.21a.37.37,0,0,1-.4-.32.31.31,0,0,1,.12-.23.43.43,0,0,1,.28-.09h3.21A.37.37,0,0,1,506,1228.44Z" transform="translate(-439.26 -1204)"/><path class="cls-10" d="M505,1229.41H503a.55.55,0,0,0,.29-.09.3.3,0,0,0,.11-.23.37.37,0,0,0-.4-.33H505a.48.48,0,0,0-.29.1.3.3,0,0,0-.11.23A.37.37,0,0,0,505,1229.41Z" transform="translate(-439.26 -1204)"/><path class="cls-10" d="M506.35,1230.07h-3.2a.37.37,0,0,1-.4-.32h0a.37.37,0,0,1,.4-.32h3.2a.37.37,0,0,1,.4.32h0A.37.37,0,0,1,506.35,1230.07Z" transform="translate(-439.26 -1204)"/><path class="cls-12" d="M504.8,1227a.26.26,0,0,1-.09.18.36.36,0,0,1-.23.08h-2.55a.3.3,0,0,1-.32-.26.24.24,0,0,1,.1-.18.33.33,0,0,1,.22-.08h2.55A.3.3,0,0,1,504.8,1227Z" transform="translate(-439.26 -1204)"/><path class="cls-12" d="M504,1227.73h-1.62a.36.36,0,0,0,.22-.07.26.26,0,0,0,.1-.19.29.29,0,0,0-.32-.25H504a.41.41,0,0,0-.22.07.23.23,0,0,0-.09.18A.28.28,0,0,0,504,1227.73Z" transform="translate(-439.26 -1204)"/><path class="cls-12" d="M505.07,1228.26h-2.55a.3.3,0,0,1-.32-.26h0a.3.3,0,0,1,.32-.26h2.55a.29.29,0,0,1,.31.26h0A.29.29,0,0,1,505.07,1228.26Z" transform="translate(-439.26 -1204)"/><path class="cls-12" d="M517,1227.48a.24.24,0,0,1-.09.18.36.36,0,0,1-.23.08H514.1a.3.3,0,0,1-.32-.26.24.24,0,0,1,.1-.18.31.31,0,0,1,.22-.08h2.55A.3.3,0,0,1,517,1227.48Z" transform="translate(-439.26 -1204)"/><path class="cls-12" d="M516.16,1228.25h-1.62a.36.36,0,0,0,.22-.07.24.24,0,0,0,.1-.19.29.29,0,0,0-.32-.25h1.62a.41.41,0,0,0-.22.07.23.23,0,0,0-.09.18A.28.28,0,0,0,516.16,1228.25Z" transform="translate(-439.26 -1204)"/><path class="cls-12" d="M517.24,1228.78h-2.55a.3.3,0,0,1-.32-.26h0a.3.3,0,0,1,.32-.26h2.55a.29.29,0,0,1,.31.26h0A.29.29,0,0,1,517.24,1228.78Z" transform="translate(-439.26 -1204)"/><path class="cls-12" d="M507.42,1237.27a.3.3,0,0,1-.11.23.48.48,0,0,1-.29.09h-3.2a.37.37,0,0,1-.4-.32.28.28,0,0,1,.12-.23.43.43,0,0,1,.28-.09H507A.37.37,0,0,1,507.42,1237.27Z" transform="translate(-439.26 -1204)"/><path class="cls-12" d="M506.41,1238.24h-2a.43.43,0,0,0,.28-.1.31.31,0,0,0,.12-.23.37.37,0,0,0-.4-.32h2a.43.43,0,0,0-.28.1.29.29,0,0,0-.12.22A.37.37,0,0,0,506.41,1238.24Z" transform="translate(-439.26 -1204)"/><path class="cls-12" d="M507.76,1238.9h-3.21a.37.37,0,0,1-.4-.32h0a.37.37,0,0,1,.4-.33h3.21a.37.37,0,0,1,.4.33h0A.37.37,0,0,1,507.76,1238.9Z" transform="translate(-439.26 -1204)"/><path class="cls-8" d="M513.94,1235.6a.31.31,0,0,1-.12.23.43.43,0,0,1-.28.1h-3.21a.37.37,0,0,1-.4-.33.26.26,0,0,1,.12-.22.43.43,0,0,1,.28-.1h3.21A.37.37,0,0,1,513.94,1235.6Z" transform="translate(-439.26 -1204)"/><path class="cls-8" d="M512.92,1236.57h-2a.43.43,0,0,0,.28-.09.31.31,0,0,0,.12-.23.37.37,0,0,0-.4-.32h2a.43.43,0,0,0-.28.09.31.31,0,0,0-.12.23A.37.37,0,0,0,512.92,1236.57Z" transform="translate(-439.26 -1204)"/><path class="cls-8" d="M514.27,1237.24h-3.21a.37.37,0,0,1-.4-.33h0a.37.37,0,0,1,.4-.32h3.21a.37.37,0,0,1,.4.32h0A.37.37,0,0,1,514.27,1237.24Z" transform="translate(-439.26 -1204)"/><path class="cls-10" d="M508.09,1241.78a.28.28,0,0,1-.12.23.43.43,0,0,1-.28.1h-3.2a.37.37,0,0,1-.4-.33.27.27,0,0,1,.11-.22.48.48,0,0,1,.29-.1h3.2A.37.37,0,0,1,508.09,1241.78Z" transform="translate(-439.26 -1204)"/><path class="cls-10" d="M507.08,1242.75H505a.48.48,0,0,0,.29-.09.3.3,0,0,0,.11-.23.37.37,0,0,0-.4-.32h2.05a.43.43,0,0,0-.28.09.28.28,0,0,0-.12.23A.37.37,0,0,0,507.08,1242.75Z" transform="translate(-439.26 -1204)"/><path class="cls-10" d="M508.43,1243.42h-3.21a.37.37,0,0,1-.4-.33h0a.37.37,0,0,1,.4-.32h3.21a.37.37,0,0,1,.4.32h0A.37.37,0,0,1,508.43,1243.42Z" transform="translate(-439.26 -1204)"/><path class="cls-10" d="M516.67,1235.71a.26.26,0,0,0,.1.19.41.41,0,0,0,.25.08h2.73a.31.31,0,0,0,.34-.27.26.26,0,0,0-.1-.2.38.38,0,0,0-.24-.08H517A.33.33,0,0,0,516.67,1235.71Z" transform="translate(-439.26 -1204)"/><path class="cls-10" d="M517.54,1236.53h1.74a.38.38,0,0,1-.24-.08.26.26,0,0,1-.1-.19.32.32,0,0,1,.34-.28h-1.74a.38.38,0,0,1,.24.08.26.26,0,0,1,.1.2A.31.31,0,0,1,517.54,1236.53Z" transform="translate(-439.26 -1204)"/><path class="cls-10" d="M516.39,1237.1h2.73a.31.31,0,0,0,.34-.28h0a.31.31,0,0,0-.34-.27h-2.73a.31.31,0,0,0-.34.27h0A.31.31,0,0,0,516.39,1237.1Z" transform="translate(-439.26 -1204)"/><path class="cls-10" d="M516.68,1229.1a.26.26,0,0,1-.12.22.43.43,0,0,1-.28.1h-3.2a.37.37,0,0,1-.4-.32.3.3,0,0,1,.11-.23.48.48,0,0,1,.29-.1h3.2A.37.37,0,0,1,516.68,1229.1Z" transform="translate(-439.26 -1204)"/><path class="cls-10" d="M515.67,1230.07h-2a.48.48,0,0,0,.29-.1.31.31,0,0,0,.12-.23.38.38,0,0,0-.41-.32h2a.49.49,0,0,0-.28.09.28.28,0,0,0-.12.23A.37.37,0,0,0,515.67,1230.07Z" transform="translate(-439.26 -1204)"/><path class="cls-10" d="M517,1230.73h-3.21a.37.37,0,0,1-.4-.33h0a.37.37,0,0,1,.4-.32H517a.37.37,0,0,1,.4.32h0A.37.37,0,0,1,517,1230.73Z" transform="translate(-439.26 -1204)"/><path class="cls-10" d="M504.7,1236.08a.29.29,0,0,1-.13.23.58.58,0,0,1-.33.09h-3.72c-.26,0-.47-.14-.47-.32a.3.3,0,0,1,.14-.23.56.56,0,0,1,.33-.09h3.72C504.5,1235.76,504.7,1235.9,504.7,1236.08Z" transform="translate(-439.26 -1204)"/><path class="cls-10" d="M504.43,1235.76h-3.25a1,1,0,0,0,.45-.1c.12-.06.19-.14.19-.22s-.29-.33-.64-.33h3.25a1,1,0,0,0-.45.1c-.11.06-.19.14-.19.23S504.08,1235.76,504.43,1235.76Z" transform="translate(-439.26 -1204)"/><path class="cls-10" d="M505.09,1235.11h-5.44a.37.37,0,0,1-.4-.32h0a.37.37,0,0,1,.4-.33h5.44a.37.37,0,0,1,.4.33h0A.37.37,0,0,1,505.09,1235.11Z" transform="translate(-439.26 -1204)"/><path class="cls-12" d="M515.34,1241a.29.29,0,0,1-.13.23.67.67,0,0,1-.33.09h-3.72c-.26,0-.47-.14-.47-.32a.3.3,0,0,1,.14-.23.56.56,0,0,1,.33-.1h3.72C515.14,1240.64,515.34,1240.79,515.34,1241Z" transform="translate(-439.26 -1204)"/><path class="cls-12" d="M515.07,1240.65h-3.25a1,1,0,0,0,.45-.1c.12-.06.19-.14.19-.23s-.29-.32-.64-.32h3.25a1,1,0,0,0-.45.1c-.11.05-.19.13-.19.22S514.72,1240.65,515.07,1240.65Z" transform="translate(-439.26 -1204)"/><path class="cls-12" d="M515.73,1240h-5.44a.37.37,0,0,1-.4-.33h0a.37.37,0,0,1,.4-.32h5.44a.37.37,0,0,1,.4.32h0A.37.37,0,0,1,515.73,1240Z" transform="translate(-439.26 -1204)"/><path class="cls-12" d="M513.78,1232.12a.31.31,0,0,1-.12.23.43.43,0,0,1-.28.1h-3.21a.37.37,0,0,1-.4-.33.26.26,0,0,1,.12-.22.43.43,0,0,1,.28-.1h3.21A.37.37,0,0,1,513.78,1232.12Z" transform="translate(-439.26 -1204)"/><path class="cls-12" d="M512.76,1233.09h-2a.43.43,0,0,0,.28-.09.31.31,0,0,0,.12-.23.37.37,0,0,0-.4-.32h2a.43.43,0,0,0-.28.09.31.31,0,0,0-.12.23A.37.37,0,0,0,512.76,1233.09Z" transform="translate(-439.26 -1204)"/><path class="cls-12" d="M514.11,1233.76H510.9a.37.37,0,0,1-.4-.33h0a.37.37,0,0,1,.4-.32h3.21a.37.37,0,0,1,.4.32h0A.37.37,0,0,1,514.11,1233.76Z" transform="translate(-439.26 -1204)"/><path class="cls-8" d="M519.39,1237.27a.28.28,0,0,1-.12.23.43.43,0,0,1-.28.09h-3.2a.37.37,0,0,1-.4-.32.3.3,0,0,1,.11-.23.48.48,0,0,1,.29-.09H519A.37.37,0,0,1,519.39,1237.27Z" transform="translate(-439.26 -1204)"/><path class="cls-8" d="M518.38,1238.24h-2a.48.48,0,0,0,.29-.1.31.31,0,0,0,.12-.23.38.38,0,0,0-.41-.32h2a.43.43,0,0,0-.28.1.26.26,0,0,0-.12.22A.37.37,0,0,0,518.38,1238.24Z" transform="translate(-439.26 -1204)"/><path class="cls-8" d="M520.13,1238.58h0a.37.37,0,0,1-.4.32h-3.21a.37.37,0,0,1-.4-.32h0a.37.37,0,0,1,.4-.33" transform="translate(-439.26 -1204)"/><path class="cls-13" d="M508.77,1230.71v3.81a.43.43,0,0,1-.47.38h-6.42a.43.43,0,0,1-.47-.38v-3.81Z" transform="translate(-439.26 -1204)"/><path class="cls-14" d="M508.77,1230.71v1.07c0,1.42-1.44,2.58-3.21,2.58h-.94c-1.77,0-3.21-1.16-3.21-2.58v-1.07Z" transform="translate(-439.26 -1204)"/><path class="cls-13" d="M504.62,1233.91a2.51,2.51,0,0,1-2.64-2.66v-.54h6.23v1.07a2.44,2.44,0,0,1-2.65,2.13Z" transform="translate(-439.26 -1204)"/><path class="cls-15" d="M507.56,1233.16a1.88,1.88,0,0,0,.65-1.38v-1.07H502v.54a2.61,2.61,0,0,0,.72,1.91Z" transform="translate(-439.26 -1204)"/><path class="cls-13" d="M508.77,1230.71v3.81a.43.43,0,0,1-.47.38h-6.42a.43.43,0,0,1-.47-.38v-3.81Z" transform="translate(-439.26 -1204)"/><path class="cls-14" d="M508.77,1230.71v1.07c0,1.42-1.44,2.58-3.21,2.58h-.94c-1.77,0-3.21-1.16-3.21-2.58v-1.07Z" transform="translate(-439.26 -1204)"/><path class="cls-13" d="M504.62,1233.91a2.51,2.51,0,0,1-2.64-2.66v-.54h6.23v1.07a2.44,2.44,0,0,1-2.65,2.13Z" transform="translate(-439.26 -1204)"/><path class="cls-10" d="M507.56,1233.16a1.88,1.88,0,0,0,.65-1.38v-1.07H502v.54a2.61,2.61,0,0,0,.72,1.91Z" transform="translate(-439.26 -1204)"/><path class="cls-13" d="M508.17,1232.14a2.2,2.2,0,0,0,0-.36v-1.07H502v.54a3.14,3.14,0,0,0,.12.89Z" transform="translate(-439.26 -1204)"/><path class="cls-13" d="M505,1230.71h-3.61v3.81a.43.43,0,0,0,.47.38H505Z" transform="translate(-439.26 -1204)"/><path class="cls-16" d="M505,1230.71h-3.61v1.07c0,1.42,1.44,2.58,3.21,2.58h.4Z" transform="translate(-439.26 -1204)"/><path class="cls-17" d="M505,1230.71h-3v.54a2.51,2.51,0,0,0,2.64,2.66h.4Z" transform="translate(-439.26 -1204)"/><path class="cls-18" d="M505,1230.71h-3v.54a2.61,2.61,0,0,0,.72,1.91H505Z" transform="translate(-439.26 -1204)"/><path class="cls-17" d="M505,1230.71h-3v.54a3.14,3.14,0,0,0,.12.89H505Z" transform="translate(-439.26 -1204)"/><path class="cls-14" d="M508.11,1241.27H506.4a.56.56,0,0,1-.61-.49v-.92a.56.56,0,0,1,.61-.49h1.71a.56.56,0,0,1,.61.49v.92A.56.56,0,0,1,508.11,1241.27Z" transform="translate(-439.26 -1204)"/><path class="cls-19" d="M507.12,1239.37h-.72a.56.56,0,0,0-.61.49v.92a.56.56,0,0,0,.61.49h.72Z" transform="translate(-439.26 -1204)"/><path class="cls-14" d="M504.33,1241.27h-1.71a.56.56,0,0,1-.61-.49v-.92a.56.56,0,0,1,.61-.49h1.71a.56.56,0,0,1,.61.49v.92A.56.56,0,0,1,504.33,1241.27Z" transform="translate(-439.26 -1204)"/><path class="cls-19" d="M503.37,1239.37h-.75a.56.56,0,0,0-.61.49v.92a.56.56,0,0,0,.61.49h.75Z" transform="translate(-439.26 -1204)"/><polygon class="cls-13" points="66.34 31.41 66.34 35.52 66.9 36.44 69.17 36.44 69.74 35.52 69.74 31.41 66.34 31.41"/><polygon class="cls-20" points="67.94 31.41 66.34 31.41 66.34 35.52 66.9 36.44 67.94 36.44 67.94 31.41"/><polygon class="cls-13" points="62.51 31.41 62.51 35.52 63.08 36.44 65.35 36.44 65.91 35.52 65.91 31.41 62.51 31.41"/><polygon class="cls-20" points="64.12 31.41 62.51 31.41 62.51 35.52 63.08 36.44 64.12 36.44 64.12 31.41"/><path class="cls-8" d="M510.9,1242h1.91a.19.19,0,0,0,.2-.17v0a.18.18,0,0,0-.2-.16H510.9a.18.18,0,0,0-.2.16v0A.19.19,0,0,0,510.9,1242Z" transform="translate(-439.26 -1204)"/><rect class="cls-13" x="71.65" y="27.42" width="2.08" height="3.66"/><rect class="cls-13" x="74.1" y="27.42" width="2.08" height="3.66"/><rect class="cls-13" x="76.65" y="27.42" width="2.08" height="3.66"/><rect class="cls-20" x="71.65" y="27.42" width="0.94" height="3.66"/><rect class="cls-20" x="74.1" y="27.42" width="0.94" height="3.66"/><rect class="cls-20" x="76.65" y="27.42" width="0.94" height="3.66"/><polygon class="cls-17" points="75.46 32.34 72.4 34.38 71.19 33.2 74.25 31.16 75.46 32.34"/><path class="cls-13" d="M518.82,1240.51l-2.77,1.85a.6.6,0,0,1-.73-.06l-4.11-4a.36.36,0,0,1,.06-.59l2.77-1.84a.61.61,0,0,1,.73.05l4.12,4A.36.36,0,0,1,518.82,1240.51Z" transform="translate(-439.26 -1204)"/><path class="cls-11" d="M509.76,1242.49h-.5a.19.19,0,0,1-.2-.17v-.43a.18.18,0,0,1,.2-.16h.5a.18.18,0,0,1,.2.16v.43A.19.19,0,0,1,509.76,1242.49Z" transform="translate(-439.26 -1204)"/><rect class="cls-13" x="69.28" y="37.56" width="0.61" height="1.11"/><polygon class="cls-13" points="70.25 38.29 71.06 38.66 71.06 37.56 70.25 37.92 70.25 38.29"/><polygon class="cls-13" points="69.89 38.66 70.25 38.29 70.25 37.92 69.89 37.56 69.89 38.66"/><path class="cls-13" d="M507.64,1241.56v1.1h.91v-1.1Zm.16,1s0,0-.06,0-.05,0-.05,0v-.85s0,0,.05,0,.06,0,.06,0Zm.68,0s0,0-.05,0-.05,0-.05,0v-.85a.05.05,0,0,1,.1,0Z" transform="translate(-439.26 -1204)"/><path class="cls-13" d="M510.32,1241.56v1.1h.91v-1.1Zm.16,1s0,0-.05,0-.05,0-.05,0v-.85a0,0,0,0,1,.05,0s.05,0,.05,0Zm.68,0s0,0-.05,0-.05,0-.05,0v-.85s0,0,.05,0a0,0,0,0,1,.05,0Z" transform="translate(-439.26 -1204)"/><path class="cls-21" d="M508.35,1242.52h-.52s0,0,0,0v-.79a0,0,0,0,1,0,0h.52a0,0,0,0,1,0,0v.79S508.37,1242.52,508.35,1242.52Z" transform="translate(-439.26 -1204)"/><path class="cls-21" d="M511,1242.52h-.51l0,0v-.79a0,0,0,0,1,0,0H511a0,0,0,0,1,0,0v.79Z" transform="translate(-439.26 -1204)"/><path class="cls-11" d="M510.16,1234.72h-.46a.18.18,0,0,1-.19-.16v-.39a.18.18,0,0,1,.19-.16h.46a.18.18,0,0,1,.19.16v.39A.18.18,0,0,1,510.16,1234.72Z" transform="translate(-439.26 -1204)"/><rect class="cls-13" x="69.77" y="29.85" width="0.57" height="1.03"/><polygon class="cls-13" points="70.67 30.54 71.42 30.88 71.42 29.85 70.67 30.19 70.67 30.54"/><polygon class="cls-13" points="70.34 30.88 70.67 30.54 70.67 30.19 70.34 29.85 70.34 30.88"/><path class="cls-13" d="M508.19,1233.85v1H509v-1Zm.15.91s0,0,0,0a0,0,0,0,1-.05,0V1234a0,0,0,0,1,.05,0s0,0,0,0Zm.63,0a0,0,0,0,1,0,0,0,0,0,0,1-.05,0V1234a0,0,0,0,1,.05,0,0,0,0,0,1,0,0Z" transform="translate(-439.26 -1204)"/><path class="cls-13" d="M510.69,1233.85v1h.83v-1Zm.14.91a.05.05,0,0,1-.1,0V1234a.05.05,0,0,1,.1,0Zm.63,0a0,0,0,0,1,0,0,0,0,0,0,1-.05,0V1234a0,0,0,0,1,.05,0,0,0,0,0,1,0,0Z" transform="translate(-439.26 -1204)"/><path class="cls-21" d="M508.85,1234.75h-.48a0,0,0,0,1,0,0V1234a0,0,0,0,1,0,0h.48a0,0,0,0,1,0,0v.72A0,0,0,0,1,508.85,1234.75Z" transform="translate(-439.26 -1204)"/><path class="cls-21" d="M511.34,1234.75h-.48a0,0,0,0,1,0,0V1234a0,0,0,0,1,0,0h.48s0,0,0,0v.72S511.36,1234.75,511.34,1234.75Z" transform="translate(-439.26 -1204)"/><path class="cls-21" d="M504.6,1242.52h3a.12.12,0,0,0,.13-.1v-.63a.12.12,0,0,0-.13-.11h-3a.12.12,0,0,0-.13.11v.63A.12.12,0,0,0,504.6,1242.52Z" transform="translate(-439.26 -1204)"/><path class="cls-21" d="M511.28,1242.52h3c.08,0,.14,0,.14-.1v-.63a.13.13,0,0,0-.14-.11h-3a.12.12,0,0,0-.13.11v.63A.12.12,0,0,0,511.28,1242.52Z" transform="translate(-439.26 -1204)"/><rect class="cls-22" x="526.59" y="1250.14" width="0.8" height="0.64" transform="translate(-1216.83 -327.04) rotate(-51.17)"/><rect class="cls-23" x="526.34" y="1249.59" width="0.8" height="1.35" transform="translate(-1216.77 -327.31) rotate(-51.17)"/><path class="cls-24" d="M506.06,1236.23s-.86.34-.74.92C505.67,1236.08,507.46,1236.62,506.06,1236.23Z" transform="translate(-439.26 -1204)"/><rect class="cls-23" x="522.92" y="1244.17" width="0.8" height="6.67" transform="translate(-1215.9 -331) rotate(-51.17)"/><polygon class="cls-22" points="71.52 34.84 72.47 35.39 73.81 33.73 73.07 32.91 71.52 34.84"/><path class="cls-25" d="M504,1244.44l3.07.74a18.86,18.86,0,0,1,2.27-5.49l-2.69-1.65A21.89,21.89,0,0,0,504,1244.44Z" transform="translate(-439.26 -1204)"/><path class="cls-23" d="M504.92,1244.28l-.37-.09a19.27,19.27,0,0,1,2.31-5.59l.33.2A18.92,18.92,0,0,0,504.92,1244.28Z" transform="translate(-439.26 -1204)"/><path class="cls-23" d="M505.79,1244.65l-.37-.09a19.63,19.63,0,0,1,2.32-5.6l.32.2A19.14,19.14,0,0,0,505.79,1244.65Z" transform="translate(-439.26 -1204)"/><path class="cls-23" d="M506.67,1245l-.37-.09a19.29,19.29,0,0,1,2.32-5.59l.32.2A18.69,18.69,0,0,0,506.67,1245Z" transform="translate(-439.26 -1204)"/><path class="cls-26" d="M512.86,1235c-.63-.59-4.53-4.35-4.53-4.35l-2.31.82-.53-.43-.71.21-9.33-7.51c-.05,0-.46-.89-2.94,3.25-1.35,2,.38,2,.8,2.24,8.42,3.1,15.29,4.25,6.31,6.8-.24.09-.22,0-.28.12,0,.67,1.22,1.72,1.18,1.75.92-.38,2.44-1,3.34-1.41a25.29,25.29,0,0,0,5.31,3.57l1.27-1.57.35.35C513.68,1235.65,513.59,1235.82,512.86,1235Zm-6.63,2.93c-.81,0-2.28-1.55-.86-1.92C506.18,1236,507.65,1237.55,506.23,1237.92Zm6.5-1.7c-.78.93-2.31-1.12-4.12-2.32-2.68-1.68-.62-2.55.32-1.71C511.84,1234.65,513.52,1235.37,512.73,1236.22Z" transform="translate(-439.26 -1204)"/><path class="cls-27" d="M512.86,1235c-.63-.59-4.53-4.35-4.53-4.35l-2.31.82-.53-.43-.68.2,7.43,6C513.12,1236,513.78,1236,512.86,1235Zm-.13,1.23c-.78.93-2.31-1.12-4.12-2.32-2.68-1.68-.62-2.55.32-1.71C511.84,1234.65,513.52,1235.37,512.73,1236.22Z" transform="translate(-439.26 -1204)"/><path class="cls-26" d="M507.29,1232.42c.62-1.54,2.2.29,3.67,1.4s2.86,1.84,1.36,2.65l.31.25c1.21-1.22.51-1.37-.27-2.21-1.25-1.19-4-3.86-4-3.87l-2.26.8Z" transform="translate(-439.26 -1204)"/><path class="cls-13" d="M503.15,1232.92l1.46-1.81-9.24-7.44s-.8-.48-3.31,4.11c0,0-.23.67.2,1S502.52,1232.21,503.15,1232.92Z" transform="translate(-439.26 -1204)"/><path class="cls-28" d="M504.11,1231.73l.5-.62c-10.56-8.36-9-7.77-10-7Z" transform="translate(-439.26 -1204)"/><path class="cls-28" d="M506.8,1236.69c-3.87-3.06-2.3-2.4-4.83-1.49-3.32,1.22-3.12.59-1.45,2.69.92-.38,2.44-1,3.34-1.41l2.39,1.93.13.07C506.79,1238,507.49,1237.26,506.8,1236.69Zm-.57,1.23c-.81,0-2.28-1.55-.86-1.92C506.18,1236,507.65,1237.55,506.23,1237.92Z" transform="translate(-439.26 -1204)"/><path class="cls-22" d="M506.8,1236.69l-1.64-1.33-1.06,1.32c.13.08,2.12,1.76,2.28,1.8C506.79,1238,507.49,1237.26,506.8,1236.69Zm-.57,1.23c-.81,0-2.28-1.55-.86-1.92C506.18,1236,507.65,1237.55,506.23,1237.92Z" transform="translate(-439.26 -1204)"/><path class="cls-22" d="M506.91,1236.77l-1.65-1.32-1.06,1.31c.14.08,2.12,1.76,2.29,1.81C506.9,1238.1,507.59,1237.34,506.91,1236.77Zm-.58,1.23c-.81,0-2.28-1.54-.86-1.91C506.28,1236.11,507.75,1237.63,506.33,1238Z" transform="translate(-439.26 -1204)"/><path class="cls-24" d="M505.06,1236.36a.68.68,0,0,1,.94-.1.68.68,0,1,0-.84,1A.67.67,0,0,1,505.06,1236.36Z" transform="translate(-439.26 -1204)"/><path class="cls-29" d="M502.81,1236.43c-1.89.92-2.2,1.5-2.74.32h0c-.13-.83.47-.71,1.46-1.08s1.23-.55,1.59,0h0A.56.56,0,0,1,502.81,1236.43Z" transform="translate(-439.26 -1204)"/><path class="cls-23" d="M517.39,1244.77l-2.13-1.71c-4.83-4.1-4.38-2.32-2.13-5.41.2-.31.42-.35.6-.22l5.7,4.59c.42.3.19.46-.56,1.38S517.82,1245,517.39,1244.77Z" transform="translate(-439.26 -1204)"/><rect class="cls-22" x="515.38" y="1237" width="0.42" height="8.08" transform="translate(-1213.74 -339.44) rotate(-51.17)"/><rect class="cls-22" x="512.84" y="1237.96" width="1.27" height="0.17" transform="translate(-1212.19 -342.2) rotate(-51.17)"/><rect class="cls-22" x="513.24" y="1238.27" width="1.27" height="0.17" transform="translate(-1212.29 -341.77) rotate(-51.17)"/><rect class="cls-22" x="513.63" y="1238.59" width="1.27" height="0.17" transform="translate(-1212.39 -341.35) rotate(-51.17)"/><rect class="cls-22" x="514.03" y="1238.91" width="1.27" height="0.17" transform="translate(-1212.5 -340.92) rotate(-51.17)"/><rect class="cls-22" x="514.42" y="1239.23" width="1.27" height="0.17" transform="translate(-1212.6 -340.49) rotate(-51.17)"/><rect class="cls-22" x="514.82" y="1239.54" width="1.27" height="0.17" transform="translate(-1212.7 -340.07) rotate(-51.17)"/><rect class="cls-22" x="515.21" y="1239.86" width="1.27" height="0.17" transform="translate(-1212.8 -339.64) rotate(-51.17)"/><rect class="cls-22" x="515.61" y="1240.18" width="1.27" height="0.17" transform="translate(-1212.9 -339.22) rotate(-51.17)"/><rect class="cls-22" x="516" y="1240.5" width="1.27" height="0.17" transform="translate(-1213 -338.79) rotate(-51.17)"/><rect class="cls-22" x="516.4" y="1240.82" width="1.27" height="0.17" transform="translate(-1213.1 -338.36) rotate(-51.17)"/><rect class="cls-22" x="516.79" y="1241.13" width="1.27" height="0.17" transform="translate(-1213.2 -337.94) rotate(-51.17)"/><rect class="cls-22" x="517.19" y="1241.45" width="1.27" height="0.17" transform="translate(-1213.3 -337.51) rotate(-51.17)"/><rect class="cls-22" x="517.58" y="1241.77" width="1.27" height="0.17" transform="translate(-1213.4 -337.08) rotate(-51.17)"/><rect class="cls-22" x="517.98" y="1242.09" width="1.27" height="0.17" transform="translate(-1213.5 -336.66) rotate(-51.17)"/><rect class="cls-22" x="518.37" y="1242.4" width="1.27" height="0.17" transform="translate(-1213.6 -336.23) rotate(-51.17)"/><rect class="cls-22" x="511.49" y="1239.63" width="1.27" height="0.17" transform="translate(-1214.01 -342.62) rotate(-51.17)"/><rect class="cls-22" x="511.89" y="1239.95" width="1.27" height="0.17" transform="translate(-1214.11 -342.2) rotate(-51.17)"/><rect class="cls-22" x="512.28" y="1240.27" width="1.27" height="0.17" transform="translate(-1214.21 -341.77) rotate(-51.17)"/><rect class="cls-22" x="512.68" y="1240.59" width="1.27" height="0.17" transform="matrix(0.63, -0.78, 0.78, 0.63, -1214.31, -341.35)"/><rect class="cls-22" x="513.07" y="1240.9" width="1.27" height="0.17" transform="translate(-1214.41 -340.92) rotate(-51.17)"/><rect class="cls-22" x="513.47" y="1241.22" width="1.27" height="0.17" transform="translate(-1214.51 -340.49) rotate(-51.17)"/><rect class="cls-22" x="513.86" y="1241.54" width="1.27" height="0.17" transform="translate(-1214.61 -340.07) rotate(-51.17)"/><rect class="cls-22" x="514.26" y="1241.86" width="1.27" height="0.17" transform="translate(-1214.71 -339.64) rotate(-51.17)"/><rect class="cls-22" x="514.65" y="1242.18" width="1.27" height="0.17" transform="translate(-1214.81 -339.22) rotate(-51.17)"/><rect class="cls-22" x="515.05" y="1242.49" width="1.27" height="0.17" transform="translate(-1214.91 -338.79) rotate(-51.17)"/><rect class="cls-22" x="515.44" y="1242.81" width="1.27" height="0.17" transform="translate(-1215.01 -338.36) rotate(-51.17)"/><rect class="cls-22" x="515.84" y="1243.13" width="1.27" height="0.17" transform="matrix(0.63, -0.78, 0.78, 0.63, -1215.11, -337.94)"/><rect class="cls-22" x="516.23" y="1243.45" width="1.27" height="0.17" transform="translate(-1215.21 -337.51) rotate(-51.17)"/><rect class="cls-22" x="516.63" y="1243.77" width="1.27" height="0.17" transform="translate(-1215.31 -337.08) rotate(-51.17)"/><rect class="cls-22" x="517.02" y="1244.08" width="1.27" height="0.17" transform="translate(-1215.41 -336.66) rotate(-51.17)"/><rect class="cls-22" x="519.06" y="1243.14" width="1.35" height="2.7" transform="translate(-1214.88 -334.92) rotate(-51.17)"/><rect class="cls-22" x="525.58" y="1249.49" width="1.14" height="0.59" transform="translate(-1216.62 -327.95) rotate(-51.17)"/><path class="cls-27" d="M508.24,1231.37c-.38.35-.64-.53,0-.33A.28.28,0,0,1,508.24,1231.37Z" transform="translate(-439.26 -1204)"/><path class="cls-27" d="M509.82,1237.89l-5.5-4.43c-.62-.29-.18-1.13.62-1.58.3-.2,4.59,3.65,5.8,4.5C511.68,1236.83,510.22,1238.34,509.82,1237.89Z" transform="translate(-439.26 -1204)"/><path class="cls-30" d="M509.78,1237.12c-.43-.49-3.89-2.72-3.33-3.09.39-.44,1.24.69,2.36,1.48,1,.85,1.7,1.11,1.43,1.56A.35.35,0,0,1,509.78,1237.12Z" transform="translate(-439.26 -1204)"/><path class="cls-26" d="M508.5,1235.26c-2.52-2.33-2.89-1.16-.41.51Z" transform="translate(-439.26 -1204)"/><path class="cls-28" d="M495.79,1226.57c-.2-.27-1.47-.87-1.13-1.32s2,1,1.58,1.27A.36.36,0,0,1,495.79,1226.57Z" transform="translate(-439.26 -1204)"/><path class="cls-28" d="M495.84,1228.13c-.21-.27-1.47-.87-1.14-1.32s2,1,1.58,1.27A.34.34,0,0,1,495.84,1228.13Z" transform="translate(-439.26 -1204)"/><path class="cls-28" d="M494.27,1228.47c-.21-.27-1.47-.87-1.14-1.32s2,1,1.58,1.27A.34.34,0,0,1,494.27,1228.47Z" transform="translate(-439.26 -1204)"/><path class="cls-1" d="M453.13,1248.83s-13.37-20.74-13.37-29.63a13.37,13.37,0,1,1,26.74,0C466.5,1228.09,453.13,1248.83,453.13,1248.83Z" transform="translate(-439.26 -1204)"/><circle class="cls-31" cx="13.87" cy="15.07" r="6.67"/><ellipse class="cls-3" cx="13.87" cy="48.21" rx="8" ry="1.4"/><path class="cls-32" d="M459.18,1228.26l3.62-3.64a.52.52,0,0,0,.09-.7l-.1-.11a.49.49,0,0,0-.69.06l-3.62,3.64a.52.52,0,0,0-.09.7l.11.11A.47.47,0,0,0,459.18,1228.26Z" transform="translate(-439.26 -1204)"/><path class="cls-32" d="M458,1231.44l-.94.93a.48.48,0,0,1-.69.07l-.79-.84a.53.53,0,0,1,.09-.72l.93-.94a.49.49,0,0,1,.69-.06l.79.84A.54.54,0,0,1,458,1231.44Z" transform="translate(-439.26 -1204)"/><polygon class="cls-33" points="17.87 28.93 16.71 30.09 14.68 27.91 15.84 26.75 17.87 28.93"/><polygon class="cls-34" points="17.87 27.52 20.09 26.7 18.06 24.52 17.19 26.8 17.87 27.52"/><polygon class="cls-32" points="17.87 28.93 17.87 27.52 17.19 26.8 15.84 26.75 17.87 28.93"/><path class="cls-32" d="M452.23,1233.63l2,2.18,1.72-1.72-2-2.18Zm2.09,1.63s0,.12,0,.18a.13.13,0,0,1-.17,0l-1.56-1.68a.13.13,0,0,1,0-.17c.06,0,.13-.06.17,0Zm1.28-1.32a.14.14,0,0,1-.19.19l-1.56-1.67c-.05,0,0-.12,0-.18a.12.12,0,0,1,.17,0Z" transform="translate(-439.26 -1204)"/><path class="cls-32" d="M457.32,1228.52l2,2.18,1.72-1.72-2-2.18Zm2.09,1.64a.12.12,0,0,1,0,.17.11.11,0,0,1-.16,0l-1.57-1.67a.13.13,0,0,1,0-.18.11.11,0,0,1,.16,0Zm1.28-1.33a.13.13,0,0,1,0,.17.12.12,0,0,1-.17,0l-1.56-1.67a.13.13,0,0,1,0-.17.11.11,0,0,1,.17,0Z" transform="translate(-439.26 -1204)"/><path class="cls-35" d="M455.34,1234.19l-1,1a.09.09,0,0,1-.12,0l-1.44-1.54a.09.09,0,0,1,0-.12l1-1a.09.09,0,0,1,.12,0l1.44,1.54A.09.09,0,0,1,455.34,1234.19Z" transform="translate(-439.26 -1204)"/><path class="cls-33" d="M460.45,1229.07l-1,1a.09.09,0,0,1-.12,0l-1.44-1.54a.09.09,0,0,1,0-.12l1-1a.09.09,0,0,1,.12,0l1.44,1.54A.09.09,0,0,1,460.45,1229.07Z" transform="translate(-439.26 -1204)"/><path class="cls-32" d="M448.16,1242.09l5.69-6.4a.35.35,0,0,0,.06-.47l-1.15-1.22a.31.31,0,0,0-.45,0l-5.15,6h0l1,2.09Z" transform="translate(-439.26 -1204)"/><path class="cls-32" d="M460.92,1228.6l5.62-5.64a5,5,0,0,0,.57-1.77v-1a9.13,9.13,0,0,0-2.12,1.16l-5.62,5.64a.35.35,0,0,0-.05.47l1.14,1.22A.32.32,0,0,0,460.92,1228.6Z" transform="translate(-439.26 -1204)"/></svg>