<svg xmlns="http://www.w3.org/2000/svg" viewBox="0 0 132.72 58.07"><defs><style>.cls-1{fill:#aebd38;}.cls-1,.cls-2,.cls-31{stroke:#aebd38;stroke-miterlimit:10;}.cls-2{fill:#333;}.cls-3{fill:#606060;}.cls-4{fill:#7f7853;}.cls-5{fill:#49452a;}.cls-6{fill:#3f3b23;}.cls-7{fill:#575436;}.cls-8{fill:#7a734f;}.cls-9{fill:#827a59;}.cls-10{fill:#5e5e5e;}.cls-11{fill:#848484;}.cls-12{fill:#212121;}.cls-13{fill:#737373;}.cls-14{fill:#3d3d3d;}.cls-15{fill:#585858;}.cls-16{fill:#414433;}.cls-17{fill:#343627;}.cls-18{fill:#46483a;}.cls-19{fill:#424242;}.cls-20{fill:#66643f;}.cls-21{fill:#8f885f;}.cls-22{fill:#867f5a;}.cls-23{fill:#333522;}.cls-24{fill:#2b2b2b;}.cls-25{fill:#353626;}.cls-26{fill:#3b3e2e;}.cls-27{fill:#75744e;}.cls-28{fill:#393c2d;}.cls-29{fill:#464938;}.cls-30,.cls-31{fill:#fff;}.cls-32{fill:#d9d4bd;}.cls-33{fill:#323232;}.cls-34{fill:#6d6b48;}.cls-35{fill:#b6ac80;}.cls-36{fill:#aaa272;}.cls-37{fill:#958e6a;}.cls-38{fill:#484c3a;}.cls-39{fill:#8e865e;}.cls-40{fill:#aaa;}.cls-41{fill:#b7b7b7;}.cls-42{fill:#79704e;}.cls-43{fill:#424634;}.cls-44{fill:#4e4a2e;}.cls-45{fill:#5c593a;}.cls-46{fill:#827954;}.cls-47{fill:#3d4030;}.cls-48{fill:#535035;}.cls-49{fill:#414333;}</style></defs><title>Asset 3</title><g id="Layer_2" data-name="Layer 2"><g id="Layer_1-2" data-name="Layer 1"><path class="cls-1" d="M51.25,46.84S37.87,26.1,37.87,17.21a13.38,13.38,0,0,1,26.75,0C64.62,26.1,51.25,46.84,51.25,46.84Z"/><circle class="cls-2" cx="51.24" cy="17.08" r="6.67"/><ellipse class="cls-3" cx="51.24" cy="50.22" rx="8" ry="1.4"/><path class="cls-4" d="M39,12c-1.64.26-1.74,2.75-1.69,3.46H39l.84-2.77Z"/><path class="cls-4" d="M64,12c1.64.26,1.74,2.75,1.69,3.46H64l-.84-2.77Z"/><path class="cls-5" d="M66.47,16.34c-.55-1.74-4.95-3-5.46-3.56-4.76.23-14.3.23-19,0-1.59,1-4.13,1.61-5.38,3.26-.68,4.3-1.32,6.34,1.46,6.27,3.82-.76,6.22-2.77,11.07-2.61h0c-.16,0,4.78,0,4.73,0h0C62.24,19.33,68.78,27.7,66.47,16.34Z"/><path class="cls-5" d="M51.21,19.68V13L42,12.78c-1.59,1-4.13,1.61-5.38,3.26-.68,4.3-1.32,6.34,1.46,6.27,3.82-.76,6.22-2.77,11.07-2.61h0Z"/><path class="cls-6" d="M66.61,19.62c-.94,3.06-9.46-2.52-13-1.6h0c.16,0-4.78,0-4.73,0h0c-6.42-.26-10.39,4-12.81,2.1-.75,5.41,9.32-1.47,13.09-.42h0c-.16,0,4.78,0,4.73,0h0c6.23-.49,14,6.07,13-.08Z"/><path class="cls-7" d="M67,20.53c0,.66-.11,1.61-1.31,1.75C65.53,16,64,16,64,16c-18.08-.89-24.18.69-25.38.69s-1.27,5.56-1.27,5.56h0c-2.3-.12-.9-4.55-.63-6.35,1.36-1.56,3.75-2.1,5.3-3.11,4.76.22,14.3.22,19,0C67.84,16.29,66.09,15,67,20.53Z"/><path class="cls-8" d="M64.69,14.76c-4.07-.79-4.13-.26-8.3-.57h0a80.34,80.34,0,0,0-8.65,0h0l-1.14,0h0c-10.23.11-9.2,1.42-7.91-.62,0-9.74,4.61-13.8,14-13.51C62.39.88,64,6.54,64.21,13.57,64.21,13.57,65.63,15.2,64.69,14.76Z"/><path class="cls-9" d="M51.21,0C40.3.52,38.91,6.74,38.67,13.57c0,0-1.25,1.45-.6,1.24,4.18-.87,4.24-.3,8.51-.62h0l1.14,0h0L51.21,14Z"/><path class="cls-5" d="M47.1,14.12c-1.54,0-4.83-1.92-6.62-3V5.59c3.45-1.32,8.34-1,11.22-.81,3.25-.43,8-.27,10.81.81v5.55c-6.84,3.87-7.06,4.14-10.86-.41h-.31C49.53,12.91,48.46,14,47.1,14.12Z"/><path class="cls-7" d="M64.07,11.1H62.51V5.59h.23A19.48,19.48,0,0,1,64.07,11.1Z"/><path class="cls-6" d="M38.41,25.12c-1.83,0-1.54-4.16,0-3.95C40.24,21.13,39.94,25.32,38.41,25.12Z"/><path class="cls-6" d="M64.42,25.12c-1.83,0-1.53-4.16,0-3.95C66.26,21.13,66,25.32,64.42,25.12Z"/><polygon class="cls-10" points="22.94 45.4 22.24 45.71 22.53 46.2 23.23 45.88 22.94 45.4"/><polygon class="cls-11" points="22.54 46.22 21.93 45.2 22.64 44.89 23.25 45.91 22.54 46.22"/><path class="cls-12" d="M9.54,27.53s-.91,0-1,.46C9.25,27.28,10.66,28.31,9.54,27.53Z"/><polygon class="cls-11" points="21.76 44.91 18.74 39.87 19.45 39.56 22.46 44.6 21.76 44.91"/><polygon class="cls-10" points="12.76 31.18 13.4 31.94 15.27 31.11 14.93 30.22 12.76 31.18"/><path class="cls-13" d="M4.41,33.2l2.47,1.63a17.82,17.82,0,0,1,4.25-3.48L9.36,29.14A20.67,20.67,0,0,0,4.41,33.2Z"/><path class="cls-11" d="M5.29,33.39l-.3-.2a18,18,0,0,1,4.33-3.54l.22.26A17.82,17.82,0,0,0,5.29,33.39Z"/><path class="cls-11" d="M5.94,34l-.3-.2A18.27,18.27,0,0,1,10,30.23l.21.27A17.77,17.77,0,0,0,5.94,34Z"/><path class="cls-11" d="M6.58,34.55l-.3-.19a18.3,18.3,0,0,1,4.33-3.55l.22.27A18,18,0,0,0,6.58,34.55Z"/><path class="cls-14" d="M16.17,28.9c-.33-.67-2.34-4.93-2.34-4.93l-2.41-.16-.3-.51-.73-.09S5.5,15,5,14.16c0,0-.06-.84-4,1.51-2,1.13-.45,1.67-.17,2,6.35,5.31,12.09,8.57,3,7.45-.26,0-.22,0-.31,0-.25.52.41,1.75.37,1.77L7.46,27a21.62,21.62,0,0,0,3.37,4.6l1.77-.79.17.4C16.65,29.7,16.5,29.8,16.17,28.9ZM9,28.9c-.72-.3-1.43-2,0-1.79C9.74,27.41,10.45,29.1,9,28.9Zm6.54.92c-1.07.45-1.62-1.67-2.78-3.22-1.75-2.23.47-2.2,1-1.22C15.4,28.29,16.62,29.43,15.56,29.82Z"/><path class="cls-15" d="M16.17,28.9c-.33-.67-2.34-4.93-2.34-4.93l-2.41-.16-.3-.51-.7-.09,4.31,7.2C16,29.78,16.62,30,16.17,28.9Zm-.61.92c-1.07.45-1.62-1.67-2.78-3.22-1.75-2.23.47-2.2,1-1.22C15.4,28.29,16.62,29.43,15.56,29.82Z"/><path class="cls-14" d="M12.18,25c1.18-1,1.87,1,2.76,2.35s1.84,2.41.16,2.52l.18.31c1.58-.54,1-.9.63-1.82C15.27,27,13.84,24,13.83,24l-2.36-.16Z"/><path class="cls-16" d="M8.25,24l2-.9-5.36-9S4.41,13.44.3,16.14c0,0-.48.44-.23.86S8,23.19,8.25,24Z"/><path class="cls-17" d="M9.59,23.36l.7-.31c-6.18-10.13-5-9.12-6.22-8.92Z"/><path class="cls-17" d="M10,28.14c-2.27-3.71-1.12-2.66-3.76-2.82-3.48-.2-3-.62-2.38,1.59L7.46,27l1.39,2.31.09.11C9.49,29.17,10.42,28.82,10,28.14ZM9,28.9c-.72-.3-1.43-2,0-1.79C9.74,27.41,10.45,29.1,9,28.9Z"/><path class="cls-10" d="M10,28.14l-.95-1.6L7.6,27.2c.09.11,1.21,2.1,1.34,2.19C9.49,29.17,10.42,28.82,10,28.14ZM9,28.9c-.72-.3-1.43-2,0-1.79C9.74,27.41,10.45,29.1,9,28.9Z"/><path class="cls-10" d="M10.09,28.24l-.95-1.6-1.48.66c.09.11,1.21,2.1,1.34,2.19C9.55,29.27,10.48,28.92,10.09,28.24Zm-1,.76c-.72-.3-1.43-2,0-1.79C9.8,27.51,10.51,29.2,9.08,29Z"/><path class="cls-12" d="M8.59,27.28a.74.74,0,0,1,.89.25c-.41-.84-1.72-.22-1.18.53A.54.54,0,0,1,8.59,27.28Z"/><path class="cls-18" d="M6.54,26.56c-2.07.07-2.59.41-2.6-.69h0c.21-.69.7-.39,1.74-.34.88.11,1.33,0,1.42.58h0A.51.51,0,0,1,6.54,26.56Z"/><path class="cls-11" d="M16.35,38.06,15.12,36c-2.73-4.85-3-3.31.24-4.93.3-.18.52-.13.63,0l3.3,5.53c.26.38,0,.42-1.05.88S16.63,38.41,16.35,38.06Z"/><polygon class="cls-10" points="17.86 37.68 18.23 37.52 14.58 31.41 14.21 31.58 17.86 37.68"/><polygon class="cls-10" points="15 31.8 14.92 31.67 16.03 31.18 16.11 31.31 15 31.8"/><polygon class="cls-10" points="15.23 32.19 15.15 32.05 16.26 31.56 16.34 31.69 15.23 32.19"/><polygon class="cls-10" points="15.46 32.57 15.38 32.44 16.49 31.94 16.57 32.08 15.46 32.57"/><polygon class="cls-10" points="15.68 32.95 15.61 32.82 16.72 32.33 16.8 32.46 15.68 32.95"/><polygon class="cls-10" points="15.91 33.33 15.84 33.2 16.95 32.71 17.02 32.84 15.91 33.33"/><polygon class="cls-10" points="16.14 33.72 16.06 33.59 17.18 33.09 17.25 33.22 16.14 33.72"/><polygon class="cls-10" points="16.37 34.1 16.29 33.97 17.41 33.48 17.48 33.61 16.37 34.1"/><polygon class="cls-10" points="16.6 34.48 16.52 34.35 17.63 33.86 17.71 33.99 16.6 34.48"/><polygon class="cls-10" points="16.83 34.87 16.75 34.73 17.86 34.24 17.94 34.37 16.83 34.87"/><polygon class="cls-10" points="17.06 35.25 16.98 35.12 18.09 34.62 18.17 34.76 17.06 35.25"/><polygon class="cls-10" points="17.29 35.63 17.21 35.5 18.32 35.01 18.4 35.14 17.29 35.63"/><polygon class="cls-10" points="17.52 36.01 17.44 35.88 18.55 35.39 18.63 35.52 17.52 36.01"/><polygon class="cls-10" points="17.75 36.4 17.67 36.27 18.78 35.77 18.86 35.9 17.75 36.4"/><polygon class="cls-10" points="17.98 36.78 17.9 36.65 19.01 36.16 19.09 36.29 17.98 36.78"/><polygon class="cls-10" points="18.2 37.16 18.13 37.03 19.24 36.54 19.32 36.67 18.2 37.16"/><polygon class="cls-10" points="13.11 32.64 13.03 32.51 14.14 32.02 14.22 32.15 13.11 32.64"/><polygon class="cls-10" points="13.34 33.02 13.26 32.89 14.37 32.4 14.45 32.53 13.34 33.02"/><polygon class="cls-10" points="13.56 33.41 13.49 33.27 14.6 32.78 14.68 32.91 13.56 33.41"/><polygon class="cls-10" points="13.79 33.79 13.72 33.66 14.83 33.16 14.91 33.3 13.79 33.79"/><polygon class="cls-10" points="14.02 34.17 13.95 34.04 15.06 33.55 15.13 33.68 14.02 34.17"/><polygon class="cls-10" points="14.25 34.55 14.17 34.42 15.29 33.93 15.36 34.06 14.25 34.55"/><polygon class="cls-10" points="14.48 34.94 14.4 34.81 15.52 34.31 15.59 34.45 14.48 34.94"/><polygon class="cls-10" points="14.71 35.32 14.63 35.19 15.74 34.7 15.82 34.83 14.71 35.32"/><polygon class="cls-10" points="14.94 35.7 14.86 35.57 15.97 35.08 16.05 35.21 14.94 35.7"/><polygon class="cls-10" points="15.17 36.09 15.09 35.95 16.2 35.46 16.28 35.59 15.17 36.09"/><polygon class="cls-10" points="15.4 36.47 15.32 36.34 16.43 35.84 16.51 35.98 15.4 36.47"/><polygon class="cls-10" points="15.63 36.85 15.55 36.72 16.66 36.23 16.74 36.36 15.63 36.85"/><polygon class="cls-10" points="15.86 37.23 15.78 37.1 16.89 36.61 16.97 36.74 15.86 37.23"/><polygon class="cls-10" points="16.08 37.62 16.01 37.49 17.12 36.99 17.2 37.13 16.08 37.62"/><polygon class="cls-10" points="16.31 38 16.23 37.87 17.35 37.38 17.43 37.51 16.31 38"/><polygon class="cls-10" points="18.6 39.94 17.38 37.89 18.56 37.37 19.78 39.41 18.6 39.94"/><polygon class="cls-10" points="21.88 45.42 21.61 44.98 22.61 44.53 22.88 44.98 21.88 45.42"/><path class="cls-15" d="M13.46,24.5c-.48.14-.37-.63.1-.26C13.59,24.3,13.59,24.4,13.46,24.5Z"/><path class="cls-15" d="M12.27,30.12s-2.66-4.46-3.19-5.34c-.43-.44.3-1,1.2-1,.34-.05,2.68,4.42,3.43,5.5C14.38,29.93,12.46,30.6,12.27,30.12Z"/><path class="cls-19" d="M12.54,29.5c-.18-.53-2.41-3.45-1.76-3.55s.84,1,1.54,2c.53,1,1.08,1.44.66,1.7A.38.38,0,0,1,12.54,29.5Z"/><path class="cls-14" d="M12.14,27.61c-1.34-2.67-2.15-1.89-.58.26Z"/><path class="cls-17" d="M4.15,16.49c-.08-.28-1-1.18-.5-1.42S5,16.52,4.57,16.6A.37.37,0,0,1,4.15,16.49Z"/><path class="cls-17" d="M3.57,17.71c-.08-.28-1-1.18-.5-1.41s1.38,1.44.92,1.53A.37.37,0,0,1,3.57,17.71Z"/><path class="cls-17" d="M2,17.43c-.08-.28-1-1.18-.5-1.41s1.38,1.44.92,1.53A.37.37,0,0,1,2,17.43Z"/><path class="cls-20" d="M62.73,30.21c-.45-.21-1.29-.7-1.29-1.48a7.48,7.48,0,0,1-.28-7.08s5,.55-.16-.65c-.87,3.82-9.19,6.05-9.19,6.05S43.87,24.82,43,21c-5.19,1.2-.53.65-.53.65a7.5,7.5,0,0,1-.29,7.08c0,.78-.83,1.27-1.28,1.48h-.27L51,48h0L63,30.21Z"/><path class="cls-21" d="M51,48l-10-17.46.06,0c.54-.25,1.44-.81,1.5-1.7a7.7,7.7,0,0,0,.33-7.12c.29-.15-2.59-.06.06-.69,1,3.7,8.36,6.17,8.51,6.29l.3.25.3-.25C52.27,27.17,60,24.7,61,21c6.14,1.43,1.71.86,2,1-.36.77-3.9,3.51-2,6.81,0,.89.95,1.45,1.49,1.7l.07,0L51,48Z"/><path class="cls-8" d="M51.72,27.46l-.21-.17C51.36,27.17,44,24.7,43,21c-2.65.63-3.71.86-4,1,.36.77,5.52,3.51,3.61,6.81-.06.89-1,1.45-1.5,1.7l-.06,0L51,48l.72-8.46Z"/><polygon class="cls-21" points="45.39 20.76 44.03 21.09 43.77 20.38 45.12 20.05 45.39 20.76"/><polygon class="cls-21" points="59.62 21.14 58.33 20.68 58.7 20 60 20.46 59.62 21.14"/><path class="cls-20" d="M48,24.44a.28.28,0,0,1-.12.23.43.43,0,0,1-.28.09H44.41a.37.37,0,0,1-.4-.32.31.31,0,0,1,.12-.23.43.43,0,0,1,.28-.09h3.21A.37.37,0,0,1,48,24.44Z"/><path class="cls-20" d="M47,25.41H45a.55.55,0,0,0,.29-.09.3.3,0,0,0,.11-.23.37.37,0,0,0-.4-.33h2a.48.48,0,0,0-.29.1.3.3,0,0,0-.11.23A.37.37,0,0,0,47,25.41Z"/><path class="cls-20" d="M48.35,26.07h-3.2a.37.37,0,0,1-.4-.32h0a.37.37,0,0,1,.4-.32h3.2a.37.37,0,0,1,.4.32h0A.37.37,0,0,1,48.35,26.07Z"/><path class="cls-22" d="M46.8,23a.26.26,0,0,1-.09.18.36.36,0,0,1-.23.08H43.93a.3.3,0,0,1-.32-.26.24.24,0,0,1,.1-.18.33.33,0,0,1,.22-.08h2.55A.3.3,0,0,1,46.8,23Z"/><path class="cls-22" d="M46,23.73H44.37a.36.36,0,0,0,.22-.07.26.26,0,0,0,.1-.19.29.29,0,0,0-.32-.25H46a.41.41,0,0,0-.22.07.23.23,0,0,0-.09.18A.28.28,0,0,0,46,23.73Z"/><path class="cls-22" d="M47.07,24.26H44.52A.3.3,0,0,1,44.2,24h0a.3.3,0,0,1,.32-.26h2.55a.29.29,0,0,1,.31.26h0A.29.29,0,0,1,47.07,24.26Z"/><path class="cls-22" d="M59,23.48a.24.24,0,0,1-.09.18.36.36,0,0,1-.23.08H56.1a.3.3,0,0,1-.32-.26.24.24,0,0,1,.1-.18.31.31,0,0,1,.22-.08h2.55A.3.3,0,0,1,59,23.48Z"/><path class="cls-22" d="M58.16,24.25H56.54a.36.36,0,0,0,.22-.07.24.24,0,0,0,.1-.19.29.29,0,0,0-.32-.25h1.62a.41.41,0,0,0-.22.07.23.23,0,0,0-.09.18A.28.28,0,0,0,58.16,24.25Z"/><path class="cls-22" d="M59.24,24.78H56.69a.3.3,0,0,1-.32-.26h0a.3.3,0,0,1,.32-.26h2.55a.29.29,0,0,1,.31.26h0A.29.29,0,0,1,59.24,24.78Z"/><path class="cls-22" d="M49.42,33.27a.3.3,0,0,1-.11.23.48.48,0,0,1-.29.09h-3.2a.37.37,0,0,1-.4-.32.28.28,0,0,1,.12-.23.43.43,0,0,1,.28-.09H49A.37.37,0,0,1,49.42,33.27Z"/><path class="cls-22" d="M48.41,34.24h-2a.43.43,0,0,0,.28-.1.31.31,0,0,0,.12-.23.37.37,0,0,0-.4-.32h2a.43.43,0,0,0-.28.1.29.29,0,0,0-.12.22A.37.37,0,0,0,48.41,34.24Z"/><path class="cls-22" d="M49.76,34.9H46.55a.37.37,0,0,1-.4-.32h0a.37.37,0,0,1,.4-.33h3.21a.37.37,0,0,1,.4.33h0A.37.37,0,0,1,49.76,34.9Z"/><path class="cls-8" d="M55.94,31.6a.31.31,0,0,1-.12.23.43.43,0,0,1-.28.1H52.33a.37.37,0,0,1-.4-.33.26.26,0,0,1,.12-.22.43.43,0,0,1,.28-.1h3.21A.37.37,0,0,1,55.94,31.6Z"/><path class="cls-8" d="M54.92,32.57h-2a.43.43,0,0,0,.28-.09.31.31,0,0,0,.12-.23.37.37,0,0,0-.4-.32h2a.43.43,0,0,0-.28.09.31.31,0,0,0-.12.23A.37.37,0,0,0,54.92,32.57Z"/><path class="cls-8" d="M56.27,33.24H53.06a.37.37,0,0,1-.4-.33h0a.37.37,0,0,1,.4-.32h3.21a.37.37,0,0,1,.4.32h0A.37.37,0,0,1,56.27,33.24Z"/><path class="cls-20" d="M50.09,37.78A.28.28,0,0,1,50,38a.43.43,0,0,1-.28.1h-3.2a.37.37,0,0,1-.4-.33.27.27,0,0,1,.11-.22.48.48,0,0,1,.29-.1h3.2A.37.37,0,0,1,50.09,37.78Z"/><path class="cls-20" d="M49.08,38.75H47a.48.48,0,0,0,.29-.09.3.3,0,0,0,.11-.23.37.37,0,0,0-.4-.32h2a.43.43,0,0,0-.28.09.28.28,0,0,0-.12.23A.37.37,0,0,0,49.08,38.75Z"/><path class="cls-20" d="M50.43,39.42H47.22a.37.37,0,0,1-.4-.33h0a.37.37,0,0,1,.4-.32h3.21a.37.37,0,0,1,.4.32h0A.37.37,0,0,1,50.43,39.42Z"/><path class="cls-20" d="M58.67,31.71a.26.26,0,0,0,.1.19A.41.41,0,0,0,59,32h2.73a.31.31,0,0,0,.34-.27.26.26,0,0,0-.1-.2.38.38,0,0,0-.24-.08H59A.33.33,0,0,0,58.67,31.71Z"/><path class="cls-20" d="M59.54,32.53h1.74a.38.38,0,0,1-.24-.08.26.26,0,0,1-.1-.19.32.32,0,0,1,.34-.28H59.54a.38.38,0,0,1,.24.08.26.26,0,0,1,.1.2A.31.31,0,0,1,59.54,32.53Z"/><path class="cls-20" d="M58.39,33.1h2.73a.31.31,0,0,0,.34-.28h0a.31.31,0,0,0-.34-.27H58.39a.31.31,0,0,0-.34.27h0A.31.31,0,0,0,58.39,33.1Z"/><path class="cls-20" d="M58.68,25.1a.26.26,0,0,1-.12.22.43.43,0,0,1-.28.1h-3.2a.37.37,0,0,1-.4-.32.3.3,0,0,1,.11-.23.48.48,0,0,1,.29-.1h3.2A.37.37,0,0,1,58.68,25.1Z"/><path class="cls-20" d="M57.67,26.07H55.62a.48.48,0,0,0,.29-.1.31.31,0,0,0,.12-.23.38.38,0,0,0-.41-.32h2.05a.49.49,0,0,0-.28.09.28.28,0,0,0-.12.23A.37.37,0,0,0,57.67,26.07Z"/><path class="cls-20" d="M59,26.73H55.81a.37.37,0,0,1-.4-.33h0a.37.37,0,0,1,.4-.32H59a.37.37,0,0,1,.4.32h0A.37.37,0,0,1,59,26.73Z"/><path class="cls-20" d="M46.7,32.08a.29.29,0,0,1-.13.23.58.58,0,0,1-.33.09H42.52c-.26,0-.47-.14-.47-.32a.3.3,0,0,1,.14-.23.56.56,0,0,1,.33-.09h3.72C46.5,31.76,46.7,31.9,46.7,32.08Z"/><path class="cls-20" d="M46.43,31.76H43.18a1,1,0,0,0,.45-.1c.12-.06.19-.14.19-.22s-.29-.33-.64-.33h3.25a1,1,0,0,0-.45.1c-.11.06-.19.14-.19.23S46.08,31.76,46.43,31.76Z"/><path class="cls-20" d="M47.09,31.11H41.65a.37.37,0,0,1-.4-.32h0a.37.37,0,0,1,.4-.33h5.44a.37.37,0,0,1,.4.33h0A.37.37,0,0,1,47.09,31.11Z"/><path class="cls-22" d="M57.34,37a.29.29,0,0,1-.13.23.67.67,0,0,1-.33.09H53.16c-.26,0-.47-.14-.47-.32a.3.3,0,0,1,.14-.23.56.56,0,0,1,.33-.1h3.72C57.14,36.64,57.34,36.79,57.34,37Z"/><path class="cls-22" d="M57.07,36.65H53.82a1,1,0,0,0,.45-.1c.12-.06.19-.14.19-.23s-.29-.32-.64-.32h3.25a1,1,0,0,0-.45.1c-.11,0-.19.13-.19.22S56.72,36.65,57.07,36.65Z"/><path class="cls-22" d="M57.73,36H52.29a.37.37,0,0,1-.4-.33h0a.37.37,0,0,1,.4-.32h5.44a.37.37,0,0,1,.4.32h0A.37.37,0,0,1,57.73,36Z"/><path class="cls-22" d="M55.78,28.12a.31.31,0,0,1-.12.23.43.43,0,0,1-.28.1H52.17a.37.37,0,0,1-.4-.33.26.26,0,0,1,.12-.22.43.43,0,0,1,.28-.1h3.21A.37.37,0,0,1,55.78,28.12Z"/><path class="cls-22" d="M54.76,29.09h-2A.43.43,0,0,0,53,29a.31.31,0,0,0,.12-.23.37.37,0,0,0-.4-.32h2a.43.43,0,0,0-.28.09.31.31,0,0,0-.12.23A.37.37,0,0,0,54.76,29.09Z"/><path class="cls-22" d="M56.11,29.76H52.9a.37.37,0,0,1-.4-.33h0a.37.37,0,0,1,.4-.32h3.21a.37.37,0,0,1,.4.32h0A.37.37,0,0,1,56.11,29.76Z"/><path class="cls-8" d="M61.39,33.27a.28.28,0,0,1-.12.23.43.43,0,0,1-.28.09h-3.2a.37.37,0,0,1-.4-.32A.3.3,0,0,1,57.5,33a.48.48,0,0,1,.29-.09H61A.37.37,0,0,1,61.39,33.27Z"/><path class="cls-8" d="M60.38,34.24H58.33a.48.48,0,0,0,.29-.1.31.31,0,0,0,.12-.23.38.38,0,0,0-.41-.32h2.05a.43.43,0,0,0-.28.1.26.26,0,0,0-.12.22A.37.37,0,0,0,60.38,34.24Z"/><path class="cls-8" d="M62.13,34.58h0a.37.37,0,0,1-.4.32H58.52a.37.37,0,0,1-.4-.32h0a.37.37,0,0,1,.4-.33"/><path class="cls-16" d="M50.77,26.71v3.81a.43.43,0,0,1-.47.38H43.88a.43.43,0,0,1-.47-.38V26.71Z"/><path class="cls-23" d="M50.77,26.71v1.07c0,1.42-1.44,2.58-3.21,2.58h-.94c-1.77,0-3.21-1.16-3.21-2.58V26.71Z"/><path class="cls-16" d="M46.62,29.91A2.51,2.51,0,0,1,44,27.25v-.54h6.23v1.07a2.44,2.44,0,0,1-2.65,2.13Z"/><path class="cls-24" d="M49.56,29.16a1.88,1.88,0,0,0,.65-1.38V26.71H44v.54a2.61,2.61,0,0,0,.72,1.91Z"/><path class="cls-16" d="M50.77,26.71v3.81a.43.43,0,0,1-.47.38H43.88a.43.43,0,0,1-.47-.38V26.71Z"/><path class="cls-23" d="M50.77,26.71v1.07c0,1.42-1.44,2.58-3.21,2.58h-.94c-1.77,0-3.21-1.16-3.21-2.58V26.71Z"/><path class="cls-16" d="M46.62,29.91A2.51,2.51,0,0,1,44,27.25v-.54h6.23v1.07a2.44,2.44,0,0,1-2.65,2.13Z"/><path class="cls-20" d="M49.56,29.16a1.88,1.88,0,0,0,.65-1.38V26.71H44v.54a2.61,2.61,0,0,0,.72,1.91Z"/><path class="cls-16" d="M50.17,28.14a2.2,2.2,0,0,0,0-.36V26.71H44v.54a3.14,3.14,0,0,0,.12.89Z"/><path class="cls-16" d="M47,26.71H43.41v3.81a.43.43,0,0,0,.47.38H47Z"/><path class="cls-25" d="M47,26.71H43.41v1.07c0,1.42,1.44,2.58,3.21,2.58H47Z"/><path class="cls-26" d="M47,26.71H44v.54a2.51,2.51,0,0,0,2.64,2.66H47Z"/><path class="cls-27" d="M47,26.71H44v.54a2.61,2.61,0,0,0,.72,1.91H47Z"/><path class="cls-26" d="M47,26.71H44v.54a3.14,3.14,0,0,0,.12.89H47Z"/><path class="cls-23" d="M50.11,37.27H48.4a.56.56,0,0,1-.61-.49v-.92a.56.56,0,0,1,.61-.49h1.71a.56.56,0,0,1,.61.49v.92A.56.56,0,0,1,50.11,37.27Z"/><path class="cls-28" d="M49.12,35.37H48.4a.56.56,0,0,0-.61.49v.92a.56.56,0,0,0,.61.49h.72Z"/><path class="cls-23" d="M46.33,37.27H44.62a.56.56,0,0,1-.61-.49v-.92a.56.56,0,0,1,.61-.49h1.71a.56.56,0,0,1,.61.49v.92A.56.56,0,0,1,46.33,37.27Z"/><path class="cls-28" d="M45.37,35.37h-.75a.56.56,0,0,0-.61.49v.92a.56.56,0,0,0,.61.49h.75Z"/><polygon class="cls-16" points="47.6 31.41 47.6 35.52 48.17 36.44 50.43 36.44 51 35.52 51 31.41 47.6 31.41"/><polygon class="cls-29" points="49.2 31.41 47.6 31.41 47.6 35.52 48.17 36.44 49.2 36.44 49.2 31.41"/><polygon class="cls-16" points="43.78 31.41 43.78 35.52 44.34 36.44 46.61 36.44 47.17 35.52 47.17 31.41 43.78 31.41"/><polygon class="cls-29" points="45.38 31.41 43.78 31.41 43.78 35.52 44.34 36.44 45.38 36.44 45.38 31.41"/><path class="cls-8" d="M52.9,38h1.91a.19.19,0,0,0,.2-.17v-.05a.18.18,0,0,0-.2-.16H52.9a.18.18,0,0,0-.2.16v.05A.19.19,0,0,0,52.9,38Z"/><rect class="cls-16" x="52.91" y="27.42" width="2.08" height="3.66"/><rect class="cls-16" x="55.36" y="27.42" width="2.08" height="3.66"/><rect class="cls-16" x="57.91" y="27.42" width="2.08" height="3.66"/><rect class="cls-29" x="52.91" y="27.42" width="0.94" height="3.66"/><rect class="cls-29" x="55.36" y="27.42" width="0.94" height="3.66"/><rect class="cls-29" x="57.91" y="27.42" width="0.94" height="3.66"/><polygon class="cls-26" points="56.72 32.34 53.66 34.38 52.45 33.2 55.51 31.16 56.72 32.34"/><path class="cls-16" d="M60.82,36.51l-2.77,1.85a.6.6,0,0,1-.73-.06l-4.11-4a.36.36,0,0,1,.06-.59L56,31.86a.61.61,0,0,1,.73.05l4.12,4A.36.36,0,0,1,60.82,36.51Z"/><path class="cls-21" d="M51.76,38.49h-.5a.19.19,0,0,1-.2-.17v-.43a.18.18,0,0,1,.2-.16h.5a.18.18,0,0,1,.2.16v.43A.19.19,0,0,1,51.76,38.49Z"/><rect class="cls-16" x="50.55" y="37.56" width="0.61" height="1.11"/><polygon class="cls-16" points="51.51 38.29 52.33 38.66 52.33 37.56 51.51 37.92 51.51 38.29"/><polygon class="cls-16" points="51.16 38.66 51.51 38.29 51.51 37.92 51.16 37.56 51.16 38.66"/><path class="cls-16" d="M49.64,37.56v1.1h.91v-1.1Zm.16,1s0,0-.06,0-.05,0-.05,0v-.85s0,0,.05,0,.06,0,.06,0Zm.68,0s0,0,0,0,0,0,0,0v-.85a.05.05,0,0,1,.1,0Z"/><path class="cls-16" d="M52.32,37.56v1.1h.91v-1.1Zm.16,1s0,0,0,0,0,0,0,0v-.85a0,0,0,0,1,0,0s0,0,0,0Zm.68,0s0,0,0,0,0,0,0,0v-.85s0,0,0,0a0,0,0,0,1,0,0Z"/><path class="cls-30" d="M50.35,38.52h-.52s0,0,0,0v-.79a0,0,0,0,1,0,0h.52a0,0,0,0,1,0,0v.79S50.37,38.52,50.35,38.52Z"/><path class="cls-30" d="M53,38.52h-.51l0,0v-.79a0,0,0,0,1,0,0H53a0,0,0,0,1,0,0v.79Z"/><path class="cls-21" d="M52.16,30.72H51.7a.18.18,0,0,1-.19-.16v-.39A.18.18,0,0,1,51.7,30h.46a.18.18,0,0,1,.19.16v.39A.18.18,0,0,1,52.16,30.72Z"/><rect class="cls-16" x="51.03" y="29.85" width="0.57" height="1.03"/><polygon class="cls-16" points="51.93 30.54 52.69 30.88 52.69 29.85 51.93 30.19 51.93 30.54"/><polygon class="cls-16" points="51.6 30.88 51.93 30.54 51.93 30.19 51.6 29.85 51.6 30.88"/><path class="cls-16" d="M50.19,29.85v1H51v-1Zm.15.91s0,0-.05,0a0,0,0,0,1,0,0V30a0,0,0,0,1,0,0s.05,0,.05,0Zm.63,0a0,0,0,0,1,0,0,0,0,0,0,1,0,0V30a0,0,0,0,1,0,0,0,0,0,0,1,0,0Z"/><path class="cls-16" d="M52.69,29.85v1h.83v-1Zm.14.91a.05.05,0,0,1-.1,0V30a.05.05,0,0,1,.1,0Zm.63,0a0,0,0,0,1,0,0,0,0,0,0,1-.05,0V30a0,0,0,0,1,.05,0,0,0,0,0,1,0,0Z"/><path class="cls-30" d="M50.85,30.75h-.48a0,0,0,0,1,0,0V30a0,0,0,0,1,0,0h.48a0,0,0,0,1,0,0v.72A0,0,0,0,1,50.85,30.75Z"/><path class="cls-30" d="M53.34,30.75h-.48a0,0,0,0,1,0,0V30a0,0,0,0,1,0,0h.48s0,0,0,0v.72S53.36,30.75,53.34,30.75Z"/><path class="cls-30" d="M46.6,38.52h3a.12.12,0,0,0,.13-.1v-.63a.12.12,0,0,0-.13-.11h-3a.12.12,0,0,0-.13.11v.63A.12.12,0,0,0,46.6,38.52Z"/><path class="cls-30" d="M53.28,38.52h3c.08,0,.14-.05.14-.1v-.63a.13.13,0,0,0-.14-.11h-3a.12.12,0,0,0-.13.11v.63A.12.12,0,0,0,53.28,38.52Z"/><rect class="cls-10" x="68.59" y="46.14" width="0.8" height="0.64" transform="translate(-10.46 71.08) rotate(-51.17)"/><rect class="cls-11" x="68.34" y="45.59" width="0.8" height="1.35" transform="translate(-10.4 70.81) rotate(-51.17)"/><path class="cls-12" d="M48.06,32.23s-.86.34-.74.92C47.67,32.08,49.46,32.62,48.06,32.23Z"/><rect class="cls-11" x="64.92" y="40.17" width="0.8" height="6.67" transform="translate(-9.53 67.12) rotate(-51.17)"/><polygon class="cls-10" points="52.78 34.84 53.73 35.39 55.07 33.73 54.33 32.91 52.78 34.84"/><path class="cls-13" d="M46,40.44l3.07.74a18.86,18.86,0,0,1,2.27-5.49L48.66,34A21.89,21.89,0,0,0,46,40.44Z"/><path class="cls-11" d="M46.92,40.28l-.37-.09a19.27,19.27,0,0,1,2.31-5.59l.33.2A18.92,18.92,0,0,0,46.92,40.28Z"/><path class="cls-11" d="M47.79,40.65l-.37-.09A19.63,19.63,0,0,1,49.74,35l.32.2A19.14,19.14,0,0,0,47.79,40.65Z"/><path class="cls-11" d="M48.67,41l-.37-.09a19.29,19.29,0,0,1,2.32-5.59l.32.2A18.69,18.69,0,0,0,48.67,41Z"/><path class="cls-14" d="M54.86,31c-.63-.59-4.53-4.35-4.53-4.35L48,27.46,47.49,27l-.71.21-9.33-7.51c-.05,0-.46-.89-2.94,3.25-1.35,2.05.38,2,.8,2.24,8.42,3.1,15.29,4.25,6.31,6.8-.24.09-.22,0-.28.12,0,.67,1.22,1.72,1.18,1.75.92-.38,2.44-1,3.34-1.41a25.29,25.29,0,0,0,5.31,3.57l1.27-1.57.35.35C55.68,31.65,55.59,31.82,54.86,31Zm-6.63,2.93c-.81,0-2.28-1.55-.86-1.92C48.18,32,49.65,33.55,48.23,33.92Zm6.5-1.7c-.78.93-2.31-1.12-4.12-2.32-2.68-1.68-.62-2.55.32-1.71C53.84,30.65,55.52,31.37,54.73,32.22Z"/><path class="cls-15" d="M54.86,31c-.63-.59-4.53-4.35-4.53-4.35L48,27.46,47.49,27l-.68.2,7.43,6C55.12,32,55.78,32,54.86,31Zm-.13,1.23c-.78.93-2.31-1.12-4.12-2.32-2.68-1.68-.62-2.55.32-1.71C53.84,30.65,55.52,31.37,54.73,32.22Z"/><path class="cls-14" d="M49.29,28.42c.62-1.54,2.2.29,3.67,1.4s2.86,1.84,1.36,2.65l.31.25c1.21-1.22.51-1.37-.27-2.21-1.25-1.19-4-3.86-4-3.87l-2.26.8Z"/><path class="cls-16" d="M45.15,28.92l1.46-1.81-9.24-7.44s-.8-.48-3.31,4.11c0,0-.23.67.2,1S44.52,28.21,45.15,28.92Z"/><path class="cls-17" d="M46.11,27.73l.5-.62c-10.56-8.36-9-7.77-10-7Z"/><path class="cls-17" d="M48.8,32.69c-3.87-3.06-2.3-2.4-4.83-1.49-3.32,1.22-3.12.59-1.45,2.69.92-.38,2.44-1,3.34-1.41l2.39,1.93.13.07C48.79,34,49.49,33.26,48.8,32.69Zm-.57,1.23c-.81,0-2.28-1.55-.86-1.92C48.18,32,49.65,33.55,48.23,33.92Z"/><path class="cls-10" d="M48.8,32.69l-1.64-1.33L46.1,32.68c.13.08,2.12,1.76,2.28,1.8C48.79,34,49.49,33.26,48.8,32.69Zm-.57,1.23c-.81,0-2.28-1.55-.86-1.92C48.18,32,49.65,33.55,48.23,33.92Z"/><path class="cls-10" d="M48.91,32.77l-1.65-1.32L46.2,32.76c.14.08,2.12,1.76,2.29,1.81C48.9,34.1,49.59,33.34,48.91,32.77ZM48.33,34c-.81,0-2.28-1.54-.86-1.91C48.28,32.11,49.75,33.63,48.33,34Z"/><path class="cls-12" d="M47.06,32.36a.68.68,0,0,1,.94-.1.68.68,0,1,0-.84,1.05A.67.67,0,0,1,47.06,32.36Z"/><path class="cls-18" d="M44.81,32.43c-1.89.92-2.2,1.5-2.74.32h0c-.13-.83.47-.71,1.46-1.08s1.23-.55,1.59,0h0A.56.56,0,0,1,44.81,32.43Z"/><path class="cls-11" d="M59.39,40.77l-2.13-1.71c-4.83-4.1-4.38-2.32-2.13-5.41.2-.31.42-.35.6-.22L61.43,38c.42.3.19.46-.56,1.38S59.82,41,59.39,40.77Z"/><rect class="cls-10" x="57.38" y="33" width="0.42" height="8.08" transform="translate(-7.38 58.68) rotate(-51.17)"/><rect class="cls-10" x="54.84" y="33.96" width="1.27" height="0.17" transform="translate(-5.83 55.92) rotate(-51.17)"/><rect class="cls-10" x="55.24" y="34.27" width="1.27" height="0.17" transform="translate(-5.93 56.34) rotate(-51.17)"/><rect class="cls-10" x="55.63" y="34.59" width="1.27" height="0.17" transform="translate(-6.03 56.77) rotate(-51.17)"/><rect class="cls-10" x="56.03" y="34.91" width="1.27" height="0.17" transform="translate(-6.13 57.19) rotate(-51.17)"/><rect class="cls-10" x="56.42" y="35.23" width="1.27" height="0.17" transform="translate(-6.23 57.62) rotate(-51.17)"/><rect class="cls-10" x="56.82" y="35.54" width="1.27" height="0.17" transform="translate(-6.33 58.05) rotate(-51.17)"/><rect class="cls-10" x="57.21" y="35.86" width="1.27" height="0.17" transform="translate(-6.43 58.47) rotate(-51.17)"/><rect class="cls-10" x="57.61" y="36.18" width="1.27" height="0.17" transform="translate(-6.53 58.9) rotate(-51.17)"/><rect class="cls-10" x="58" y="36.5" width="1.27" height="0.17" transform="translate(-6.63 59.33) rotate(-51.17)"/><rect class="cls-10" x="58.4" y="36.82" width="1.27" height="0.17" transform="translate(-6.73 59.75) rotate(-51.17)"/><rect class="cls-10" x="58.79" y="37.13" width="1.27" height="0.17" transform="translate(-6.83 60.18) rotate(-51.17)"/><rect class="cls-10" x="59.19" y="37.45" width="1.27" height="0.17" transform="translate(-6.93 60.6) rotate(-51.17)"/><rect class="cls-10" x="59.58" y="37.77" width="1.27" height="0.17" transform="translate(-7.03 61.03) rotate(-51.17)"/><rect class="cls-10" x="59.98" y="38.09" width="1.27" height="0.17" transform="translate(-7.13 61.46) rotate(-51.17)"/><rect class="cls-10" x="60.37" y="38.4" width="1.27" height="0.17" transform="translate(-7.23 61.88) rotate(-51.17)"/><rect class="cls-10" x="53.49" y="35.63" width="1.27" height="0.17" transform="translate(-7.64 55.49) rotate(-51.17)"/><rect class="cls-10" x="53.89" y="35.95" width="1.27" height="0.17" transform="translate(-7.74 55.92) rotate(-51.17)"/><rect class="cls-10" x="54.28" y="36.27" width="1.27" height="0.17" transform="translate(-7.84 56.34) rotate(-51.17)"/><rect class="cls-10" x="54.68" y="36.59" width="1.27" height="0.17" transform="matrix(0.63, -0.78, 0.78, 0.63, -7.94, 56.77)"/><rect class="cls-10" x="55.07" y="36.9" width="1.27" height="0.17" transform="translate(-8.04 57.19) rotate(-51.17)"/><rect class="cls-10" x="55.47" y="37.22" width="1.27" height="0.17" transform="translate(-8.14 57.62) rotate(-51.17)"/><rect class="cls-10" x="55.86" y="37.54" width="1.27" height="0.17" transform="translate(-8.24 58.05) rotate(-51.17)"/><rect class="cls-10" x="56.26" y="37.86" width="1.27" height="0.17" transform="translate(-8.34 58.47) rotate(-51.17)"/><rect class="cls-10" x="56.65" y="38.18" width="1.27" height="0.17" transform="translate(-8.44 58.9) rotate(-51.17)"/><rect class="cls-10" x="57.05" y="38.49" width="1.27" height="0.17" transform="translate(-8.54 59.33) rotate(-51.17)"/><rect class="cls-10" x="57.44" y="38.81" width="1.27" height="0.17" transform="translate(-8.64 59.75) rotate(-51.17)"/><rect class="cls-10" x="57.84" y="39.13" width="1.27" height="0.17" transform="matrix(0.63, -0.78, 0.78, 0.63, -8.74, 60.18)"/><rect class="cls-10" x="58.23" y="39.45" width="1.27" height="0.17" transform="translate(-8.84 60.6) rotate(-51.17)"/><rect class="cls-10" x="58.63" y="39.77" width="1.27" height="0.17" transform="translate(-8.94 61.03) rotate(-51.17)"/><rect class="cls-10" x="59.02" y="40.08" width="1.27" height="0.17" transform="translate(-9.04 61.46) rotate(-51.17)"/><rect class="cls-10" x="61.06" y="39.14" width="1.35" height="2.7" transform="translate(-8.51 63.19) rotate(-51.17)"/><rect class="cls-10" x="67.58" y="45.49" width="1.14" height="0.59" transform="translate(-10.25 70.17) rotate(-51.17)"/><path class="cls-15" d="M50.24,27.37c-.38.35-.64-.53,0-.33A.28.28,0,0,1,50.24,27.37Z"/><path class="cls-15" d="M51.82,33.89l-5.5-4.43c-.62-.29-.18-1.13.62-1.58.3-.2,4.59,3.65,5.8,4.5C53.68,32.83,52.22,34.34,51.82,33.89Z"/><path class="cls-19" d="M51.78,33.12c-.43-.49-3.89-2.72-3.33-3.09.39-.44,1.24.69,2.36,1.48,1,.85,1.7,1.11,1.43,1.56A.35.35,0,0,1,51.78,33.12Z"/><path class="cls-14" d="M50.5,31.26c-2.52-2.33-2.89-1.16-.41.51Z"/><path class="cls-17" d="M37.79,22.57c-.2-.27-1.47-.87-1.13-1.32s2,1,1.58,1.27A.36.36,0,0,1,37.79,22.57Z"/><path class="cls-17" d="M37.84,24.13c-.21-.27-1.47-.87-1.14-1.32s2,1,1.58,1.27A.34.34,0,0,1,37.84,24.13Z"/><path class="cls-17" d="M36.27,24.47c-.21-.27-1.47-.87-1.14-1.32s2,1,1.58,1.27A.34.34,0,0,1,36.27,24.47Z"/><path class="cls-1" d="M19,52.77a.69.69,0,0,1-1.18,0C15.2,48.64,5,31.84,5,24.07a13.37,13.37,0,1,1,26.74,0C31.74,31.84,21.54,48.64,19,52.77Z"/><circle class="cls-31" cx="20.37" cy="22.94" r="6.67"/><ellipse class="cls-3" cx="20.37" cy="56.08" rx="8" ry="1.4"/><path class="cls-29" d="M11.17,39.65c.6,2.21,2.21,1.48,2.94.26C13.58,36.8,10.83,39,11.17,39.65Z"/><rect class="cls-29" x="11.56" y="40.45" width="3.72" height="1.65" transform="translate(-17.08 10.39) rotate(-26.63)"/><polygon class="cls-29" points="12.06 39.95 9.96 38.54 13.29 36.87 13.17 39.4 12.06 39.95"/><polygon class="cls-29" points="11.38 41.37 12.06 39.95 13.17 39.4 14.71 39.7 11.38 41.37"/><path class="cls-29" d="M12.12,42.85,13.22,45l3.33-1.66-1.1-2.19Zm.72.14c-1.3.09,2.27-1.36,2.33-1.48C16.06,41.71,13.13,42.7,12.84,43Zm2.7.73c-.82.4-2,1-2,1C12.81,44.24,17.78,42.56,15.54,43.72Z"/><path class="cls-29" d="M8.86,36.35,10,38.54l3.33-1.67-1.1-2.19L9.28,36.14Zm.44.13c0-.38,2.29-1.18,2.61-1.46C12.91,35.09,9.18,36.71,9.3,36.48Zm3.42.21c.94.18-2.43,1.38-2.44,1.53C9.34,38,12.71,36.84,12.72,36.69Z"/><path class="cls-29" d="M12.78,43.12c.76,2.36,1.58.56,3.1.12C15.69,40.74,13.76,42.55,12.78,43.12Z"/><path class="cls-29" d="M9.52,36.61c.75,2.36,1.58.56,3.09.12C12.42,34.23,10.5,36,9.52,36.61Z"/><polygon class="cls-32" points="6.22 31.93 7 34 8 36 9 37 11.91 35.02 4.95 27.59 6.22 31.93"/><polygon class="cls-32" points="13.41 44.55 18 49 18 49 18.46 47.99 18 49 18 49 15.93 43.22 13.41 44.55"/><path class="cls-7" d="M75.17,7.38l-.77,0c-3.65.21-6.46,3.08-6.23,6.38l1.45,21.06c.23,3.3,3.41,5.84,7.06,5.63l.77,0c3.65-.21,6.46-3.07,6.23-6.38L82.23,13C82,9.71,78.82,7.18,75.17,7.38Zm6.74,26.79c0,6.42-10.27,6-10.52.56-1.36-20.82-1.83-21.92-1-23.22,1.74-3.4,8-3.41,9.6,0a4.3,4.3,0,0,1,.44,1.6v.11Z"/><path class="cls-20" d="M85.64,3c-1,.06-3.87-.22-4.74.3A3.15,3.15,0,0,0,81,8.89c.07.33,5.39.37,5.7.06C89.65,7.92,89,3,85.64,3Zm2,3.5c-.26,2.1-2,1.79-3.63,1.81-1.89-.09-2.27.33-3.37-.74a2.78,2.78,0,0,1-.39-2C80.44,3.8,81.87,3.77,84,3.83,86.85,3.69,87.78,4.17,87.65,6.53Z"/><path class="cls-20" d="M92.64,34.43v7.78a.78.78,0,0,1-.82.74H75.25a.78.78,0,0,1-.82-.74V34.43a.78.78,0,0,1,.82-.74H91.82A.78.78,0,0,1,92.64,34.43Z"/><path class="cls-20" d="M96.27,30.54C96,34.63,92,34.92,90.5,34.8c-14.56-.07-15.65.46-17.51-1.28-1.47-1.4-1.41-2.7-1.28-4.18s.09-1.31.17-2.63c.41-6.35.49-7.65.74-11.51.26-3.34.2-5.8.72-6.58,1.45-2.69,4.06-2.57,5.44-2.54,11.68.07,12.64-.4,14.48,1,2.14,1.77,1.51,3.35,1.86,6.51C95.52,19.58,95.9,25.16,96.27,30.54Z"/><path class="cls-21" d="M95.12,32.57c.29-1.54-.12-3.13-.35-8.17C93.24,5.63,96,7,83.82,7,78.25,7.19,75,6,74,10c-.07.72,0,.51,0,.66-.07,1.17-.63,10.35-1,16.2-.17,3.51-.43,4.89-.17,5.71Z"/><path class="cls-20" d="M94.76,32.57c.32-1.61,0-1.95-.18-5.7C92.8,5.1,95.9,7.47,83.82,7.33c-3.65,0-5.91,0-6.6,0-3.58.66-2.82,3.89-3,4.63-.19,3.22-.67,11-1,15.8-.15,2.94-.38,4-.11,4.78Z"/><path class="cls-21" d="M90,35.17H77.66a.78.78,0,0,1-.82-.74V10.34a.79.79,0,0,1,.82-.74H90a.79.79,0,0,1,.82.74V34.43A.78.78,0,0,1,90,35.17Z"/><path class="cls-33" d="M77.22,33.9c-.13,6.94.78,8.38-2.22,8.31-1.84,0-2.78.19-3.31-1.1-.13-.56,0-2.33,0-4.77s-.46-3.84,1.83-3.94C75.56,32.4,77,32.16,77.22,33.9Z"/><path class="cls-21" d="M96.27,33.9s0,3.22,0,5.24c0,1.55.23,3-1.74,3.07-3.76.15-3.9-.37-3.85-2.6V34c.07-1.26.87-1.7,2.86-1.58C95,32.32,96.14,32.52,96.27,33.9Z"/><path class="cls-32" d="M89.42,38.05V43H78.48c.09-4.75-.52-6,1.41-6C88.48,37.08,89.24,36.57,89.42,38.05Z"/><path class="cls-21" d="M89.08,38.05V43H78.82c.07-4.78-.39-5.66,1-5.64C88.48,37.37,89,37,89.08,38.05Z"/><path class="cls-34" d="M74,35.91v6.3c-2.56.12-2.34-1.29-2.32-2.88V35.17C72.34,35.22,74,34.89,74,35.91Z"/><path class="cls-35" d="M96.27,35.17c-.13,6,.84,7.2-2.8,7C93.6,34.11,92.64,35.26,96.27,35.17Z"/><rect class="cls-36" x="76.84" y="11.83" width="13.96" height="1.48"/><rect class="cls-35" x="76.84" y="15.16" width="13.96" height="1.48"/><rect class="cls-35" x="76.84" y="24.22" width="13.96" height="1.48"/><rect class="cls-36" x="76.84" y="27.55" width="13.96" height="1.48"/><rect class="cls-36" x="78.82" y="39.97" width="10.26" height="1.48"/><path class="cls-34" d="M83.61,8.34c-2.11.11-3.47-.23-3.35-2.34-.06-2.15,1.58-2.24,3.35-2.17V3c-2.62-.19-4.36.63-4.24,3.14-.06,2.53,1.91,3.13,4.24,3Z"/><path class="cls-20" d="M83.61,33.69c-11.4.24-8.88-1.45-9.18,4.69.23,6.14-1.94,4.28,9.18,4.57Z"/><path class="cls-34" d="M83.61,6.08V34.8c-.56,0-7.9.08-8.2-.09-4.89-1.22-3.6-5.14-3.6-6.84,0-.88.49-7.71.56-8.73.75-9.46-.25-11.49,4-12.9C77.28,5.93,82.67,6.14,83.61,6.08Z"/><path class="cls-37" d="M83.61,7c-.34,0-6.44,0-6.57,0-3.9.84-3,4.36-3.23,6-.3,6.22-1.38,19.24-1,19.52H83.61Z"/><path class="cls-34" d="M83.61,7.33c-.41,0-6.31,0-6.48,0-3.67.75-2.69,4.16-3,5.9-.31,6.32-1.39,19.06-1,19.3H83.61Z"/><path class="cls-37" d="M83.61,9.6h-6a.79.79,0,0,0-.82.74V34.43a.78.78,0,0,0,.82.74h6Z"/><path class="cls-37" d="M77.22,33.9c-.13,6.94.78,8.38-2.22,8.31-1.84,0-2.78.19-3.31-1.1-.13-.56,0-2.33,0-4.77s-.46-3.84,1.83-3.94C75.56,32.4,77,32.16,77.22,33.9Z"/><path class="cls-32" d="M83.61,37c-6.64,0-4.88-.71-5.13,6h5.13Z"/><path class="cls-37" d="M83.61,37.31c-6.32.09-4.52-1-4.79,5.64h4.79Z"/><path class="cls-35" d="M74,35.91v6.3c-2.56.12-2.34-1.29-2.32-2.88V35.17C72.34,35.22,74,34.89,74,35.91Z"/><rect class="cls-36" x="76.84" y="11.83" width="6.77" height="1.48"/><rect class="cls-35" x="76.84" y="15.16" width="6.77" height="1.48"/><rect class="cls-35" x="76.84" y="24.22" width="6.77" height="1.48"/><rect class="cls-36" x="76.84" y="27.55" width="6.77" height="1.48"/><rect class="cls-36" x="78.82" y="39.97" width="4.79" height="1.48"/><path class="cls-8" d="M87.35,22.74c0,.54-1.17.27-2.31.33-.9.12-2-.17-1-.67C85.94,22.46,87.41,22.2,87.35,22.74Z"/><path class="cls-8" d="M86.41,23.74H84.52a.34.34,0,1,0,0-.67h1.89A.34.34,0,1,0,86.41,23.74Z"/><path class="cls-8" d="M87.65,24.43c-1.92-.06-3.39.2-3.33-.34h0c.08-.57,1-.26,2.05-.33s1.6-.15,1.65.33h0A.35.35,0,0,1,87.65,24.43Z"/><path class="cls-22" d="M85.12,20.12c0,.54-1.16.27-2.3.33-.91.12-2-.17-1-.67C83.71,19.84,85.19,19.58,85.12,20.12Z"/><path class="cls-22" d="M84.18,21.12H82.3a.34.34,0,1,0,0-.67h1.88A.34.34,0,1,0,84.18,21.12Z"/><path class="cls-22" d="M85.43,21.81c-1.93-.06-3.4.2-3.33-.34h0c.07-.57,1-.26,2-.33s1.6-.16,1.66.33h0A.36.36,0,0,1,85.43,21.81Z"/><path class="cls-22" d="M88.22,17.74c0,.59-.91.32-1.92.38-1.25,0-2,.12-2.17-.17-.43-.84,1-.52,2.17-.58S88.17,17.19,88.22,17.74Z"/><path class="cls-22" d="M87.17,18.87H85a.38.38,0,1,0,0-.75h2.13A.38.38,0,1,0,87.17,18.87Z"/><path class="cls-22" d="M88.57,19.64c-2.48-.05-3.8.22-3.75-.37h0c.07-.64,1.12-.3,2.31-.38s1.8-.17,1.85.38h0A.4.4,0,0,1,88.57,19.64Z"/><path class="cls-22" d="M81.2,19.42c-.06.59-.91.32-1.92.38-1.25,0-2,.12-2.18-.17-.42-.84,1-.52,2.18-.58S81.15,18.87,81.2,19.42Z"/><path class="cls-22" d="M80.14,20.55H78a.38.38,0,1,0,0-.75h2.12A.38.38,0,1,0,80.14,20.55Z"/><path class="cls-22" d="M81.54,21.32c-2.48-.05-3.79.22-3.75-.37h0c.08-.64,1.12-.3,2.31-.38S81.91,20.4,82,21h0A.4.4,0,0,1,81.54,21.32Z"/><path class="cls-36" d="M89,20.79c0,.47-.84.26-1.75.3s-1.42.12-1.55-.22c-.17-.57.88-.33,1.81-.37S89,20.36,89,20.79Z"/><path class="cls-36" d="M88.17,21.69H86.48a.3.3,0,1,0,0-.6h1.69A.3.3,0,1,0,88.17,21.69Z"/><path class="cls-36" d="M89.29,22.31c-1.43-.06-3.07.2-3-.3h0c.07-.52.93-.23,1.89-.3s1.37-.14,1.43.3h0A.32.32,0,0,1,89.29,22.31Z"/><path class="cls-36" d="M82.81,17.76c0,.47-.84.26-1.75.3s-1.42.12-1.55-.22c-.18-.57.88-.33,1.81-.38S82.75,17.32,82.81,17.76Z"/><path class="cls-36" d="M82,18.66H80.28a.3.3,0,1,0,0-.6H82A.3.3,0,1,0,82,18.66Z"/><path class="cls-36" d="M83.09,19.27c-1.43-.05-3.07.2-3-.3h0c.07-.51.93-.23,1.89-.29s1.37-.14,1.43.29h0A.31.31,0,0,1,83.09,19.27Z"/><path class="cls-36" d="M82.27,21.78c0,.47-.84.25-1.76.3s-1.41.12-1.54-.22c-.18-.57.88-.34,1.8-.38S82.21,21.34,82.27,21.78Z"/><path class="cls-36" d="M81.43,22.68H79.74a.3.3,0,1,0,0-.6h1.69A.3.3,0,1,0,81.43,22.68Z"/><path class="cls-36" d="M82.55,23.29c-1.43-.06-3.07.2-3-.3h0c.07-.51.93-.23,1.89-.3s1.37-.13,1.43.3h0A.31.31,0,0,1,82.55,23.29Z"/><path class="cls-8" d="M86.9,29.66c0,.54-1.17.28-2.3.34-.91.11-2-.17-1-.67C85.49,29.38,87,29.12,86.9,29.66Z"/><path class="cls-8" d="M86,30.66H84.07a.33.33,0,1,0,0-.66H86A.33.33,0,1,0,86,30.66Z"/><path class="cls-8" d="M87.2,31.35c-1.92-.06-3.39.21-3.33-.34h0c.08-.56,1-.25,2-.33s1.6-.15,1.65.33h0A.35.35,0,0,1,87.2,31.35Z"/><path class="cls-22" d="M84.3,27.32c0,.54-1.16.27-2.3.33-.9.12-2-.17-1-.66C82.89,27,84.37,26.78,84.3,27.32Z"/><path class="cls-22" d="M83.37,28.32H81.48a.34.34,0,1,0,0-.67h1.89A.34.34,0,1,0,83.37,28.32Z"/><path class="cls-22" d="M84.61,29c-1.92-.06-3.4.2-3.33-.34h0c.07-.57,1-.26,2-.33s1.6-.15,1.65.33h0A.36.36,0,0,1,84.61,29Z"/><path class="cls-22" d="M87.77,24.67c0,.59-.91.31-1.92.37-1.25,0-2,.12-2.17-.16-.43-.85,1-.53,2.17-.59S87.72,24.11,87.77,24.67Z"/><path class="cls-22" d="M86.72,25.79H84.59a.38.38,0,1,0,0-.75h2.13A.38.38,0,1,0,86.72,25.79Z"/><path class="cls-22" d="M88.12,26.57c-2.48-.06-3.8.21-3.75-.38h0c.07-.64,1.12-.29,2.31-.38s1.8-.17,1.85.38h0A.39.39,0,0,1,88.12,26.57Z"/><path class="cls-22" d="M81.26,25.8c-.05.59-.9.32-1.92.38-1.25,0-2,.12-2.17-.17-.42-.84,1-.52,2.17-.58S81.21,25.25,81.26,25.8Z"/><path class="cls-22" d="M80.21,26.93H78.08a.38.38,0,1,0,0-.75h2.13A.38.38,0,1,0,80.21,26.93Z"/><path class="cls-22" d="M81.61,27.7c-2.48-.05-3.8.22-3.75-.37h0c.07-.64,1.12-.3,2.31-.38s1.8-.17,1.85.38h0A.39.39,0,0,1,81.61,27.7Z"/><path class="cls-36" d="M88.7,26.74c0,.47-.84.25-1.76.3s-1.41.12-1.54-.22c-.18-.57.88-.34,1.8-.38S88.64,26.3,88.7,26.74Z"/><path class="cls-36" d="M87.86,27.63H86.17a.3.3,0,1,0,0-.59h1.69A.3.3,0,1,0,87.86,27.63Z"/><path class="cls-36" d="M89,28.25c-1.43-.06-3.07.2-3-.3h0c.07-.51.93-.23,1.89-.3s1.37-.13,1.43.3h0A.32.32,0,0,1,89,28.25Z"/><path class="cls-36" d="M82.25,23.83c0,.47-.84.25-1.76.3s-1.41.12-1.55-.22c-.17-.57.88-.34,1.81-.38S82.19,23.39,82.25,23.83Z"/><path class="cls-36" d="M81.41,24.72H79.72a.3.3,0,1,0,0-.59h1.69A.3.3,0,1,0,81.41,24.72Z"/><path class="cls-36" d="M82.52,25.34c-1.42-.06-3.06.2-3-.3h0c.07-.51.92-.23,1.88-.3s1.37-.13,1.43.3h0A.32.32,0,0,1,82.52,25.34Z"/><path class="cls-36" d="M81.82,28.7c0,.47-.84.26-1.76.3s-1.41.12-1.54-.22c-.18-.57.88-.33,1.81-.38S81.76,28.26,81.82,28.7Z"/><path class="cls-36" d="M81,29.6H79.29a.3.3,0,1,0,0-.6H81A.3.3,0,1,0,81,29.6Z"/><path class="cls-36" d="M82.1,30.21c-1.43-.05-3.07.2-3-.3h0c.07-.51.93-.23,1.89-.29s1.37-.14,1.43.29h0A.31.31,0,0,1,82.1,30.21Z"/><path class="cls-36" d="M75.78,35.56c0,.47-.84.25-1.75.3s-1.42.12-1.55-.22c-.17-.57.88-.33,1.81-.38S75.72,35.12,75.78,35.56Z"/><path class="cls-36" d="M74.94,36.46H73.25a.3.3,0,1,0,0-.6h1.69A.3.3,0,1,0,74.94,36.46Z"/><path class="cls-36" d="M76.06,37.07c-1.43-.06-3.07.2-3-.3h0c.07-.51.93-.23,1.89-.3s1.37-.13,1.43.3h0A.31.31,0,0,1,76.06,37.07Z"/><path class="cls-8" d="M87.35,33.29c0,.55-1.17.28-2.31.34-.9.11-2-.17-1-.67C85.94,33,87.41,32.75,87.35,33.29Z"/><path class="cls-8" d="M86.41,34.3H84.52a.34.34,0,1,0,0-.67h1.89A.34.34,0,1,0,86.41,34.3Z"/><path class="cls-8" d="M87.65,35c-1.92-.06-3.39.21-3.33-.33h0c.08-.57,1-.26,2.05-.34s1.6-.15,1.65.34h0A.35.35,0,0,1,87.65,35Z"/><path class="cls-22" d="M85.44,31.34c0,.55-1.16.28-2.3.34-.91.11-2-.17-1-.67C84,31.06,85.51,30.8,85.44,31.34Z"/><path class="cls-22" d="M84.5,32.34H82.62a.33.33,0,1,0,0-.66H84.5A.33.33,0,1,0,84.5,32.34Z"/><path class="cls-22" d="M85.75,33c-1.93-.06-3.4.21-3.33-.33h0c.07-.57,1-.26,2-.34s1.6-.15,1.66.34h0A.36.36,0,0,1,85.75,33Z"/><path class="cls-22" d="M75.64,37.3c0,.55-1.16.28-2.3.34-.91.11-2-.17-1-.67C74.23,37,75.71,36.76,75.64,37.3Z"/><path class="cls-22" d="M74.7,38.31H72.82a.34.34,0,1,0,0-.67H74.7A.34.34,0,1,0,74.7,38.31Z"/><path class="cls-22" d="M76,39c-1.93-.06-3.4.21-3.33-.33h0c.07-.57,1-.26,2-.34s1.6-.15,1.66.34h0A.36.36,0,0,1,76,39Z"/><path class="cls-22" d="M88.54,29c-.05.59-.91.32-1.92.37-1.25,0-2,.12-2.17-.16-.43-.85,1-.53,2.17-.59S88.49,28.41,88.54,29Z"/><path class="cls-22" d="M87.49,30.1H85.36a.38.38,0,1,0,0-.76h2.13A.38.38,0,1,0,87.49,30.1Z"/><path class="cls-22" d="M88.89,30.87c-2.48-.06-3.8.21-3.75-.38h0c.07-.64,1.12-.29,2.31-.37s1.8-.18,1.85.37h0A.4.4,0,0,1,88.89,30.87Z"/><path class="cls-22" d="M81.52,30.65c-.06.59-.91.32-1.92.37-1.25,0-2,.12-2.18-.16-.42-.85,1-.53,2.18-.59S81.47,30.09,81.52,30.65Z"/><path class="cls-22" d="M80.46,31.78H78.34a.38.38,0,1,0,0-.76h2.12A.38.38,0,1,0,80.46,31.78Z"/><path class="cls-22" d="M81.86,32.55c-2.48-.06-3.79.21-3.75-.38h0c.08-.64,1.12-.29,2.31-.37s1.81-.18,1.86.37h0A.4.4,0,0,1,81.86,32.55Z"/><path class="cls-22" d="M76.09,33.46c0,.59-.9.32-1.92.38-1.25,0-2,.11-2.17-.17-.42-.85,1-.53,2.17-.58S76,32.91,76.09,33.46Z"/><path class="cls-22" d="M75,34.59H72.92a.38.38,0,1,0,0-.75H75A.38.38,0,1,0,75,34.59Z"/><path class="cls-22" d="M76.44,35.36c-2.48,0-3.79.22-3.75-.38h0c.08-.63,1.12-.29,2.31-.37s1.8-.17,1.86.37h0A.4.4,0,0,1,76.44,35.36Z"/><path class="cls-36" d="M89.33,32c0,.47-.84.25-1.75.3s-1.42.12-1.55-.22c-.18-.57.88-.34,1.81-.38S89.27,31.58,89.33,32Z"/><path class="cls-36" d="M88.49,32.92H86.8a.3.3,0,1,0,0-.6h1.69A.3.3,0,1,0,88.49,32.92Z"/><path class="cls-36" d="M89.61,33.53c-1.43-.06-3.07.2-3-.3h0c.07-.51.93-.23,1.89-.3s1.37-.13,1.43.3h0A.31.31,0,0,1,89.61,33.53Z"/><path class="cls-36" d="M76.46,39.18c0,.47-.84.25-1.75.3s-1.42.12-1.55-.22c-.18-.57.88-.34,1.81-.38S76.4,38.74,76.46,39.18Z"/><path class="cls-36" d="M75.62,40.08H73.93a.3.3,0,1,0,0-.6h1.69A.3.3,0,1,0,75.62,40.08Z"/><path class="cls-36" d="M76.74,40.69c-1.43-.06-3.07.2-3-.3h0c.07-.51.93-.23,1.89-.3s1.37-.13,1.43.3h0A.31.31,0,0,1,76.74,40.69Z"/><path class="cls-36" d="M75.14,40.22c0,.47-.84.26-1.75.3s-1.41.12-1.55-.22c-.17-.57.88-.33,1.81-.38S75.08,39.78,75.14,40.22Z"/><path class="cls-36" d="M74.3,41.12H72.61a.3.3,0,1,0,0-.6H74.3A.3.3,0,1,0,74.3,41.12Z"/><path class="cls-36" d="M75.42,41.73c-1.43,0-3.07.2-3-.3h0c.06-.51.92-.23,1.88-.29s1.37-.14,1.43.29h0A.31.31,0,0,1,75.42,41.73Z"/><path class="cls-36" d="M94.74,35.56c0,.47-.84.25-1.76.3s-1.41.12-1.55-.22c-.17-.57.88-.33,1.81-.38S94.68,35.12,94.74,35.56Z"/><path class="cls-36" d="M93.9,36.46H92.21a.3.3,0,1,0,0-.6H93.9A.3.3,0,1,0,93.9,36.46Z"/><path class="cls-36" d="M95,37.07c-1.42-.06-3.06.2-3-.3h0c.07-.51.92-.23,1.88-.3s1.37-.13,1.43.3h0A.31.31,0,0,1,95,37.07Z"/><path class="cls-22" d="M94.59,37.3c0,.55-1.16.28-2.3.34-.9.11-2-.17-1-.67C93.18,37,94.66,36.76,94.59,37.3Z"/><path class="cls-22" d="M93.66,38.31H91.77a.34.34,0,1,0,0-.67h1.89A.34.34,0,1,0,93.66,38.31Z"/><path class="cls-22" d="M94.9,39c-1.92-.06-3.4.21-3.33-.33h0c.08-.57,1-.26,2.05-.34s1.6-.15,1.65.34h0A.36.36,0,0,1,94.9,39Z"/><path class="cls-22" d="M95.05,33.46c0,.59-.91.32-1.92.38-1.25,0-2,.11-2.17-.17-.43-.85,1-.53,2.17-.58S95,32.91,95.05,33.46Z"/><path class="cls-22" d="M94,34.59H91.87a.38.38,0,1,0,0-.75H94A.38.38,0,1,0,94,34.59Z"/><path class="cls-22" d="M95.39,35.36c-2.47,0-3.79.22-3.74-.38h0c.07-.63,1.12-.29,2.31-.37s1.8-.17,1.85.37h0A.4.4,0,0,1,95.39,35.36Z"/><path class="cls-36" d="M95.41,39.18c0,.47-.83.25-1.75.3s-1.41.12-1.55-.22c-.17-.57.88-.34,1.81-.38S95.36,38.74,95.41,39.18Z"/><path class="cls-36" d="M94.58,40.08h-1.7a.3.3,0,1,0,0-.6h1.7A.3.3,0,1,0,94.58,40.08Z"/><path class="cls-36" d="M95.69,40.69c-1.43-.06-3.06.2-3-.3h0c.07-.51.92-.23,1.88-.3S96,40,96,40.39h0A.31.31,0,0,1,95.69,40.69Z"/><path class="cls-36" d="M94.1,40.22c0,.47-.84.26-1.76.3s-1.41.12-1.55-.22c-.17-.57.88-.33,1.81-.38S94,39.78,94.1,40.22Z"/><path class="cls-36" d="M93.26,41.12H91.57a.3.3,0,1,0,0-.6h1.69A.3.3,0,1,0,93.26,41.12Z"/><path class="cls-36" d="M94.37,41.73c-1.42,0-3.06.2-3-.3h0c.07-.51.92-.23,1.88-.29s1.37-.14,1.43.29h0A.31.31,0,0,1,94.37,41.73Z"/><path class="cls-36" d="M79.93,32.1c0,.47-.84.25-1.76.3s-1.41.12-1.54-.22c-.18-.57.88-.34,1.8-.38S79.87,31.66,79.93,32.1Z"/><path class="cls-36" d="M79.09,33H77.4a.3.3,0,1,0,0-.6h1.69A.3.3,0,1,0,79.09,33Z"/><path class="cls-36" d="M80.21,33.61c-1.43-.06-3.07.2-3-.3h0c.07-.51.93-.23,1.89-.3s1.37-.13,1.43.3h0A.31.31,0,0,1,80.21,33.61Z"/><path class="cls-36" d="M82.59,33c0,.47-.84.26-1.76.3s-1.41.12-1.54-.22c-.18-.57.88-.33,1.8-.38S82.53,32.57,82.59,33Z"/><path class="cls-36" d="M81.75,33.9H80.06a.3.3,0,1,0,0-.6h1.69A.3.3,0,1,0,81.75,33.9Z"/><path class="cls-36" d="M82.86,34.52c-1.42-.06-3.06.2-3-.3h0c.07-.52.93-.23,1.89-.3s1.37-.14,1.43.3h0A.32.32,0,0,1,82.86,34.52Z"/><path class="cls-8" d="M87.55,15.77c0,.54-1.16.27-2.3.33-.9.12-2-.17-1-.67C86.14,15.49,87.62,15.23,87.55,15.77Z"/><path class="cls-8" d="M86.62,16.77H84.73a.34.34,0,1,0,0-.67h1.89A.34.34,0,1,0,86.62,16.77Z"/><path class="cls-8" d="M87.86,17.45c-1.92-.05-3.39.21-3.33-.33h0c.08-.57,1-.26,2-.33s1.6-.16,1.65.33h0A.35.35,0,0,1,87.86,17.45Z"/><path class="cls-22" d="M85.33,13.15c0,.54-1.16.27-2.3.33-.91.12-2-.17-1-.67C83.92,12.87,85.4,12.6,85.33,13.15Z"/><path class="cls-22" d="M84.39,14.15H82.5a.34.34,0,1,0,0-.67h1.89A.34.34,0,1,0,84.39,14.15Z"/><path class="cls-22" d="M85.64,14.83c-1.93-.05-3.4.21-3.33-.33h0c.07-.57,1-.26,2-.34S86,14,86,14.5h0A.36.36,0,0,1,85.64,14.83Z"/><path class="cls-22" d="M88.43,10.77c-.05.59-.91.32-1.92.38-1.25,0-2,.11-2.18-.17-.42-.85,1-.53,2.18-.59S88.38,10.22,88.43,10.77Z"/><path class="cls-22" d="M87.37,11.9H85.25a.38.38,0,1,0,0-.75h2.12A.38.38,0,1,0,87.37,11.9Z"/><path class="cls-22" d="M88.77,12.67c-2.47-.06-3.79.21-3.74-.38h0c.07-.63,1.11-.29,2.3-.37s1.81-.18,1.86.37h0A.4.4,0,0,1,88.77,12.67Z"/><path class="cls-22" d="M81.4,12.45c-.05.59-.9.32-1.92.38-1.25,0-2,.11-2.17-.17-.42-.85,1-.53,2.17-.58S81.35,11.9,81.4,12.45Z"/><path class="cls-22" d="M80.35,13.58H78.23a.38.38,0,1,0,0-.75h2.12A.38.38,0,1,0,80.35,13.58Z"/><path class="cls-22" d="M81.75,14.35c-2.48,0-3.79.21-3.75-.38h0c.08-.63,1.12-.29,2.31-.37s1.8-.17,1.86.37h0A.4.4,0,0,1,81.75,14.35Z"/><path class="cls-36" d="M89.22,13.82c0,.47-.84.26-1.76.3s-1.41.12-1.54-.22c-.18-.57.88-.33,1.81-.38S89.16,13.38,89.22,13.82Z"/><path class="cls-36" d="M88.38,14.72H86.69a.3.3,0,1,0,0-.6h1.69A.3.3,0,1,0,88.38,14.72Z"/><path class="cls-36" d="M89.5,15.33c-1.43-.05-3.07.2-3-.3h0c.07-.51.93-.23,1.89-.3s1.37-.13,1.43.3h0A.31.31,0,0,1,89.5,15.33Z"/><path class="cls-36" d="M83,10.79c0,.47-.84.25-1.76.3s-1.41.12-1.54-.22c-.18-.57.88-.34,1.8-.38S83,10.35,83,10.79Z"/><path class="cls-36" d="M82.18,11.69H80.49a.3.3,0,1,0,0-.6h1.69A.3.3,0,1,0,82.18,11.69Z"/><path class="cls-36" d="M83.3,12.3c-1.43-.06-3.07.2-3-.3h0c.07-.51.93-.23,1.89-.3s1.37-.13,1.43.3h0A.31.31,0,0,1,83.3,12.3Z"/><path class="cls-36" d="M82.48,14.81c0,.47-.84.25-1.76.3s-1.41.12-1.55-.22c-.17-.57.88-.34,1.81-.38S82.42,14.37,82.48,14.81Z"/><path class="cls-36" d="M81.64,15.7H80a.3.3,0,1,0,0-.59h1.69A.3.3,0,1,0,81.64,15.7Z"/><path class="cls-36" d="M82.75,16.32c-1.42-.06-3.06.2-3-.3h0c.07-.51.92-.23,1.88-.3s1.37-.13,1.44.3h0A.32.32,0,0,1,82.75,16.32Z"/><path class="cls-29" d="M74.55,19.37c.26,0,.89.31,1-.07s.32-.77,0-.94C74.08,17.68,74.22,19.38,74.55,19.37Z"/><polygon class="cls-29" points="75.31 19.79 76.14 19.95 76.54 18.25 75.71 18.09 75.31 19.79"/><polygon class="cls-29" points="74.95 19.13 73.71 19.49 74.11 17.79 75.09 18.57 74.95 19.13"/><polygon class="cls-29" points="75.31 19.79 74.95 19.13 75.09 18.57 75.71 18.09 75.31 19.79"/><path class="cls-29" d="M76.84,18.31l-.3-.06-.4,1.7,1.24.24c.07-.29.33-1.43.4-1.7Zm-.5,1.52a3,3,0,0,1,.33-1.43A3.07,3.07,0,0,1,76.34,19.83Zm1,.15c-.33.31.18-1.27.15-1.29h0C77.89,18.29,77.32,19.91,77.36,20Z"/><path class="cls-29" d="M73.86,17.74l-1-.18c-.07.28-.33,1.42-.4,1.69l1.24.24c0-.18.35-1.5.39-1.7Zm-1.11,1.34c-.31.29.14-1.25.19-1.37C73.23,17.53,72.7,19.08,72.75,19.08Zm1-.29c0,.07,0,.55-.2.53a.07.07,0,0,1,0-.1c.1-.24.26-1.65.44-1.25C74,18,73.8,18.77,73.8,18.79Z"/><path class="cls-29" d="M76.47,19.79c.06,0,.79.21.76.1s.26-1.12.28-1.2-.87-.27-.8-.14S76.35,19.72,76.47,19.79Z"/><path class="cls-29" d="M72.79,19.09c.06,0,.79.21.76.1s.26-1.12.28-1.2-.87-.27-.8-.14S72.67,19,72.79,19.09Z"/><path class="cls-29" d="M72.91,17.75l-.27,1.31-.26,0,.08-1.33Z"/><polygon class="cls-32" points="77.25 19.98 79.99 20.44 80.26 19.14 77.52 18.67 77.25 19.98"/><path class="cls-29" d="M93.28,19.37c-.26,0-.89.31-1-.07s-.32-.77,0-.94C93.75,17.68,93.61,19.38,93.28,19.37Z"/><polygon class="cls-29" points="92.52 19.79 91.69 19.95 91.29 18.25 92.13 18.09 92.52 19.79"/><polygon class="cls-29" points="92.88 19.13 94.12 19.49 93.73 17.79 92.74 18.57 92.88 19.13"/><polygon class="cls-29" points="92.52 19.79 92.88 19.13 92.74 18.57 92.13 18.09 92.52 19.79"/><path class="cls-29" d="M91.29,18.25l-1.24.24c.07.29.34,1.42.4,1.7L91.69,20ZM90.56,20c-.12.08-.25-.84-.35-1.19s.12-.31.15.05C90.44,19.4,90.7,19.9,90.56,20Zm.93-.19c-.09.07-.47-1.44-.33-1.43S91.63,19.85,91.49,19.83Z"/><path class="cls-29" d="M95.31,19c0-.1-.34-1.46-.35-1.48l-1.23.23.37,1.61s0,0,0,.09l1.24-.24Zm-1.08.28c-.1.07-.57-1.77-.25-1.37C94,18.13,94.38,19.21,94.23,19.32Zm.94-.19a3.09,3.09,0,0,1-.34-1.42C94.93,17.64,95.31,19.15,95.17,19.13Z"/><path class="cls-29" d="M91.36,19.79c-.06,0-.79.21-.76.1s-.26-1.12-.28-1.2.87-.27.8-.14S91.48,19.72,91.36,19.79Z"/><path class="cls-29" d="M95,19.09c-.06,0-.79.21-.76.1S94,18.07,94,18s.87-.27.8-.14S95.16,19,95,19.09Z"/><path class="cls-29" d="M95.49,19l-.3,0-.27-1.31.47-.08Z"/><polygon class="cls-32" points="90.58 19.98 87.84 20.44 87.57 19.14 90.31 18.67 90.58 19.98"/><path class="cls-29" d="M79.18,13.05c.27,1.21-1.06.89-1.23.66C77.54,12.33,79.25,12.78,79.18,13.05Z"/><rect class="cls-29" x="78.19" y="13.22" width="0.73" height="1.81" transform="translate(64.26 92.66) rotate(-89.88)"/><polygon class="cls-29" points="78.86 13.34 79.47 12.37 77.65 12.37 78.25 13.34 78.86 13.34"/><polygon class="cls-29" points="79.46 13.77 78.86 13.34 78.25 13.34 77.65 13.77 79.46 13.77"/><path class="cls-29" d="M77.65,14.49v1.08h1.81V14.5Zm.19.08c.07,0,1.65-.11,1.44.1C79.3,14.69,77.39,14.78,77.84,14.57Zm1.41.94c-.07,0-1.65.11-1.44-.1C77.79,15.39,79.7,15.3,79.25,15.51Z"/><path class="cls-29" d="M79.24,11.3H77.65v1.08h1.82V11.3Zm-1.39.07c.08.05,1.64-.11,1.44.11a10.73,10.73,0,0,1-1.08,0C78,11.48,77.65,11.54,77.85,11.37Zm1.41.94c-.06,0-1.83.11-1.39-.12C78,12.23,79.66,12.08,79.26,12.31Z"/><path class="cls-29" d="M79.23,14.73c0,.06.07.71,0,.66H77.91c-.07,0-.11-.78,0-.7A7.29,7.29,0,0,1,79.23,14.73Z"/><path class="cls-29" d="M79.24,11.53c0,.05.06.7,0,.65H77.91c-.07.05-.1-.78,0-.7S79.2,11.42,79.24,11.53Z"/><polygon class="cls-32" points="79.3 9.03 79.24 11.4 77.85 11.37 77.91 9 79.3 9.03"/><path class="cls-29" d="M94.3,29c-1.18-.16-.91-.82-.38-1.33C95.7,27.69,94.54,29.16,94.3,29Z"/><polygon class="cls-29" points="93.4 28.98 92.59 28.74 93.21 27.09 94.02 27.34 93.4 28.98"/><polygon class="cls-29" points="94.08 28.58 94.95 29.46 95.57 27.82 94.29 28.04 94.08 28.58"/><polygon class="cls-29" points="93.4 28.98 94.08 28.58 94.29 28.04 94.02 27.34 93.4 28.98"/><path class="cls-29" d="M92,26.73c-.11.28-.52,1.37-.62,1.64l1.19.37.62-1.64Zm-.44,1.55c-.14,0,.26-.83.37-1.18s.29-.22.11.1C91.83,27.68,91.78,28.24,91.58,28.28Zm1,.22c-.36.38.42-1.78.47-1.25Z"/><path class="cls-29" d="M96.09,28l-.52-.16L95,29.46l1.2.37c.1-.28.52-1.38.62-1.64Zm-1,1.39c-.12,0,.41-1.46.52-1.38A3.19,3.19,0,0,1,95.14,29.37Zm1,.08c0,.1-.16.32-.18.09C96.63,27.71,96.82,28,96.19,29.45Z"/><path class="cls-29" d="M92.41,28.45s-.8-.18-.72-.27L92.13,27c0-.08.9.17.77.24C92.77,27.51,92.54,28.44,92.41,28.45Z"/><path class="cls-29" d="M96,29.54s-.8-.18-.71-.27.4-1.08.43-1.15.9.17.77.25C96.33,28.61,96.11,29.54,96,29.54Z"/><path class="cls-29" d="M96.7,28.36l-.48,1.26-.11,0c0-.13.45-1.1.5-1.24Z"/><polygon class="cls-32" points="91.63 28.25 89.01 27.39 89.52 26.14 92.14 27 91.63 28.25"/><path class="cls-29" d="M74.12,29c1.17-.17.91-.83.38-1.34C72.71,27.75,73.87,29.21,74.12,29Z"/><polygon class="cls-29" points="75.01 29.04 75.82 28.79 75.2 27.15 74.39 27.4 75.01 29.04"/><polygon class="cls-29" points="74.33 28.64 73.46 29.52 72.84 27.88 74.13 28.09 74.33 28.64"/><polygon class="cls-29" points="75.01 29.04 74.33 28.64 74.13 28.09 74.39 27.4 75.01 29.04"/><path class="cls-29" d="M77,28.25l-.55-1.47-1.2.37.62,1.64,1.2-.36Zm-1,.35c-.06.12-.76-1.55-.47-1.38C75.51,27.32,76.05,28.54,75.92,28.6Zm.91-.26c0,.14-.81-1.69-.43-1.34C76.39,27.11,77,28.27,76.83,28.34Z"/><path class="cls-29" d="M73.39,29.33s-.54-1.45-.54-1.45l-1.2.36c.11.29.52,1.39.62,1.64l1.19-.36Zm-1,.36c-.12,0-.15-.25-.28-.56s-.45-.95-.15-.78c.08.21.41,1.07.47,1.24S72.42,29.65,72.36,29.69Zm.92-.26c-.06.12-.76-1.55-.47-1.38C72.86,28.1,73.42,29.4,73.28,29.43Z"/><path class="cls-29" d="M76,28.51c0-.05.8-.18.71-.27s-.41-1.09-.44-1.16-.9.17-.77.25C75.64,27.57,75.87,28.5,76,28.51Z"/><path class="cls-29" d="M72.45,29.6c0-.05.8-.18.71-.27l-.44-1.15c0-.08-.9.17-.77.24C72.08,28.66,72.31,29.59,72.45,29.6Z"/><path class="cls-29" d="M72.31,29.64l-.12,0-.47-1.26.08,0C71.82,28.44,72.28,29.58,72.31,29.64Z"/><polygon class="cls-32" points="76.78 28.31 79.4 27.44 78.9 26.2 76.28 27.06 76.78 28.31"/><path class="cls-29" d="M88.9,13.05c.27,1.21-1.06.89-1.23.66C87.27,12.33,89,12.78,88.9,13.05Z"/><rect class="cls-29" x="87.91" y="13.22" width="0.73" height="1.81" transform="translate(73.96 102.38) rotate(-89.88)"/><polygon class="cls-29" points="88.58 13.34 89.19 12.37 87.38 12.37 87.98 13.34 88.58 13.34"/><polygon class="cls-29" points="89.19 13.77 88.58 13.34 87.98 13.34 87.37 13.77 89.19 13.77"/><path class="cls-29" d="M87.37,14.49v1.08h1.81V14.5Zm.2.08c.07,0,1.64-.11,1.43.1C89,14.69,87.11,14.78,87.57,14.57Zm1.4.94c-.07,0-1.64.11-1.44-.1C87.52,15.39,89.42,15.3,89,15.51Z"/><path class="cls-29" d="M89,11.3H87.38v1.08h1.81V11.3Zm-1.39.07c.08.05,1.65-.11,1.44.11a10.58,10.58,0,0,1-1.07,0C87.7,11.48,87.38,11.54,87.57,11.37Zm1.41.94c-.07-.05-1.65.12-1.44-.1C87.64,12.17,89.31,12.1,89,12.31Z"/><path class="cls-29" d="M89,14.73c0,.06.06.71-.06.66H87.63c-.07,0-.11-.78,0-.7A7.4,7.4,0,0,1,89,14.73Z"/><path class="cls-29" d="M89,11.53c0,.05.07.7,0,.65H87.64c-.07.05-.11-.78,0-.7C87.93,11.52,88.92,11.42,89,11.53Z"/><polygon class="cls-32" points="89.03 9.03 88.96 11.4 87.57 11.37 87.64 9 89.03 9.03"/><path class="cls-29" d="M81.36,37c.17.74-.47.76-.91.51C80.12,36.51,81.36,36.74,81.36,37Z"/><rect class="cls-29" x="80.63" y="37.12" width="0.54" height="1.35" transform="translate(42.94 118.62) rotate(-89.88)"/><polygon class="cls-29" points="81.13 37.21 81.58 36.49 80.23 36.48 80.68 37.21 81.13 37.21"/><polygon class="cls-29" points="81.58 37.52 81.13 37.21 80.68 37.21 80.22 37.52 81.58 37.52"/><path class="cls-29" d="M80.22,38.07v.8h1.35v-.8Zm.15,0s1.43-.07,1,.09C81.22,38.17,80.11,38.31,80.37,38.12Zm1.06.7h-.82C79.69,38.81,81.58,38.58,81.43,38.82Z"/><path class="cls-29" d="M81.41,35.68H80.23v.8h1.35v-.81Zm-1,.06c.15,0,1-.07,1.09,0S80.06,35.91,80.37,35.74Zm1,.7s-1.31.1-1-.09C80.41,36.39,81.7,36.25,81.42,36.44Z"/><path class="cls-29" d="M81.41,38.24c.13.81-.43.4-1,.49C80.08,38,81,38.22,81.41,38.24Z"/><path class="cls-29" d="M81.41,35.86c.14.8-.42.39-1,.48C80.08,35.58,81,35.83,81.41,35.86Z"/><polygon class="cls-32" points="81.46 33.99 81.41 35.76 80.37 35.74 80.42 33.97 81.46 33.99"/><polygon class="cls-32" points="81.43 38.76 81.39 40.53 80.35 40.5 80.4 38.73 81.43 38.76"/><path class="cls-29" d="M86.76,37c.16.74-.48.76-.91.51C85.52,36.51,86.76,36.74,86.76,37Z"/><rect class="cls-29" x="86.03" y="37.12" width="0.54" height="1.35" transform="matrix(0, -1, 1, 0, 48.32, 124.01)"/><polygon class="cls-29" points="86.52 37.21 86.97 36.49 85.62 36.48 86.07 37.21 86.52 37.21"/><polygon class="cls-29" points="86.97 37.52 86.52 37.21 86.07 37.21 85.62 37.52 86.97 37.52"/><path class="cls-29" d="M85.62,38.07v.8H87v-.8Zm.15,0s1.43-.07,1,.09C86.62,38.17,85.51,38.31,85.77,38.12Zm1.06.7H86C85.09,38.81,87,38.58,86.83,38.82Z"/><path class="cls-29" d="M86.81,35.68H85.63v.8H87v-.81Zm-1,.06c.15,0,1-.07,1.09,0S85.46,35.91,85.77,35.74Zm1,.7s-1.32.1-1-.09C85.81,36.39,87.1,36.25,86.82,36.44Z"/><path class="cls-29" d="M86.8,38.24c.14.81-.42.4-1,.49C85.47,38,86.39,38.22,86.8,38.24Z"/><path class="cls-29" d="M86.81,35.86c.14.8-.43.39-1,.48C85.48,35.58,86.39,35.83,86.81,35.86Z"/><polygon class="cls-32" points="86.85 33.99 86.81 35.76 85.77 35.74 85.82 33.97 86.85 33.99"/><polygon class="cls-32" points="86.83 38.76 86.78 40.53 85.75 40.5 85.8 38.73 86.83 38.76"/><path class="cls-7" d="M96.55,35.08c-1,6.37-11.13,4.76-10.5-.77,1.83-22.17,1.33-21.83,2.7-23.38,2.54-2.95,8.61-1.86,9.37,1.88a4.31,4.31,0,0,1,0,1.65C97.94,17.46,96.55,35.08,96.55,35.08ZM93.81,7.72l-.76,0c-3.66-.24-6.86,2.27-7.12,5.57l-1.66,21c-.26,3.3,2.51,6.19,6.17,6.43l.76.05c3.66.23,6.86-2.28,7.12-5.57L100,14.14C100.24,10.85,97.47,8,93.81,7.72Z"/><path class="cls-1" d="M84.93,52.35a.69.69,0,0,1-1.18,0c-2.62-4.1-13-20.8-13.07-28.57a13.38,13.38,0,0,1,26.75-.26C97.5,31.29,87.47,48.2,84.93,52.35Z"/><circle class="cls-31" cx="81.05" cy="22.53" r="6.67"/><ellipse class="cls-3" cx="82.38" cy="56.67" rx="8" ry="1.4" transform="translate(-0.56 0.82) rotate(-0.57)"/><path class="cls-7" d="M96.05,38.94c-.77,6.38-7.23,5-6.69-.51C91.1,16.26,90.78,16.61,91.69,15c1.7-3,5.55-2.08,5.94,1.64a6.21,6.21,0,0,1,0,1.64C97.39,21.31,96.05,38.93,96.05,38.94ZM95,11.69l-.49,0c-2.33-.15-.78,2.92-1,6.22l-1.77,19c-.25,3.3-2,7.67.28,7.81l.49,0c2.33.14,4.44-2.45,4.69-5.75l1.61-21C99,14.65,97.34,11.84,95,11.69Z"/><path class="cls-7" d="M69.12,17.59a7.58,7.58,0,0,1,0-1.65c.47-3.74,4.2-4.83,5.77-1.88.84,1.55.54,1.2,1.66,23.37.39,5.54-5.88,7.15-6.46.78C70.13,38.2,69.27,20.59,69.12,17.59ZM68,17.27l1,21.05c.17,3.3,2.14,5.81,4.39,5.57l.47,0c2.25-.23.63-4.54.47-7.84L73.12,17c-.16-3.3,1.41-6.44-.84-6.2l-.47,0C69.56,11.08,67.85,14,68,17.27Z"/><path class="cls-29" d="M25.26,40.32c-.6,2.21-2.21,1.48-2.94.26C22.85,37.47,25.6,39.64,25.26,40.32Z"/><rect class="cls-29" x="22.19" y="40.08" width="1.65" height="3.72" transform="translate(-24.8 43.71) rotate(-63.37)"/><polygon class="cls-29" points="24.37 40.62 26.47 39.21 23.14 37.54 23.26 40.06 24.37 40.62"/><polygon class="cls-29" points="25.05 42.04 24.37 40.62 23.26 40.06 21.72 40.37 25.05 42.04"/><path class="cls-29" d="M21,41.85,19.88,44l3.33,1.66,1.1-2.18Zm.28.33c.06.12,3.63,1.57,2.33,1.48C23.3,43.37,20.37,42.38,21.26,42.18Zm1.67,3.22c-.08,0-1.22-.61-2-1C18.65,43.23,23.62,44.91,22.93,45.4Z"/><path class="cls-29" d="M27.15,36.81l-2.91-1.46-1.1,2.19,3.33,1.66L27.57,37Zm-2.63-1.12c.32.28,2.65,1.08,2.61,1.46C27.25,37.38,23.52,35.76,24.52,35.69Zm1.63,3.2c0-.15-3.38-1.35-2.44-1.53C23.72,37.51,27.09,38.71,26.15,38.89Z"/><path class="cls-29" d="M23.65,43.79c-.75,2.36-1.58.56-3.1.12C20.74,41.41,22.67,43.21,23.65,43.79Z"/><path class="cls-29" d="M26.91,37.28c-.75,2.36-1.58.56-3.09.12C24,34.9,25.93,36.7,26.91,37.28Z"/><polygon class="cls-32" points="30.21 32.6 30 33 29 36 28 37 27.64 37.34 24.52 35.69 31.48 28.26 30.21 32.6"/><polygon class="cls-32" points="23.05 45.23 18 49 18 49 18 48.66 18 49 19.81 45.24 20.53 43.89 23.05 45.23"/><path class="cls-16" d="M10.65,33H9.91a.13.13,0,0,0-.13.12V34a.12.12,0,0,0,.13.12h.74a.12.12,0,0,0,.13-.12v-.89A.13.13,0,0,0,10.65,33Zm0,1H9.94v-.83h.68Z"/><circle class="cls-16" cx="10.26" cy="34.97" r="1.61"/><path class="cls-38" d="M10.28,34H9.94v-.83h.34V33H9.91a.13.13,0,0,0-.13.12V34a.12.12,0,0,0,.13.12h.37Z"/><path class="cls-38" d="M10.28,33.36h0a1.61,1.61,0,0,0,0,3.21h0Z"/><circle class="cls-39" cx="10.26" cy="34.97" r="1.4"/><circle class="cls-40" cx="10.26" cy="34.97" r="1.31"/><circle class="cls-36" cx="10.26" cy="34.97" r="1.31"/><rect class="cls-41" x="9.48" y="34.6" width="1.59" height="0.76"/><rect class="cls-38" x="10.12" y="33.74" width="0.28" height="2.44"/><path class="cls-42" d="M10.4,35a.14.14,0,0,1-.28,0,.14.14,0,0,1,.28,0Z"/><circle class="cls-39" cx="10.26" cy="34.97" r="0.11"/><polygon class="cls-43" points="10.56 34.55 9.96 34.55 10.22 34.1 10.26 34.03 10.3 34.11 10.56 34.55"/><polygon class="cls-36" points="10.3 34.11 10.3 34.35 10.22 34.35 10.22 34.1 10.26 34.03 10.3 34.11"/><path class="cls-16" d="M9.67,35.15l-.09-.35h.05l0,.18a.6.6,0,0,1,0,.12h0l0-.12,0-.18h.05l0,.18,0,.12h0a.5.5,0,0,1,0-.12L10,34.8h0l-.1.35H9.86l0-.18a.7.7,0,0,1,0-.12h0a.3.3,0,0,1,0,.12l0,.18Z"/><path class="cls-16" d="M10.82,35h-.14v.12h.15v0h-.2V34.8h.19v0h-.14V35h.14Z"/><rect class="cls-16" x="10.23" y="33.66" width="0.06" height="0.18"/><rect class="cls-16" x="10.23" y="36.09" width="0.06" height="0.18"/><rect class="cls-16" x="11.39" y="34.94" width="0.18" height="0.06"/><rect class="cls-16" x="8.96" y="34.94" width="0.18" height="0.06"/><rect class="cls-16" x="11.09" y="35.73" width="0.06" height="0.18" transform="translate(-22.07 18.36) rotate(-45)"/><rect class="cls-16" x="9.37" y="34.01" width="0.06" height="0.18" transform="translate(-21.36 16.64) rotate(-45)"/><rect class="cls-16" x="9.31" y="35.8" width="0.18" height="0.06" transform="translate(-22.58 17.15) rotate(-45)"/><rect class="cls-16" x="11.03" y="34.08" width="0.18" height="0.06" transform="translate(-20.86 17.86) rotate(-45)"/><rect class="cls-16" x="10.62" y="33.8" width="0.18" height="0.06" transform="translate(-24.69 31.35) rotate(-68.41)"/><rect class="cls-16" x="9.73" y="36.07" width="0.18" height="0.06" transform="translate(-27.36 31.94) rotate(-68.41)"/><rect class="cls-16" x="11.37" y="35.32" width="0.06" height="0.18" transform="matrix(0.37, -0.93, 0.93, 0.37, -25.73, 32.98)"/><rect class="cls-16" x="9.1" y="34.43" width="0.06" height="0.18" transform="translate(-26.32 30.31) rotate(-68.41)"/><rect class="cls-16" x="10.72" y="35.99" width="0.06" height="0.18" transform="translate(-13.45 7.24) rotate(-23.41)"/><rect class="cls-16" x="9.75" y="33.76" width="0.06" height="0.18" transform="translate(-12.64 6.67) rotate(-23.41)"/><rect class="cls-16" x="9.06" y="35.42" width="0.18" height="0.06" transform="translate(-13.33 6.55) rotate(-23.41)"/><rect class="cls-16" x="11.29" y="34.45" width="0.18" height="0.06" transform="translate(-12.76 7.36) rotate(-23.41)"/><path class="cls-1" d="M107.18,18.29c-.74,7.25,7.21,23.92,9.23,28a.64.64,0,0,0,1.09.11c2.8-3.61,13.92-18.35,14.65-25.6a12.55,12.55,0,1,0-25-2.53"/><circle class="cls-31" cx="112.9" cy="19.41" r="6.26"/><path class="cls-16" d="M113.51,24.72h-3.59v4.56a.46.46,0,0,0,.47.45h3.12Z"/><path class="cls-25" d="M113.51,24.72h-3.59V26a3.15,3.15,0,0,0,3.19,3.1h.4Z"/><path class="cls-26" d="M113.51,24.72h-3v.65c0,2,1.18,3.18,2.63,3.18h.4Z"/><path class="cls-27" d="M113.51,24.72h-3v.65a3.56,3.56,0,0,0,.72,2.29h2.31Z"/><path class="cls-26" d="M113.51,24.72h-3v.65a4.35,4.35,0,0,0,.12,1.06h2.91Z"/><path class="cls-23" d="M116.58,37.36h-1.7a.6.6,0,0,1-.61-.59v-1.1a.6.6,0,0,1,.61-.59h1.7a.6.6,0,0,1,.6.59v1.1A.59.59,0,0,1,116.58,37.36Z"/><path class="cls-28" d="M115.6,35.08h-.72a.6.6,0,0,0-.61.59v1.1a.6.6,0,0,0,.61.59h.72Z"/><path class="cls-23" d="M112.82,37.36h-1.7a.6.6,0,0,1-.61-.59v-1.1a.61.61,0,0,1,.61-.59h1.7a.6.6,0,0,1,.61.59v1.1A.6.6,0,0,1,112.82,37.36Z"/><path class="cls-28" d="M111.87,35.08h-.75a.61.61,0,0,0-.61.59v1.1a.6.6,0,0,0,.61.59h.75Z"/><path class="cls-23" d="M109.06,37.36h-1.7a.59.59,0,0,1-.6-.59v-1.1a.6.6,0,0,1,.6-.59h1.7a.6.6,0,0,1,.61.59v1.1A.6.6,0,0,1,109.06,37.36Z"/><path class="cls-28" d="M108.13,35.08h-.77a.6.6,0,0,0-.6.59v1.1a.59.59,0,0,0,.6.59h.77Z"/><polygon class="cls-16" points="114.08 30.35 114.08 35.27 114.65 36.36 116.9 36.36 117.47 35.27 117.47 30.35 114.08 30.35"/><polygon class="cls-29" points="115.68 30.35 114.08 30.35 114.08 35.27 114.65 36.36 115.68 36.36 115.68 30.35"/><polygon class="cls-16" points="110.28 30.35 110.28 35.27 110.84 36.36 113.1 36.36 113.66 35.27 113.66 30.35 110.28 30.35"/><polygon class="cls-29" points="111.88 30.35 110.28 30.35 110.28 35.27 110.84 36.36 111.88 36.36 111.88 30.35"/><polygon class="cls-16" points="106.52 30.35 106.52 35.27 107.09 36.36 109.34 36.36 109.9 35.27 109.9 30.35 106.52 30.35"/><polygon class="cls-29" points="108.12 30.35 106.52 30.35 106.52 35.27 107.09 36.36 108.12 36.36 108.12 30.35"/><path class="cls-8" d="M119.36,38.2h1.9a.19.19,0,0,0,.2-.19v-.07a.19.19,0,0,0-.2-.19h-1.9a.2.2,0,0,0-.21.19V38A.2.2,0,0,0,119.36,38.2Z"/><path class="cls-21" d="M118.22,38.82h-.49a.2.2,0,0,1-.2-.2v-.51a.2.2,0,0,1,.2-.2h.49a.21.21,0,0,1,.21.2v.51A.21.21,0,0,1,118.22,38.82Z"/><rect class="cls-16" x="117.02" y="37.7" width="0.61" height="1.32"/><polygon class="cls-16" points="117.98 38.58 118.79 39.02 118.79 37.7 117.98 38.14 117.98 38.58"/><polygon class="cls-16" points="117.62 39.02 117.98 38.58 117.98 38.14 117.62 37.7 117.62 39.02"/><path class="cls-16" d="M116.12,37.7V39h.9V37.7Zm.15,1.17a0,0,0,0,1-.1,0v-1a.05.05,0,0,1,.1,0Zm.68,0a0,0,0,0,1-.1,0v-1a.05.05,0,0,1,.1,0Z"/><path class="cls-16" d="M118.79,37.7V39h.89V37.7Zm.15,1.17a.05.05,0,0,1,0,.05,0,0,0,0,1,0-.05v-1a0,0,0,0,1,0,0s0,0,0,0Zm.68,0a.05.05,0,0,1-.1,0v-1a0,0,0,0,1,.1,0Z"/><rect class="cls-30" x="116.27" y="37.85" width="0.58" height="1" rx="0.03"/><rect class="cls-30" x="118.94" y="37.85" width="0.58" height="1" rx="0.03"/><path class="cls-21" d="M118.62,29.52h-.45a.19.19,0,0,1-.19-.19v-.47a.19.19,0,0,1,.19-.19h.45a.2.2,0,0,1,.19.19v.47A.2.2,0,0,1,118.62,29.52Z"/><rect class="cls-16" x="117.5" y="28.48" width="0.56" height="1.23"/><polygon class="cls-16" points="118.39 29.3 119.14 29.71 119.14 28.48 118.39 28.89 118.39 29.3"/><polygon class="cls-16" points="118.06 29.71 118.39 29.3 118.39 28.89 118.06 28.48 118.06 29.71"/><path class="cls-16" d="M116.67,28.48v1.23h.83V28.48Zm.14,1.09a0,0,0,0,1,0,0s-.05,0-.05,0v-.95s0,0,.05,0a0,0,0,0,1,0,0Zm.63,0a0,0,0,0,1,0,0,0,0,0,0,1,0,0v-.95a0,0,0,0,1,0,0,0,0,0,0,1,0,0Z"/><path class="cls-16" d="M119.14,28.48v1.23H120V28.48Zm.15,1.09s0,0-.05,0a0,0,0,0,1,0,0v-.95a0,0,0,0,1,0,0s.05,0,.05,0Zm.63,0a0,0,0,0,1,0,0,0,0,0,0,1,0,0v-.95a0,0,0,0,1,0,0,0,0,0,0,1,0,0Z"/><rect class="cls-30" x="116.81" y="28.62" width="0.54" height="0.93" rx="0.03"/><rect class="cls-30" x="119.29" y="28.62" width="0.54" height="0.93" rx="0.03"/><path class="cls-30" d="M113.09,38.86h3a.13.13,0,0,0,.13-.13V38a.13.13,0,0,0-.13-.13h-3A.13.13,0,0,0,113,38v.75A.13.13,0,0,0,113.09,38.86Z"/><path class="cls-30" d="M119.74,38.86h2.94a.13.13,0,0,0,.14-.13V38a.13.13,0,0,0-.14-.13h-2.94a.13.13,0,0,0-.13.13v.75A.13.13,0,0,0,119.74,38.86Z"/><rect class="cls-44" x="110.98" y="31.16" width="1.6" height="3.65" rx="0.41"/><rect class="cls-7" x="110.98" y="35.19" width="1.6" height="0.67" rx="0.13"/><rect class="cls-7" x="110.24" y="31.65" width="3.06" height="2.85" rx="0.41"/><rect class="cls-7" x="110.87" y="28.44" width="1.8" height="2.72" rx="0.41"/><path class="cls-45" d="M111.77,28.44h-.49a.42.42,0,0,0-.41.41v1.9a.42.42,0,0,0,.41.41h.49Z"/><path class="cls-44" d="M112.68,28.87v0a.42.42,0,0,0-.42-.41h-1a.42.42,0,0,0-.41.41v0Z"/><rect class="cls-46" x="109.43" y="30.6" width="2.34" height="0.98" rx="0.2"/><rect class="cls-46" x="111.77" y="30.6" width="2.34" height="0.98" rx="0.22"/><path class="cls-8" d="M111.77,31.06V30.8a.2.2,0,0,0-.2-.2h-1.94a.2.2,0,0,0-.2.2v.26Z"/><path class="cls-8" d="M114.11,31.06v-.24a.22.22,0,0,0-.22-.22H112a.22.22,0,0,0-.23.22v.24Z"/><rect class="cls-46" x="109.43" y="34.5" width="2.34" height="0.98" rx="0.2"/><path class="cls-46" d="M113.89,35.49h-1c-1.12.2-1.48-.42-.89-1C112.88,34.53,114.92,34.19,113.89,35.49Z"/><path class="cls-8" d="M111.77,35c.1-.71-.44-.4-1.33-.47s-1-.19-1,.47Z"/><path class="cls-8" d="M114.11,35c.09-.7-.45-.4-1.32-.47s-1-.17-1,.47Z"/><rect class="cls-8" x="109.3" y="29.34" width="2.29" height="0.52"/><rect class="cls-47" x="109.97" y="27.14" width="3.61" height="0.97"/><rect class="cls-48" x="109.97" y="27.14" width="3.61" height="0.46"/><path class="cls-29" d="M110.21,29.38l-3.63.25c0-2.21-.43-2.1,1.76-2.08C110.79,27.42,110.11,27.79,110.21,29.38Z"/><path class="cls-16" d="M109.77,27.55h-1.38V29.5l1.82-.12C110.13,28.94,110.48,27.58,109.77,27.55Z"/><path class="cls-49" d="M110.21,28.48c.12-1.26-.56-.86-2-.93-1.25,0-1.74-.22-1.65.93Z"/><path class="cls-47" d="M109.77,27.55h-1.38v.93h1.82C110.22,28.13,110.27,27.61,109.77,27.55Z"/><path class="cls-48" d="M110.17,27.9c-4-.09-4.06.46-3.92-1.25.09-.57,3.06-.14,3.86-.26C110.67,26.21,110.79,27.88,110.17,27.9Z"/><path class="cls-7" d="M110.17,26.39h-1.78V27.9c.32-.06,1.91.15,2.09-.16S110.66,26.4,110.17,26.39Z"/><path class="cls-46" d="M109.26,35.53c-6.9-.22-5.46,1.54-5.41-5.46.51-.36.4-.1,1.08-.25,6.41-.62,4.46-1.61,4.76,4.52C109.67,35,109.85,35.42,109.26,35.53Z"/><path class="cls-45" d="M109.69,30.6c.18-1.9-.57-1.13-2.59-1-2,.33-3.55,0-3.33,1Z"/><path class="cls-8" d="M109.26,29.33l-2.65.3v5.9c1.27-.1,3.3.36,3.08-.57C109.57,32.56,110.05,29.12,109.26,29.33Z"/><path class="cls-7" d="M109.26,29.33l-2.65.3v1h3.08C109.65,30.22,109.89,29.37,109.26,29.33Z"/><path class="cls-46" d="M108.53,42.19c-7.34.21-5.48,1.86-4.77-5.65,0-.7.71-.45,2.22-.49,1.3,0,1.91-.21,2,.43C108.48,39.84,109.39,42.26,108.53,42.19Z"/><path class="cls-8" d="M108,36.48c0-.62-1-.4-1.37-.43V42.3C110.19,42.19,108.78,42.45,108,36.48Z"/><path class="cls-7" d="M109.62,36.27l-5.57.3c-.52.18-.83-.74-.4-1.36.12-.22,4.57,0,5.77-.07C110.16,35,110.29,36.19,109.62,36.27Z"/><path class="cls-45" d="M110,35.74c.15-1-1.65-.47-3.5-.6-1.85.08-3.2-.34-3.06.6Z"/><path class="cls-48" d="M109.62,35.14h-3v1.29C107.24,36.34,111.54,36.6,109.62,35.14Z"/><path class="cls-7" d="M109.62,35.14h-3v.6H110A.49.49,0,0,0,109.62,35.14Z"/><path class="cls-45" d="M108.74,42.79l-4.88.3c-.8.12-1.34,0-1-1.16.08-.38,4.41-.32,5.67-.5C109.34,41.19,109.36,42.78,108.74,42.79Z"/><path class="cls-7" d="M108.74,41.42l-2.13.13v1.37c.35-.08,2.27,0,2.46-.3S109.25,41.47,108.74,41.42Z"/><path class="cls-8" d="M104.42,34.66c-.31.05-.33-1.83,0-1.76S104.75,34.74,104.42,34.66Z"/><path class="cls-8" d="M103.79,40.37c-.35-.06,0-.87,0-1.41C104.25,37.63,104.34,40.34,103.79,40.37Z"/><path class="cls-46" d="M108.26,40.31c-.3.09-.55-1.78-.22-1.75S108.6,40.34,108.26,40.31Z"/><path class="cls-8" d="M104.88,40.41c-.32,0-.23-1.84.1-1.75S105.2,40.51,104.88,40.41Z"/><path class="cls-8" d="M106,40.42c-.31,0-.33-1.84,0-1.76S106.29,40.49,106,40.42Z"/><path class="cls-46" d="M107.17,40.38c-.32,0-.33-1.83,0-1.76S107.5,40.46,107.17,40.38Z"/><path class="cls-8" d="M105.17,34.66c-.31.05-.33-1.83,0-1.76S105.51,34.74,105.17,34.66Z"/><path class="cls-8" d="M106,34.66c-.32.05-.33-1.83,0-1.76S106.31,34.74,106,34.66Z"/><path class="cls-46" d="M107.37,34.66c-.31.05-.33-1.83,0-1.76S107.71,34.74,107.37,34.66Z"/><path class="cls-46" d="M108.13,34.66c-.32.05-.33-1.83,0-1.76S108.46,34.74,108.13,34.66Z"/><path class="cls-46" d="M108.93,34.66c-.31.05-.33-1.83,0-1.76S109.26,34.74,108.93,34.66Z"/><path class="cls-8" d="M111,29.8c.75.22.83-.76.4-.93C110.61,28.65,110.53,29.63,111,29.8Z"/><rect class="cls-8" x="112.04" y="29.34" width="2.29" height="0.52"/><path class="cls-8" d="M112.66,29.8c-.75.22-.83-.76-.39-.93C113,28.65,113.1,29.63,112.66,29.8Z"/><path class="cls-16" d="M113.21,34.18c-3.32-.07-3.43.43-3.35-1.19,0-.7-.13-.94.41-1.09,3.32.08,3.43-.42,3.35,1.2C113.6,33.8,113.75,34,113.21,34.18Z"/><path class="cls-29" d="M111.67,31.9c-1.62.06-1.9-.37-1.81,1.3-.24,1.47,1,.87,1.81,1Z"/><path class="cls-8" d="M111.41,33.78c-.11,0-.19-1.52,0-1.55S111.6,33.75,111.41,33.78Z"/><path class="cls-29" d="M112,33.78c-.1,0-.18-1.52,0-1.55S112.14,33.75,112,33.78Z"/><path class="cls-29" d="M112.38,33.78c-.11,0-.19-1.52,0-1.55S112.57,33.75,112.38,33.78Z"/><path class="cls-29" d="M112.8,33.78c-.1,0-.18-1.52,0-1.55S113,33.75,112.8,33.78Z"/><path class="cls-29" d="M113.23,33.78c-.11,0-.19-1.52,0-1.55S113.42,33.75,113.23,33.78Z"/><path class="cls-16" d="M110.13,33.78c-.1,0-.19-1.52,0-1.55S110.32,33.75,110.13,33.78Z"/><path class="cls-16" d="M110.56,33.78c-.11,0-.19-1.52,0-1.55S110.74,33.75,110.56,33.78Z"/><path class="cls-16" d="M111,33.78c-.1,0-.19-1.52,0-1.55S111.17,33.75,111,33.78Z"/><path class="cls-16" d="M111.41,33.78c-.11,0-.19-1.52,0-1.55S111.6,33.75,111.41,33.78Z"/><path class="cls-29" d="M113.26,29.38l3.62.25c0-2.21.43-2.1-1.76-2.08C112.67,27.42,113.36,27.79,113.26,29.38Z"/><path class="cls-16" d="M113.7,27.55h1.37V29.5l-1.81-.12C113.33,28.94,113,27.58,113.7,27.55Z"/><path class="cls-49" d="M113.26,28.48c-.13-1.26.55-.86,2-.93,1.26,0,1.74-.22,1.65.93Z"/><path class="cls-47" d="M113.7,27.55h1.37v.93h-1.81C113.24,28.13,113.19,27.61,113.7,27.55Z"/><path class="cls-48" d="M113.29,27.9c4-.09,4.06.46,3.92-1.25-.09-.57-3.06-.14-3.86-.26C112.79,26.21,112.68,27.88,113.29,27.9Z"/><path class="cls-7" d="M113.29,26.39h1.78V27.9c-.31-.06-1.91.15-2.08-.16S112.8,26.4,113.29,26.39Z"/><path class="cls-46" d="M114.2,35.53c6.9-.22,5.46,1.54,5.41-5.46-.5-.36-.4-.1-1.08-.25-6.41-.62-4.45-1.61-4.76,4.52C113.8,35,113.61,35.42,114.2,35.53Z"/><path class="cls-45" d="M113.77,30.6c-.18-1.9.58-1.13,2.59-1,2,.33,3.55,0,3.33,1Z"/><path class="cls-8" d="M114.2,29.33l2.65.3v5.9c-1.26-.1-3.3.36-3.08-.57C113.89,32.56,113.41,29.12,114.2,29.33Z"/><path class="cls-7" d="M114.2,29.33l2.65.3v1h-3.08C113.81,30.22,113.57,29.37,114.2,29.33Z"/><path class="cls-46" d="M114.93,42.19c7.34.21,5.48,1.86,4.77-5.65,0-.7-.7-.45-2.22-.49-1.3,0-1.91-.21-2,.43C115,39.84,114.08,42.26,114.93,42.19Z"/><path class="cls-8" d="M115.48,36.48c0-.62,1-.4,1.37-.43V42.3C113.27,42.19,114.69,42.45,115.48,36.48Z"/><path class="cls-7" d="M113.84,36.27l5.67.3c.5.17.74-1.14.19-1.41-.18-.11-4.86,0-5.77,0C113.41,35,113.12,36.15,113.84,36.27Z"/><path class="cls-45" d="M113.43,35.74c-.16-1,1.64-.47,3.49-.6,1.85.08,3.2-.34,3.06.6Z"/><path class="cls-48" d="M113.84,35.14h3v1.29C116.22,36.34,111.92,36.6,113.84,35.14Z"/><path class="cls-7" d="M113.84,35.14h3v.6h-3.42A.49.49,0,0,1,113.84,35.14Z"/><path class="cls-45" d="M114.73,42.79l4.87.3c.81.12,1.34,0,1-1.16-.09-.38-4.41-.32-5.68-.5C114.12,41.19,114.1,42.78,114.73,42.79Z"/><path class="cls-7" d="M114.73,41.42l2.12.13v1.37c-.35-.08-2.26,0-2.45-.3S114.21,41.47,114.73,41.42Z"/><path class="cls-8" d="M119,34.66h0c.32.05.33-1.83,0-1.76S118.71,34.74,119,34.66Z"/><path class="cls-8" d="M119.67,40.37h0c.32,0,.07-1.86-.25-1.74S119.35,40.49,119.67,40.37Z"/><path class="cls-46" d="M115.2,40.31h0c.31.09.56-1.78.22-1.75S114.86,40.34,115.2,40.31Z"/><path class="cls-8" d="M118.59,40.41h0c.31,0,.22-1.84-.1-1.75S118.26,40.51,118.59,40.41Z"/><path class="cls-8" d="M117.5,40.42h0c.32,0,.33-1.84,0-1.76S117.17,40.49,117.5,40.42Z"/><path class="cls-46" d="M116.29,40.38h0c.32,0,.34-1.83,0-1.76S116,40.45,116.29,40.38Z"/><path class="cls-8" d="M118.29,34.66h0c.31.05.33-1.83,0-1.76S118,34.74,118.29,34.66Z"/><path class="cls-8" d="M117.48,34.66h0c.32.05.34-1.83,0-1.76S117.15,34.74,117.48,34.66Z"/><path class="cls-46" d="M116.09,34.66h0c.31.05.33-1.83,0-1.76S115.76,34.74,116.09,34.66Z"/><path class="cls-46" d="M115.34,34.66h0c.31.05.33-1.83,0-1.76S115,34.74,115.34,34.66Z"/><path class="cls-46" d="M114.53,34.66h0c.32.05.33-1.83,0-1.76S114.2,34.74,114.53,34.66Z"/><ellipse class="cls-3" cx="118" cy="51.04" rx="9.28" ry="1.63" transform="translate(-0.5 1.17) rotate(-0.57)"/></g></g></svg>